{"glyphs":{"B":{"ha":1069,"x_min":67,"x_max":1011,"o":"m 558 976 l 563 976 q 621 953 597 976 q 643 892 643 929 l 643 886 q 708 858 693 871 q 710 857 708 858 q 750 878 736 878 q 768 881 757 881 l 768 881 q 839 829 817 881 q 846 790 846 811 q 819 725 846 753 l 819 724 q 854 611 838 682 q 861 579 858 592 q 904 606 875 581 l 915 615 l 915 618 l 911 636 l 911 636 q 918 643 913 643 l 919 643 q 932 636 922 643 l 932 636 q 953 683 949 653 l 958 708 l 960 708 q 968 667 964 696 q 972 660 972 660 q 1008 665 1001 665 l 1010 665 l 1011 664 q 968 629 1001 644 l 951 624 q 964 613 951 618 q 968 604 968 610 q 961 597 968 599 q 953 597 960 597 q 936 603 944 597 q 868 553 893 565 q 885 258 885 407 q 876 126 885 144 q 874 118 875 118 q 836 118 860 118 q 819 117 835 118 l 814 29 q 833 28 824 28 q 875 28 861 28 q 878 26 878 28 l 878 24 q 876 11 878 21 l 876 10 q 876 4 876 8 q 876 4 876 4 q 856 3 864 4 q 833 4 844 4 q 797 0 817 4 q 788 28 788 10 l 788 28 q 797 90 788 40 q 797 100 797 94 l 797 101 q 796 115 797 110 q 744 113 771 113 l 735 113 q 542 121 696 113 l 540 121 q 533 100 538 117 q 521 92 529 92 l 519 92 q 517 100 517 92 l 519 119 q 514 122 518 122 q 501 121 511 122 q 493 124 500 121 q 492 117 492 121 q 493 107 493 108 q 488 101 493 103 l 486 101 q 472 124 479 101 l 472 124 q 292 142 425 124 q 221 146 247 146 l 219 146 q 217 125 217 135 l 217 121 q 226 57 217 110 q 226 46 226 51 q 222 25 226 33 q 208 26 213 26 q 144 17 194 26 l 143 17 q 136 38 142 22 q 200 50 154 42 l 200 50 q 192 147 200 72 q 158 161 185 154 q 143 169 143 165 q 135 279 135 215 q 140 406 135 332 q 119 411 133 407 q 115 413 118 413 q 108 399 110 408 q 100 383 108 390 l 100 383 q 92 399 92 386 l 92 399 q 93 415 92 403 q 67 465 67 438 l 67 467 q 122 549 67 508 q 178 569 153 567 q 265 747 231 701 q 240 803 240 774 q 282 874 240 843 q 326 889 306 889 l 331 889 q 383 861 360 889 q 386 858 385 858 q 449 885 438 885 l 450 886 q 469 933 450 907 q 538 974 492 963 q 558 976 550 976 m 481 897 l 481 897 q 554 903 508 903 q 615 897 596 903 l 615 897 l 617 908 q 586 949 617 939 q 565 953 578 953 l 564 953 q 496 926 528 953 q 481 897 481 908 m 569 940 l 572 940 q 583 929 582 940 q 571 919 583 921 l 569 919 q 558 929 558 921 l 558 932 q 569 940 558 939 m 208 567 q 232 547 232 563 q 222 540 228 540 q 201 547 208 547 q 196 540 196 547 q 157 275 157 401 l 157 265 q 163 188 157 219 q 190 176 165 183 l 190 197 q 197 208 192 208 q 211 200 208 206 q 215 182 215 193 l 215 178 l 215 174 q 468 151 418 151 q 472 174 471 151 q 481 181 475 181 q 492 164 492 181 q 490 154 490 160 q 492 149 492 150 l 518 149 l 518 167 q 524 176 518 176 l 525 176 q 536 157 536 176 l 536 153 l 536 149 q 722 140 668 140 l 728 140 q 792 143 756 140 l 793 143 q 786 174 793 146 l 786 178 q 794 190 786 186 q 807 181 801 190 q 815 146 810 175 q 817 143 817 143 q 854 151 826 143 q 858 151 857 151 q 863 253 863 207 l 863 263 q 842 549 863 375 q 832 547 836 547 l 831 547 q 814 560 817 547 l 813 563 q 817 574 815 574 l 818 574 l 831 571 l 833 571 q 836 572 835 571 q 782 743 811 688 q 657 857 743 824 q 543 882 597 882 q 408 846 478 882 q 340 797 376 829 q 286 733 299 756 q 240 654 258 694 q 208 567 208 579 m 264 804 q 279 767 264 783 q 314 804 282 772 q 306 813 306 808 l 306 815 q 319 826 306 824 q 331 818 325 826 q 368 850 342 829 q 326 869 349 869 l 325 869 q 271 833 293 869 q 264 804 264 818 m 732 840 q 764 811 742 835 q 807 753 788 783 q 824 790 824 771 l 824 796 q 799 846 824 822 q 767 857 785 857 q 732 840 747 857 m 767 847 q 779 836 779 844 l 779 835 q 767 825 779 826 q 754 835 754 826 l 754 836 q 767 847 754 846 m 547 832 q 625 803 593 832 q 646 751 646 782 l 646 751 q 593 679 646 704 q 553 671 572 671 q 485 701 511 671 q 472 744 472 719 q 507 818 472 788 q 547 832 526 832 m 492 744 q 521 701 492 718 q 551 694 535 694 q 617 725 592 694 q 622 750 622 736 l 622 754 q 590 800 622 783 q 557 807 575 807 q 494 763 514 807 q 492 744 493 757 m 557 767 q 568 756 568 765 q 556 744 567 744 q 543 756 543 747 q 557 767 543 765 m 340 719 l 343 719 q 407 683 376 719 q 421 639 421 661 q 385 582 421 604 q 350 575 368 575 q 285 610 306 575 q 278 642 278 624 q 301 704 278 679 q 340 719 321 719 m 714 701 l 721 701 q 781 665 761 701 q 786 639 786 653 l 786 639 q 733 567 786 593 q 693 557 713 557 l 689 557 q 643 581 660 557 q 632 619 632 597 q 682 696 632 676 q 714 701 699 701 m 300 638 q 331 600 300 607 q 346 599 340 599 l 351 599 q 388 618 371 599 q 394 642 394 631 l 394 647 q 374 686 394 671 q 354 693 363 693 l 347 693 q 300 650 313 693 l 300 638 m 654 614 q 678 579 654 589 q 703 575 689 575 q 761 617 743 575 q 765 638 765 628 l 765 640 q 738 682 765 671 q 721 685 732 685 q 672 665 693 685 q 654 614 654 640 m 350 651 q 363 640 363 650 q 351 629 363 632 l 349 629 q 338 640 338 632 q 350 651 338 650 l 350 651 m 710 643 q 721 633 721 642 l 721 632 q 710 621 721 624 q 697 633 697 624 q 710 643 697 642 m 88 468 q 96 440 88 457 q 107 453 97 440 q 118 457 111 457 q 125 450 118 456 l 125 449 l 125 447 q 119 438 125 446 l 119 433 l 128 432 l 139 433 q 146 432 140 433 q 169 544 151 464 l 169 544 q 122 521 147 536 q 88 468 88 496 m 321 497 q 414 467 379 497 q 449 376 449 433 q 417 278 449 324 q 381 249 394 256 q 317 231 349 231 q 229 268 268 231 q 201 351 201 304 l 201 360 q 235 463 201 417 q 321 497 263 497 m 767 475 q 825 429 807 475 q 831 390 831 407 l 831 382 q 789 271 831 322 q 740 239 763 247 q 679 231 717 231 l 674 231 q 543 297 569 231 q 536 346 536 321 q 572 436 536 404 q 592 446 586 444 q 622 439 607 439 l 629 439 q 717 463 654 439 q 767 475 749 475 m 713 426 l 713 425 q 726 401 713 407 q 729 400 728 400 l 731 400 q 756 421 749 400 q 757 432 757 431 q 751 450 757 442 q 749 451 750 451 q 719 442 735 451 q 713 426 713 435 m 614 404 q 621 385 614 390 q 636 382 629 382 l 640 382 q 657 399 657 383 l 657 401 q 650 422 657 411 l 646 422 q 614 417 614 421 q 614 404 614 404 m 301 263 q 313 263 310 263 q 333 263 322 263 l 339 263 q 350 307 350 294 l 350 311 q 335 317 344 317 l 329 317 q 311 313 311 317 q 301 263 301 290 z "},"C":{"ha":921,"x_min":90,"x_max":851,"o":"m 356 981 l 358 981 q 385 956 385 978 l 385 951 q 400 926 400 942 l 400 925 q 421 908 410 925 q 426 885 426 894 l 431 885 q 515 871 496 885 q 529 900 518 876 q 533 901 532 901 l 535 901 q 547 900 546 900 q 549 900 549 900 q 550 906 549 903 q 547 919 547 919 q 567 929 547 929 q 576 940 574 929 q 583 957 579 951 q 589 964 588 963 q 615 953 615 957 q 622 935 622 946 q 606 894 622 926 q 603 874 603 885 l 603 871 q 582 856 596 863 q 575 850 575 850 l 575 849 q 597 831 575 839 q 649 768 633 794 q 689 686 672 732 q 708 625 697 663 q 772 706 747 646 q 788 778 788 740 l 788 781 q 778 796 788 783 q 774 868 776 808 l 775 868 q 797 839 785 861 l 813 813 q 840 869 828 858 q 846 876 840 871 q 851 843 851 865 l 851 836 q 846 735 847 758 q 828 668 838 693 q 794 607 815 635 q 756 571 769 579 q 726 554 746 564 q 749 400 749 479 l 749 400 q 699 239 749 283 q 740 144 740 210 q 711 35 740 86 q 660 0 688 0 l 656 0 q 632 15 639 0 q 631 28 631 19 q 653 74 631 43 q 672 128 672 99 l 672 132 q 635 199 672 167 q 476 171 572 171 l 465 171 q 329 182 401 171 q 317 99 324 119 q 207 24 293 24 q 106 71 147 24 q 90 111 90 92 l 90 115 q 118 156 90 139 q 131 160 124 160 q 149 140 142 160 q 210 88 178 88 q 254 132 243 88 q 258 156 257 139 q 242 206 254 203 q 219 219 225 215 q 171 285 182 258 q 142 397 142 339 l 142 401 q 174 553 142 458 q 186 601 182 582 q 119 675 144 621 q 107 749 107 714 l 107 760 q 122 846 107 801 q 132 867 132 858 q 125 892 131 876 q 125 899 125 896 l 125 903 q 142 968 125 931 l 143 968 q 165 897 151 968 l 167 897 q 213 935 169 897 q 225 942 221 942 q 226 931 226 942 q 199 876 226 907 q 182 839 185 858 q 175 765 175 792 l 175 763 q 215 685 175 701 q 372 868 282 829 l 372 868 q 349 889 358 872 q 344 903 344 897 q 347 914 344 907 q 332 933 338 919 q 331 944 331 940 l 331 949 q 350 981 331 971 l 356 981 m 240 669 q 260 644 253 664 q 263 628 263 636 q 239 593 263 603 q 235 592 238 592 l 233 592 q 213 597 229 592 q 179 478 190 522 q 169 396 169 432 l 169 386 q 251 229 169 294 q 268 249 256 242 q 281 251 276 251 l 286 251 q 322 229 307 251 q 329 207 326 222 q 469 194 408 194 q 604 215 550 194 l 604 217 q 585 240 585 225 q 615 275 585 260 q 635 279 626 279 q 672 265 654 279 l 682 256 q 725 394 725 300 l 725 396 q 703 542 725 463 q 689 540 694 540 q 635 569 654 540 l 635 578 q 686 610 635 603 q 663 688 675 653 q 450 860 592 860 q 246 686 318 860 q 240 669 246 685 m 456 753 l 461 753 q 531 713 501 753 q 547 663 547 688 l 547 654 q 514 585 547 615 q 461 565 489 565 l 456 565 q 385 604 414 565 q 369 654 369 629 l 369 663 q 399 728 369 697 q 456 753 425 753 m 388 694 q 396 683 389 683 l 399 683 q 421 703 410 683 q 425 717 425 710 q 417 728 424 728 l 414 728 q 393 711 404 728 q 388 694 388 701 m 394 658 q 399 653 394 656 l 401 653 q 417 669 410 653 q 418 674 418 669 q 413 681 417 681 l 413 681 q 394 663 401 681 l 394 658 m 271 536 l 276 536 q 333 507 306 536 q 376 488 353 488 q 435 508 397 488 q 474 518 457 518 q 526 499 499 518 q 549 493 538 493 l 553 493 q 610 518 574 493 q 635 525 625 525 q 701 467 679 525 q 708 431 708 447 l 708 425 q 683 365 708 389 q 667 354 672 356 q 613 393 649 354 q 588 406 600 406 q 542 389 568 406 q 476 356 497 356 l 472 356 q 408 386 440 356 q 378 399 393 399 q 331 372 358 399 q 290 354 310 354 l 286 354 q 213 397 247 354 q 197 442 197 419 q 217 513 197 476 q 247 533 224 525 q 271 536 260 536 m 499 492 q 506 464 501 471 l 506 464 q 515 475 506 465 l 517 479 l 517 482 q 499 492 515 482 l 499 492 m 417 478 l 417 476 q 431 464 417 469 q 431 465 431 465 q 438 482 431 469 q 438 483 438 482 q 436 488 438 488 q 417 478 419 478 m 454 326 l 456 326 q 504 297 485 326 q 514 271 514 283 q 508 250 514 261 l 508 250 q 486 286 494 250 q 458 307 478 307 q 429 281 436 307 q 429 275 429 278 q 436 260 429 260 l 442 258 q 463 271 463 261 l 463 272 q 457 276 463 276 q 450 265 453 276 q 446 265 447 265 q 439 278 439 272 l 439 279 q 456 290 439 289 l 460 290 q 483 269 483 288 q 461 243 483 256 q 443 238 453 238 l 440 238 q 414 260 422 238 q 413 275 413 268 q 436 322 414 314 q 454 326 444 326 z "},"D":{"ha":1117,"x_min":53,"x_max":1053,"o":"m 532 972 q 564 938 544 961 q 672 800 640 838 q 689 781 686 785 q 747 840 719 799 q 801 885 776 885 q 833 863 817 885 q 836 846 836 854 l 836 844 q 771 751 836 807 q 725 724 743 731 l 725 722 q 761 690 743 690 l 763 690 q 821 747 788 690 q 851 783 832 764 q 878 793 864 793 q 908 779 892 793 q 919 750 919 765 l 919 750 q 799 636 919 699 q 797 636 799 636 l 797 636 q 896 496 846 571 q 954 554 921 510 l 946 579 q 944 582 944 581 q 954 592 944 592 q 971 581 960 592 q 981 592 978 582 q 983 613 983 601 l 983 635 q 992 657 985 653 q 1006 643 999 657 q 1008 621 1007 635 q 1047 635 1040 635 q 1053 633 1053 635 q 1015 592 1053 613 q 999 572 1003 581 q 1018 553 1001 565 q 1025 542 1022 549 q 1006 533 1014 533 q 981 542 1001 533 q 918 475 949 504 q 913 469 917 475 q 939 400 918 450 q 950 346 950 369 l 950 340 q 942 268 950 326 q 942 257 942 265 l 942 253 q 949 164 942 235 q 950 149 950 161 l 950 139 q 944 103 950 121 q 969 82 951 96 q 981 49 981 69 q 922 3 981 13 q 886 0 904 0 q 778 17 835 0 q 683 53 701 36 q 679 57 679 57 q 689 144 689 75 q 689 156 689 144 q 653 143 653 154 q 636 103 650 126 q 624 93 629 93 q 585 119 594 93 l 585 119 q 550 92 572 92 q 514 122 526 92 q 511 143 511 133 l 511 146 q 508 147 511 146 q 488 146 492 146 q 481 149 485 147 q 478 125 479 144 l 479 88 q 464 50 479 57 q 392 32 443 32 q 250 40 367 32 q 176 61 186 47 q 168 85 168 72 q 189 124 168 107 q 215 135 197 131 q 213 163 213 147 l 213 163 q 214 225 213 168 l 214 236 q 193 325 214 279 q 181 379 181 360 l 181 388 l 182 394 q 132 361 169 393 q 142 336 142 347 l 142 331 q 132 328 139 328 q 115 338 121 328 q 96 319 108 338 q 121 268 121 285 l 121 265 q 119 261 121 261 l 118 261 q 99 282 111 261 q 81 292 90 292 q 74 286 74 289 l 74 285 q 78 268 74 282 q 75 263 78 267 q 53 283 53 267 l 53 285 q 86 350 53 306 q 72 367 72 367 q 69 376 69 372 q 78 385 69 385 l 81 385 q 103 375 83 385 l 106 374 q 179 431 154 414 q 239 557 190 490 q 303 631 263 585 l 307 636 l 307 636 q 244 694 275 651 q 226 749 226 725 q 244 785 226 772 q 265 789 257 789 q 307 740 289 789 q 333 697 318 713 q 347 690 343 690 q 369 714 358 696 q 383 728 374 719 q 338 775 383 729 q 311 835 311 804 q 328 875 311 867 q 346 881 338 881 q 400 821 372 881 q 421 792 410 803 l 422 792 q 488 892 458 835 q 531 972 521 954 l 532 972 m 536 919 q 450 782 501 869 q 388 700 433 753 q 263 554 282 588 q 215 474 233 514 q 204 446 204 449 q 226 450 218 450 q 243 440 243 449 q 243 439 243 440 l 243 436 q 222 413 243 424 q 201 408 213 408 l 201 390 q 211 340 201 365 q 329 318 226 340 q 467 301 379 308 q 567 296 514 297 q 929 319 646 296 l 929 328 q 900 433 929 381 q 892 454 892 453 q 872 447 875 447 q 861 454 863 447 q 858 463 860 454 l 858 464 q 872 486 858 476 q 631 810 810 589 q 538 919 572 881 l 536 919 m 701 749 l 701 749 q 772 785 729 751 q 811 844 811 821 q 801 860 811 857 q 740 793 786 860 q 701 749 724 771 m 331 832 q 394 753 331 799 q 399 753 397 753 l 399 753 q 371 819 386 790 q 342 856 351 856 l 342 856 q 331 832 335 856 m 775 660 l 776 658 l 779 658 q 829 682 793 658 q 896 743 896 718 l 896 746 q 879 768 896 761 l 876 768 q 826 719 860 768 q 785 667 807 692 q 775 660 785 667 m 246 738 q 275 686 246 717 q 318 665 299 665 l 319 665 q 331 665 324 665 l 331 667 q 300 694 313 667 q 282 747 294 707 q 264 763 274 763 l 263 763 q 246 746 250 763 l 246 738 m 550 607 l 551 607 q 628 567 599 607 q 640 525 640 544 q 601 457 640 483 q 551 442 576 442 q 474 483 504 442 q 461 524 461 503 l 461 526 q 507 597 461 569 q 550 607 529 607 m 471 524 q 511 461 471 485 q 550 451 531 451 l 553 451 q 619 486 593 451 q 631 522 631 504 l 631 526 q 594 588 631 561 q 550 599 574 599 q 481 560 507 599 q 471 524 471 543 m 554 553 q 582 533 574 553 q 583 525 583 529 q 561 500 583 508 l 554 499 l 553 499 q 524 521 532 499 q 524 526 524 524 l 524 529 l 524 529 q 535 525 529 525 l 535 525 q 550 542 549 525 q 547 551 550 547 q 554 553 549 553 m 775 449 l 776 449 q 789 442 789 446 q 771 378 789 415 q 761 368 765 372 l 761 368 l 761 371 q 756 399 761 382 l 756 399 q 692 364 724 376 q 528 331 610 331 q 378 363 449 331 q 374 351 375 361 l 371 350 q 354 360 364 350 q 346 379 346 368 l 346 383 q 351 403 349 403 q 358 406 353 406 q 390 386 364 406 q 419 375 396 381 q 531 360 472 360 q 700 404 619 360 q 756 439 729 417 q 775 449 767 449 m 538 146 l 538 143 q 544 121 538 136 q 558 133 551 121 q 561 143 561 140 l 543 146 l 538 146 m 608 143 l 603 143 q 614 119 608 124 l 615 118 q 625 135 615 119 q 628 144 628 139 l 628 146 q 608 143 611 143 m 190 85 q 326 65 235 65 q 393 67 342 65 l 396 68 l 396 68 q 292 96 379 68 q 243 103 261 103 l 238 103 q 190 85 208 103 m 783 56 q 824 42 790 50 q 896 29 863 29 q 957 56 940 29 q 925 67 943 67 l 921 67 q 865 58 910 67 q 799 56 865 57 q 783 56 799 56 z "},"E":{"ha":961,"x_min":53,"x_max":917,"o":"m 492 986 l 499 986 q 586 947 550 986 q 606 908 603 925 q 644 875 618 903 q 715 732 688 829 q 758 508 736 657 l 758 508 q 828 542 792 529 q 868 550 856 550 q 915 510 901 550 q 917 496 917 503 q 876 435 917 461 q 846 425 857 425 q 825 440 829 425 l 825 444 q 857 472 825 461 q 876 493 876 482 q 869 508 876 500 q 864 511 867 511 l 861 511 q 774 468 842 511 q 763 463 764 463 q 765 378 765 411 l 765 360 q 682 150 765 196 q 686 108 683 150 q 697 103 686 106 q 754 58 754 81 q 747 46 753 46 l 746 46 q 658 69 731 46 q 643 76 643 74 q 640 86 640 82 q 646 124 640 90 l 646 131 q 583 110 603 115 q 589 67 588 67 q 643 33 638 43 q 644 26 644 29 l 644 26 q 631 8 644 14 l 622 8 q 557 31 606 8 q 544 38 544 35 q 544 49 544 44 q 546 94 546 81 q 544 100 546 96 q 511 97 529 97 q 414 113 468 97 q 410 83 410 100 q 413 29 413 38 l 413 26 q 393 19 411 26 q 335 0 350 0 l 329 0 q 313 11 318 0 q 311 19 311 15 l 311 22 q 363 57 311 43 l 371 60 q 371 72 371 68 q 375 113 371 78 l 375 118 q 344 131 374 119 q 293 157 310 146 q 285 135 285 149 l 285 129 q 303 60 285 108 q 201 21 236 33 q 194 39 194 31 l 194 40 q 250 83 194 61 l 251 85 q 246 125 246 107 q 254 176 246 140 q 196 217 226 193 q 167 301 167 244 q 185 442 167 335 q 186 461 186 451 q 110 476 175 467 q 75 488 85 482 q 53 513 53 501 q 53 522 53 515 q 82 624 53 574 q 129 654 103 654 q 156 644 144 654 q 168 618 168 631 l 168 617 q 157 601 168 606 q 132 618 144 618 l 131 618 q 93 571 110 618 q 88 535 88 550 q 94 513 88 513 q 118 508 94 511 q 136 549 122 533 q 147 553 142 553 l 151 553 q 171 528 165 553 q 172 521 172 522 q 168 506 172 514 l 178 504 q 186 504 183 504 q 194 504 188 504 q 233 682 221 633 q 261 765 247 735 q 290 821 272 793 q 324 860 301 836 q 360 886 340 874 q 382 931 361 903 q 492 986 432 986 m 607 874 q 592 843 603 861 q 511 797 565 811 q 426 789 474 789 q 394 789 400 789 q 358 828 374 789 q 353 849 354 840 q 321 818 344 844 q 290 768 300 790 q 264 699 275 739 q 257 674 257 675 l 257 674 q 319 675 281 674 q 628 658 400 675 q 710 654 689 654 l 710 654 q 682 757 701 679 q 656 825 671 799 q 629 861 647 840 q 607 874 611 874 m 268 600 q 292 572 268 579 q 299 571 297 571 q 326 594 318 571 l 328 601 q 304 631 328 622 q 297 631 303 631 q 269 610 279 631 q 268 600 268 607 m 632 592 l 632 590 q 656 561 632 569 q 663 561 660 561 q 690 583 683 561 q 692 590 692 585 l 692 592 q 669 619 692 613 q 664 621 667 621 l 660 621 q 633 599 642 621 l 632 592 m 228 539 q 207 429 219 489 q 196 307 196 354 q 211 243 196 260 q 242 215 229 221 q 264 203 253 208 l 275 240 q 294 254 282 254 q 308 239 304 254 q 308 231 308 233 l 308 228 q 297 185 308 206 l 297 183 q 371 149 336 163 q 383 146 381 146 q 393 175 386 165 q 414 188 401 188 q 432 172 426 188 q 432 167 432 171 l 432 164 q 422 136 432 151 l 422 136 q 501 125 460 125 q 538 126 508 125 q 539 126 538 126 q 533 164 539 132 l 533 167 q 553 179 533 176 l 554 179 q 581 136 569 179 q 646 165 608 140 q 628 213 646 175 q 624 228 624 224 l 624 232 q 636 251 624 244 l 638 251 q 671 203 654 251 q 676 182 674 197 q 739 406 739 228 q 735 513 738 468 q 689 510 718 510 q 228 539 568 510 m 576 479 l 578 479 q 608 438 594 479 q 614 404 614 411 q 596 381 614 390 q 583 379 588 379 q 553 397 563 379 q 538 435 544 425 l 538 433 q 539 415 539 422 q 511 361 539 379 q 499 358 506 358 q 467 396 476 358 q 431 375 438 375 q 425 374 428 374 l 424 374 q 404 383 410 374 q 401 400 401 394 l 401 410 q 371 386 393 406 q 349 378 358 378 q 332 383 332 379 q 331 397 331 390 l 331 401 q 353 460 331 426 q 372 474 365 474 l 374 474 q 381 467 381 474 q 358 426 381 460 q 350 406 351 414 q 354 406 351 406 l 358 406 q 388 444 371 406 q 407 461 396 461 l 408 461 q 429 435 425 461 q 431 428 431 432 l 431 424 q 426 401 431 413 q 447 418 442 407 q 453 450 453 428 l 453 453 q 467 457 458 457 l 469 457 q 486 429 483 457 q 494 390 489 396 q 500 385 494 388 q 515 408 515 390 l 515 411 l 513 447 l 513 453 q 525 469 513 467 q 533 472 528 472 l 535 472 q 575 421 557 472 q 585 410 581 410 l 586 410 q 588 411 588 410 l 588 414 q 569 456 586 421 q 568 469 568 464 q 576 479 568 479 z "},"F":{"ha":1281,"x_min":72,"x_max":1211,"o":"m 1143 972 q 1201 931 1179 972 q 1211 893 1211 910 l 1211 886 q 1179 829 1211 849 q 1153 824 1164 824 q 1092 860 1118 824 q 943 815 1033 839 q 915 574 938 765 q 882 394 900 458 l 900 394 q 1072 307 1039 394 q 1085 240 1085 271 q 1075 197 1085 213 q 1065 247 1065 224 q 1056 290 1063 271 q 999 351 1039 331 q 918 369 963 369 l 906 369 q 878 368 894 369 q 851 289 868 347 q 914 254 882 282 q 974 101 974 193 q 967 44 974 74 l 967 44 q 954 140 961 78 q 906 231 940 197 q 847 261 871 258 q 807 192 832 225 q 779 171 788 174 q 799 72 799 121 q 768 0 797 13 q 768 0 768 0 q 778 75 778 32 q 753 163 778 108 q 674 156 713 156 q 469 179 600 156 q 443 94 443 136 l 443 86 q 467 13 443 29 q 472 4 472 6 l 472 4 q 418 86 418 17 q 446 188 418 132 l 446 188 q 410 219 422 196 q 396 290 396 247 l 396 290 q 338 271 369 290 q 289 147 289 236 q 303 46 289 97 l 301 46 q 283 60 289 50 q 275 107 278 65 q 272 146 274 121 q 357 304 272 275 q 394 313 379 313 l 394 317 q 388 392 394 347 q 369 393 375 393 l 361 393 q 247 353 290 393 q 210 236 210 304 l 210 228 q 214 192 210 208 q 213 192 213 192 q 193 207 203 192 q 190 232 190 219 l 190 232 q 208 326 190 268 q 275 397 228 374 q 385 419 326 419 q 388 421 385 419 q 351 822 371 669 q 214 854 251 838 q 206 857 210 857 q 167 825 194 836 q 138 819 158 822 q 76 861 94 819 q 72 882 72 871 l 72 888 q 93 940 72 914 q 146 965 117 965 q 204 926 183 965 q 211 893 211 910 l 211 889 q 304 865 289 865 q 338 861 328 861 l 343 861 q 351 863 347 861 l 350 864 q 400 913 350 890 q 475 925 413 918 q 582 929 526 929 l 585 929 q 799 919 651 929 q 868 907 840 914 q 914 885 896 897 q 935 850 928 869 q 1029 869 956 850 q 1082 889 1056 879 l 1082 896 l 1082 899 q 1114 965 1082 951 q 1143 972 1129 972 m 1104 904 q 1129 854 1104 871 q 1151 850 1139 850 q 1192 883 1185 850 q 1193 892 1193 888 q 1157 946 1193 926 q 1142 949 1150 949 q 1107 922 1115 949 q 1104 904 1104 914 m 93 886 q 131 844 93 854 q 139 843 136 843 l 140 843 q 188 882 174 843 q 188 893 188 889 l 188 894 q 163 939 188 924 q 150 943 156 943 l 147 943 q 97 906 115 943 q 93 886 93 893 m 1151 921 q 1167 899 1167 917 q 1153 878 1167 882 l 1150 878 q 1136 899 1139 878 l 1136 900 q 1151 921 1136 918 m 144 914 l 146 914 q 160 897 156 914 l 160 892 q 146 872 157 872 q 131 894 131 875 q 144 914 131 911 m 379 864 q 435 850 428 858 q 442 835 442 843 q 435 824 442 824 q 392 818 404 818 q 376 819 383 819 q 421 317 397 643 q 444 318 426 318 q 458 308 458 318 l 458 307 q 454 297 458 300 l 453 297 q 433 297 444 297 q 422 294 428 297 q 422 283 422 288 l 422 276 q 449 217 422 233 q 458 215 454 215 l 464 215 q 496 243 485 243 l 497 243 q 506 238 506 243 l 506 236 q 489 203 506 232 q 489 201 489 203 q 668 181 611 181 q 731 188 701 181 l 731 188 q 713 210 731 190 q 707 224 708 217 q 714 236 707 231 q 757 197 735 236 q 761 194 760 194 q 801 226 779 194 q 818 267 817 256 l 817 267 q 803 265 810 267 q 767 279 767 265 q 776 294 767 288 q 788 297 783 297 l 790 297 q 828 290 794 297 q 883 510 857 371 q 904 654 893 558 q 914 810 914 769 l 914 810 q 893 806 904 806 q 872 822 872 808 l 872 824 q 900 849 872 843 l 906 849 q 847 881 893 868 q 617 904 754 904 l 611 904 q 408 885 471 904 q 379 864 390 876 l 379 864 m 631 804 l 632 804 q 639 790 639 800 l 639 788 q 631 774 639 776 q 622 788 625 774 q 631 804 624 804 m 685 801 q 692 788 692 800 l 692 786 q 685 771 692 774 l 683 771 q 678 788 678 775 q 685 801 679 801 m 508 751 l 536 751 q 858 729 683 751 q 867 700 867 715 l 867 694 q 833 617 867 665 q 789 579 807 586 q 671 551 739 551 q 500 613 569 551 q 450 722 450 660 q 454 750 451 750 q 508 751 471 751 m 526 728 l 526 725 l 526 724 q 536 692 526 715 l 536 692 q 564 724 554 701 q 565 728 565 728 l 565 728 q 540 726 546 726 q 526 728 536 726 m 593 724 q 618 681 601 690 l 622 678 q 640 711 622 678 q 642 721 642 719 l 640 722 l 636 722 q 600 724 632 722 l 593 724 m 671 718 q 682 682 671 710 q 693 668 685 675 q 726 711 726 701 q 728 717 728 711 l 682 719 l 672 719 q 671 718 671 719 m 753 708 q 767 678 756 699 q 785 708 785 693 l 785 710 q 781 708 782 708 q 756 710 763 710 q 753 708 753 710 m 581 521 q 728 510 610 510 l 729 508 q 713 496 725 500 q 657 486 689 486 l 647 486 q 579 508 592 488 l 578 514 q 581 521 578 518 z "},"G":{"ha":693,"x_min":60,"x_max":640,"o":"m 336 943 l 336 943 q 353 922 349 943 q 353 908 353 915 l 353 906 q 376 900 353 903 q 378 899 376 900 q 388 922 383 906 q 403 939 393 939 l 404 939 q 408 928 408 935 q 400 899 408 924 q 400 894 400 897 l 400 893 q 419 882 406 888 l 419 883 q 435 907 431 901 q 446 911 440 911 l 447 911 q 453 904 453 911 q 439 876 453 896 q 439 871 439 872 l 439 869 q 449 860 439 864 q 472 881 451 860 q 483 885 479 885 q 492 881 489 885 q 471 851 492 867 q 463 842 468 849 q 475 825 467 825 l 476 825 q 507 840 483 825 q 513 842 511 842 q 514 835 514 839 q 493 807 514 824 l 486 800 q 500 726 493 778 q 514 596 506 690 q 517 582 515 596 l 517 582 q 599 618 561 582 q 621 671 621 642 q 606 715 621 693 q 578 700 585 700 q 569 713 569 703 q 569 717 569 713 q 583 728 576 724 q 553 753 581 739 q 528 769 539 758 l 528 771 l 528 771 q 536 774 529 774 q 575 760 550 774 l 575 761 q 558 790 575 768 q 553 804 553 797 l 553 804 q 585 781 568 801 q 601 749 601 754 q 615 761 607 749 q 621 764 619 764 q 629 753 629 764 l 629 753 q 619 733 629 746 l 619 732 q 640 671 640 703 q 592 582 640 621 q 518 557 553 557 l 518 551 q 538 374 518 499 q 546 282 546 318 l 546 276 q 490 156 546 185 q 461 144 472 147 q 461 138 461 140 l 461 115 q 456 38 461 85 q 485 28 458 35 q 493 15 493 24 q 479 6 493 7 q 426 21 469 6 l 424 21 l 424 22 q 433 57 433 47 q 439 128 439 99 q 439 135 439 131 l 439 140 l 429 140 q 351 163 390 140 q 313 189 322 189 q 290 174 307 189 q 250 160 268 160 q 224 157 244 157 l 217 157 l 217 156 q 215 93 217 143 q 229 26 215 44 q 178 1 211 11 l 167 0 q 157 8 157 0 q 197 33 157 19 q 193 93 193 71 q 194 157 193 100 q 122 251 122 183 l 122 256 q 143 378 122 290 q 179 532 151 415 l 185 557 l 185 557 q 113 579 154 557 q 67 638 79 600 q 60 676 60 657 q 82 733 60 711 l 75 749 l 75 749 q 83 757 76 757 l 88 757 q 97 753 93 757 q 156 797 144 796 q 158 799 156 799 q 161 790 160 799 l 161 789 q 138 760 161 776 q 131 753 132 754 l 131 753 l 136 751 l 138 751 q 172 760 144 751 q 176 760 175 760 l 179 760 q 188 757 188 760 q 160 736 181 744 q 118 726 147 732 l 118 726 q 124 715 118 725 q 125 711 125 711 l 125 710 q 121 699 125 706 q 96 711 107 699 q 83 679 83 696 l 83 674 q 117 611 83 644 q 182 583 150 583 l 189 583 q 239 792 239 781 q 240 800 240 796 q 218 815 225 810 q 214 825 214 821 l 214 826 q 215 833 214 829 q 246 821 218 833 q 256 839 251 821 q 258 842 258 842 q 236 864 258 846 q 233 874 233 871 l 233 879 q 235 881 233 879 l 238 881 q 265 861 249 881 q 286 882 269 861 q 272 906 272 897 l 272 908 q 272 914 272 911 l 274 914 q 299 896 285 914 l 301 892 q 324 903 308 899 q 336 906 335 904 q 338 911 336 907 l 333 936 l 333 936 q 336 943 333 940 m 213 582 l 213 582 q 232 568 229 582 q 214 550 232 557 l 207 550 l 204 551 q 149 306 149 311 q 144 261 144 279 q 181 190 144 207 q 197 185 192 185 q 197 192 197 189 q 197 203 197 197 q 206 222 197 222 q 219 206 219 222 q 218 179 218 182 l 229 179 q 300 204 271 179 q 315 211 308 211 l 317 211 q 351 188 322 211 q 426 161 389 161 l 438 161 l 438 163 q 432 192 438 164 q 431 199 431 194 q 440 211 433 211 l 442 211 q 458 172 454 211 l 458 165 q 490 176 469 165 q 525 275 525 200 q 503 493 525 322 q 496 556 496 544 l 493 554 q 478 567 481 554 l 478 568 q 494 582 478 579 q 481 707 490 613 q 463 792 472 763 q 443 835 454 817 q 419 861 435 846 q 365 883 400 876 q 350 885 351 885 q 274 822 303 885 q 232 658 253 779 q 213 582 222 617 m 363 740 q 417 704 399 740 q 422 679 422 690 q 389 625 422 644 q 363 618 374 618 q 313 647 332 618 q 303 679 303 663 q 324 725 303 706 q 363 740 342 740 m 311 678 q 344 633 311 647 q 360 629 353 629 l 364 629 q 407 657 392 629 q 413 676 413 667 l 413 679 q 382 724 413 708 q 363 726 371 726 q 314 694 331 726 q 311 678 311 685 m 363 694 q 379 678 379 692 q 367 663 379 667 q 363 663 365 663 q 347 674 351 663 q 347 678 347 676 q 363 694 349 694 m 357 683 l 357 682 q 360 681 357 681 q 365 686 365 682 l 364 688 l 364 688 q 357 683 358 688 m 340 574 l 350 574 q 442 508 419 574 q 453 417 453 465 q 428 335 453 367 q 364 314 407 314 q 263 343 311 314 q 238 374 243 358 q 235 396 235 385 q 267 531 235 439 q 297 564 279 556 q 340 574 315 574 m 319 528 q 331 511 319 511 q 342 550 342 522 q 333 553 338 553 q 319 532 322 553 l 319 528 m 365 375 q 371 338 365 363 q 392 340 371 340 l 396 343 q 386 390 396 388 q 381 393 383 393 l 379 393 q 365 375 365 393 m 321 351 l 321 346 l 321 342 q 343 339 340 339 l 347 339 q 349 353 349 340 q 340 375 349 375 q 339 376 340 376 q 324 367 328 376 q 321 351 321 361 z "},"H":{"ha":944,"x_min":65,"x_max":886,"o":"m 500 975 q 510 954 508 975 l 510 944 q 529 943 521 943 l 539 943 q 544 967 542 950 q 547 971 546 971 l 551 971 q 563 958 560 971 l 563 956 q 558 940 563 950 l 558 940 q 581 931 565 940 l 585 931 l 586 931 q 607 951 600 931 q 615 957 611 957 l 618 957 q 626 950 626 956 l 626 947 q 613 924 626 939 q 671 882 644 906 q 690 858 688 865 q 726 883 700 863 q 742 889 736 889 l 744 889 q 757 885 751 889 q 726 813 757 856 l 735 813 l 772 815 q 792 804 792 815 l 792 803 q 761 774 792 792 q 738 750 738 757 q 767 549 767 615 q 767 531 767 535 l 765 531 q 647 536 731 533 q 697 503 675 521 q 711 489 710 492 q 810 508 778 508 l 814 508 q 875 485 851 508 q 886 450 886 469 q 864 392 886 421 q 810 361 849 374 q 781 354 789 356 l 781 353 q 799 335 781 351 q 803 326 803 329 l 803 324 q 793 317 803 318 q 756 344 783 317 q 749 347 754 344 q 703 214 726 256 q 679 179 693 196 q 708 131 701 163 q 711 113 711 121 l 711 107 q 701 71 711 86 l 701 69 q 738 63 738 65 q 742 58 740 60 l 742 58 q 729 44 733 51 q 719 44 724 44 l 693 44 q 674 43 683 44 q 671 56 671 50 q 688 92 671 65 q 693 114 693 104 l 693 115 q 665 158 693 142 q 633 135 660 158 q 619 126 626 128 l 619 125 q 646 49 646 85 l 646 35 q 683 21 646 29 q 696 8 696 14 q 675 1 689 1 q 625 15 658 1 q 625 24 625 21 l 625 32 q 597 114 625 93 q 557 101 571 101 q 508 90 529 97 q 449 85 485 85 q 364 99 397 85 q 356 100 361 99 q 332 60 342 100 q 332 47 332 54 l 332 43 q 338 19 332 31 q 333 11 336 19 q 240 0 286 0 q 240 1 240 0 q 269 24 240 19 q 311 31 306 26 q 310 44 310 38 q 326 104 310 64 l 326 106 q 261 147 301 115 q 225 111 225 129 l 225 107 q 244 74 225 97 q 247 60 247 65 q 246 53 247 56 q 231 54 239 54 l 228 54 q 164 47 207 54 l 164 49 l 164 49 q 168 69 164 57 q 207 75 193 75 l 213 75 q 207 104 207 90 l 207 106 q 239 167 207 139 q 183 250 201 208 q 164 310 175 268 l 161 322 q 132 301 157 322 q 124 299 125 299 q 117 310 118 299 q 136 329 117 318 q 147 343 144 336 l 146 343 q 76 376 100 343 q 65 418 65 397 q 107 503 65 465 q 175 526 138 526 q 229 517 194 526 q 238 515 233 515 l 239 515 q 250 525 242 515 l 281 550 q 188 557 267 554 q 181 567 182 557 q 176 601 176 579 q 190 697 176 636 q 200 729 200 722 q 186 746 200 733 q 147 803 147 776 q 151 810 147 810 l 151 810 q 206 800 164 810 l 211 799 q 190 844 211 806 q 185 865 185 856 l 185 867 q 188 879 185 875 q 232 861 210 872 l 260 846 q 301 883 283 871 q 350 910 328 900 l 382 921 q 378 936 378 932 l 378 942 q 381 949 378 944 q 401 926 392 949 l 432 935 l 436 935 q 429 960 436 938 l 429 964 q 438 969 429 969 q 449 957 446 969 q 456 939 453 943 q 478 943 467 943 l 486 943 q 486 949 486 943 q 496 972 486 963 q 500 975 499 975 m 510 924 l 510 917 q 503 903 510 904 l 500 903 q 486 917 493 903 q 485 922 485 921 q 481 922 482 922 q 460 921 478 922 q 461 908 461 913 q 453 897 461 897 q 442 911 442 897 q 440 917 442 911 q 407 907 436 917 q 413 889 407 906 l 413 886 q 403 879 411 879 q 388 900 394 879 l 386 900 q 272 824 313 876 q 239 772 253 800 q 210 685 224 742 q 196 579 196 613 q 263 572 218 572 q 313 565 294 572 q 321 556 321 558 q 231 472 282 540 q 183 346 183 403 q 188 311 183 328 q 511 303 254 306 q 711 300 574 303 q 726 378 726 335 q 700 463 726 435 q 681 450 692 450 l 678 450 q 668 460 671 450 q 689 476 668 471 l 689 478 q 653 513 669 500 q 611 547 622 535 q 610 550 610 550 l 610 550 q 649 554 610 553 l 661 554 q 746 549 685 554 q 710 769 729 713 q 665 858 692 826 q 599 904 639 892 q 583 885 594 900 q 579 881 579 881 q 568 890 568 883 l 568 892 q 579 914 568 897 q 554 921 557 921 q 543 897 553 897 q 533 914 533 901 l 533 922 l 532 922 q 511 924 529 922 l 510 924 m 701 842 q 711 828 706 828 q 713 826 711 826 q 729 854 713 832 q 731 861 731 858 q 729 864 731 864 q 701 843 717 853 l 701 842 m 213 846 q 231 810 213 844 q 231 807 231 807 q 247 829 242 813 q 213 846 235 839 m 732 794 l 728 794 l 725 794 q 732 772 728 772 q 751 792 732 775 l 754 796 l 753 796 q 732 794 739 794 m 178 786 q 206 756 185 772 q 208 753 207 756 q 217 778 217 771 l 217 778 q 178 786 199 781 m 342 775 l 346 775 q 369 757 361 775 q 371 749 371 754 q 350 722 371 729 l 344 722 q 318 743 325 722 l 317 749 q 336 774 317 765 q 342 775 340 775 m 589 775 l 592 775 q 617 756 608 775 q 617 750 617 751 l 617 746 q 599 722 617 731 q 590 722 593 722 q 564 743 571 722 q 564 750 564 747 q 583 774 564 767 q 589 775 586 775 m 325 754 l 325 751 q 336 740 328 740 l 339 740 q 351 751 351 743 l 351 754 q 338 765 351 764 q 325 754 325 764 m 572 753 q 583 740 575 740 l 586 740 q 597 751 597 743 l 597 754 q 585 765 594 765 q 572 753 574 765 m 403 640 q 438 628 413 640 q 453 624 444 625 q 499 638 468 624 q 507 640 506 640 q 535 624 526 640 q 536 610 536 617 l 536 610 q 476 558 536 571 q 451 557 463 557 q 376 585 401 557 q 369 606 369 597 l 369 610 q 389 638 369 629 q 403 640 394 640 m 83 421 q 124 367 83 379 q 153 361 140 361 l 161 361 q 181 426 161 375 q 215 489 193 458 q 221 497 215 490 q 179 507 200 507 q 99 467 131 507 q 83 421 83 443 m 724 471 q 749 400 740 444 q 751 371 750 381 q 835 394 792 371 q 867 444 867 418 l 867 449 q 839 486 867 478 q 814 489 826 489 l 806 489 q 724 471 768 489 z "},"I":{"ha":1128,"x_min":56,"x_max":1086,"o":"m 700 976 l 700 976 q 708 963 707 976 q 685 919 708 951 q 678 904 679 913 q 690 883 678 900 q 692 876 692 876 q 733 922 708 885 q 754 942 747 940 q 771 926 771 935 q 715 865 771 908 q 704 853 706 854 q 740 704 721 817 q 776 725 758 725 l 779 725 q 822 663 810 725 q 828 613 822 614 q 843 604 832 604 q 881 664 867 604 q 897 706 889 694 q 924 717 908 717 q 969 632 958 717 q 974 621 971 621 q 983 619 982 619 q 1006 633 1000 619 q 1011 683 1008 633 l 1011 683 q 1025 672 1021 681 q 1029 656 1029 663 q 1056 669 1035 657 q 1072 674 1065 674 l 1075 674 q 1086 672 1079 674 l 1086 671 q 1050 643 1086 657 q 1046 639 1046 640 q 1065 622 1047 635 q 1071 610 1071 615 q 1061 606 1065 606 l 1060 606 q 1039 613 1056 606 q 1033 614 1038 614 l 1033 614 q 993 599 1024 614 q 975 596 982 596 q 944 624 954 596 q 940 672 943 635 q 925 689 936 689 l 924 689 q 892 621 906 689 q 874 592 888 606 q 843 582 858 582 q 801 613 814 582 q 797 676 799 617 q 778 699 793 699 l 775 699 q 749 674 764 699 q 761 606 749 663 q 843 453 781 529 q 907 361 899 386 q 917 318 917 339 q 865 210 917 268 l 856 200 q 890 119 883 139 q 901 71 901 88 q 883 38 901 46 l 882 38 q 806 158 844 38 q 803 169 806 160 q 726 143 781 160 q 733 78 733 117 q 713 3 733 17 q 707 1 708 1 l 704 1 q 675 22 690 1 q 663 104 663 46 q 660 131 661 124 q 558 126 606 126 q 464 128 544 126 q 450 101 456 115 q 418 22 431 40 q 383 0 404 0 q 360 26 360 0 l 360 28 q 393 132 360 58 q 308 160 365 140 q 297 163 307 160 q 268 121 283 156 q 225 44 243 57 q 203 36 215 36 q 181 50 188 36 q 178 64 178 57 q 225 181 178 103 q 229 188 225 182 q 200 215 219 193 q 174 300 174 251 q 222 433 174 368 q 269 506 256 482 q 315 601 299 554 q 338 693 328 635 l 339 699 q 321 700 331 700 l 318 700 q 274 679 285 699 q 271 668 271 672 q 286 632 271 660 q 288 618 288 622 q 282 604 288 607 q 264 601 278 601 q 218 604 226 604 q 192 594 200 604 q 206 550 192 585 q 208 529 207 542 q 201 518 208 518 q 171 524 176 524 l 165 524 q 142 518 154 524 q 161 489 142 515 q 165 475 165 481 l 165 475 q 158 461 165 467 l 158 461 q 136 492 142 483 l 126 499 l 126 499 q 119 482 119 492 q 122 468 121 476 l 121 468 q 101 485 107 468 q 100 497 100 489 q 100 500 100 499 q 69 485 76 494 q 67 481 67 482 l 65 481 q 56 496 56 489 q 108 524 56 508 q 167 542 146 542 l 169 542 q 185 540 175 542 l 185 542 q 174 576 185 554 q 171 592 171 583 q 215 626 171 626 q 256 625 228 626 l 267 625 q 254 665 254 646 q 289 717 254 700 q 318 722 303 722 q 338 721 328 722 q 353 804 344 743 q 363 838 353 806 l 363 842 q 332 892 363 857 q 322 913 322 904 q 335 926 325 926 q 364 885 346 926 q 374 871 369 875 q 397 899 390 892 q 403 903 403 903 q 386 938 400 913 q 383 954 383 947 q 390 969 383 964 l 396 969 q 414 940 411 969 q 419 922 417 926 q 542 958 468 958 q 657 921 615 958 q 679 954 663 926 q 700 976 693 976 m 433 897 q 442 874 442 879 l 442 872 q 433 863 440 863 q 418 881 424 863 q 394 851 407 876 l 394 851 q 404 835 404 846 l 404 832 q 397 824 404 824 q 382 828 385 828 l 381 828 q 368 742 374 803 q 356 653 363 675 q 332 575 344 606 q 289 485 313 522 q 221 367 238 406 q 200 289 200 322 q 240 214 200 243 q 260 219 250 219 l 263 219 q 300 193 289 219 q 304 185 300 185 q 406 158 374 158 q 422 181 406 174 q 431 181 426 181 l 432 181 q 463 165 450 181 q 465 151 465 158 l 467 151 q 556 150 515 151 q 657 160 613 150 q 657 169 657 168 q 681 203 657 194 l 689 204 q 715 182 708 204 q 718 169 717 176 q 792 192 739 174 q 808 225 796 214 q 832 236 819 236 q 847 232 840 235 q 890 321 890 279 q 860 385 890 351 q 822 431 860 386 q 731 619 749 526 q 701 779 711 731 q 685 832 692 815 l 682 833 l 681 833 q 668 825 672 825 q 654 839 654 825 l 654 839 q 663 850 654 850 q 671 858 671 854 q 656 878 663 878 q 638 863 647 863 l 635 863 q 625 878 625 865 q 639 899 625 890 l 639 900 q 532 935 597 935 q 433 897 467 935 m 543 824 l 549 824 q 613 785 593 824 q 619 756 619 771 q 565 686 619 704 q 535 681 549 681 q 468 717 489 681 q 461 746 461 732 l 461 747 q 511 818 461 800 q 543 824 528 824 m 483 774 q 492 760 483 767 q 489 754 489 757 q 500 746 489 747 l 503 746 q 513 753 513 747 l 513 754 q 510 760 513 757 l 510 760 q 519 774 519 765 q 503 788 519 785 l 500 788 q 483 774 483 785 m 543 644 q 610 594 592 644 q 614 569 614 582 q 586 507 614 531 q 519 483 556 483 l 518 483 q 447 542 465 483 q 446 556 446 551 l 446 564 q 475 622 446 594 q 543 644 501 644 m 478 593 l 478 590 q 486 579 478 585 q 485 574 485 576 l 485 572 q 494 564 486 564 l 494 564 q 507 574 507 564 q 504 578 504 578 q 514 590 514 583 l 514 592 q 496 606 511 606 l 494 606 q 478 593 478 604 m 701 379 q 711 371 711 378 q 701 361 711 363 q 692 371 692 363 l 692 371 q 701 379 692 378 m 369 364 l 372 364 q 379 356 378 364 l 379 354 q 371 347 379 349 l 369 347 q 360 356 360 349 q 369 364 360 363 m 261 361 l 263 361 q 271 351 271 361 q 263 344 271 346 l 260 344 q 253 353 254 344 l 253 353 q 261 361 254 361 m 840 353 q 850 344 850 350 q 840 335 850 336 l 840 335 q 831 344 831 336 q 840 353 831 351 m 749 321 q 757 313 757 319 q 749 303 757 306 q 739 311 739 306 l 739 314 q 749 321 739 319 m 319 310 l 321 310 q 331 300 331 307 q 321 292 329 292 l 319 292 q 311 300 311 293 q 319 310 313 310 m 633 307 l 635 307 q 653 292 647 307 q 656 276 656 286 l 656 274 q 636 231 656 247 q 622 226 629 226 l 621 226 q 594 236 608 226 q 582 213 593 226 q 538 196 561 196 l 531 196 q 486 218 503 196 q 481 233 481 228 q 458 225 467 225 q 432 254 439 225 q 431 264 431 258 l 431 267 q 450 307 431 293 l 454 307 q 456 303 456 306 q 449 272 456 300 q 447 263 447 267 q 454 247 447 253 q 486 274 469 247 l 486 275 q 499 258 493 271 q 517 221 508 225 q 532 215 522 215 q 554 221 542 215 q 565 253 565 228 q 571 275 565 275 q 575 275 571 275 q 600 260 585 275 q 618 251 610 251 q 633 263 633 254 l 633 264 q 622 294 633 271 q 622 299 622 297 l 622 300 q 633 307 622 307 m 808 293 q 817 285 817 292 q 808 275 817 276 q 799 285 799 276 q 808 293 799 292 m 247 286 q 256 276 254 286 l 256 276 q 244 268 256 269 q 236 278 238 268 q 247 286 236 285 m 692 275 q 699 265 697 275 q 689 257 699 258 q 681 265 682 257 l 681 267 q 692 275 681 274 m 367 268 l 368 268 q 376 260 376 267 q 368 250 376 253 q 358 260 358 253 q 367 268 360 268 z "},"J":{"ha":950,"x_min":65,"x_max":890,"o":"m 539 975 q 615 935 586 975 q 631 888 631 910 q 632 888 632 888 q 672 908 650 908 l 674 908 q 721 878 700 908 q 731 840 731 860 q 711 794 731 815 q 743 778 725 794 q 763 724 763 753 q 729 671 763 685 q 718 669 718 669 q 735 589 732 608 q 739 549 739 560 q 764 546 756 546 l 769 546 l 828 549 l 828 549 q 803 599 828 551 l 803 600 l 803 600 q 838 576 822 594 q 854 533 854 554 l 854 528 q 814 521 853 522 l 776 521 q 746 519 756 521 l 746 510 q 751 463 746 504 q 751 453 751 457 q 751 451 751 453 l 754 451 q 846 439 778 451 q 854 438 849 439 q 858 450 858 443 l 858 453 q 843 493 858 463 l 844 493 q 888 439 875 476 q 890 426 890 432 l 890 425 q 886 415 890 415 q 754 428 858 415 q 757 319 757 347 q 728 167 757 218 q 747 143 731 154 q 772 111 772 124 q 744 76 772 97 q 731 49 731 61 l 731 47 q 740 44 732 44 l 764 44 q 785 36 785 44 l 785 33 q 772 22 785 25 q 750 17 763 17 l 708 21 l 704 21 q 700 36 700 28 l 700 40 q 728 86 700 56 q 742 110 739 100 q 715 132 732 113 q 706 140 708 140 q 688 128 703 140 q 657 115 679 122 q 590 101 642 108 q 468 94 506 94 q 296 136 394 94 q 271 150 283 143 q 240 115 240 121 l 240 111 q 272 68 240 101 q 286 36 286 49 l 286 36 q 219 0 236 0 q 207 14 210 0 l 207 14 q 233 36 207 25 q 250 50 242 42 l 250 50 q 206 100 239 67 q 200 106 201 103 q 238 156 206 121 q 250 172 250 171 q 218 242 231 201 q 201 414 201 294 l 201 422 l 201 422 q 122 397 181 421 q 78 379 79 379 l 76 379 q 65 419 65 392 l 65 422 q 69 456 65 440 l 69 456 q 92 411 88 431 q 201 449 171 438 q 201 458 201 456 l 201 461 q 206 517 201 469 l 206 526 q 76 519 108 526 q 71 536 71 528 l 71 540 q 96 589 71 565 q 117 597 107 597 l 117 596 q 99 550 99 575 q 115 550 107 550 l 183 551 q 204 550 194 551 q 219 640 210 571 l 225 664 l 224 664 q 192 679 214 671 q 168 701 175 686 q 161 728 161 717 q 189 775 161 760 q 206 779 201 779 l 206 779 q 186 836 186 807 q 218 903 186 878 q 249 913 233 913 q 290 896 268 913 q 315 949 290 926 q 383 974 344 974 l 383 974 q 458 932 435 974 q 460 926 460 926 q 510 969 476 957 q 539 975 528 975 m 481 890 l 481 881 q 507 874 481 878 q 535 869 521 871 q 538 893 538 885 l 538 897 q 538 910 538 904 q 549 913 542 913 q 561 901 557 913 q 563 893 563 897 l 563 886 q 558 863 563 876 q 603 846 586 853 q 606 868 606 857 l 606 874 q 582 940 606 910 q 543 954 568 954 q 486 915 504 954 q 481 890 481 901 m 315 893 l 315 889 q 318 872 315 872 l 321 872 q 375 879 336 872 l 375 879 q 368 921 375 883 l 368 922 q 382 926 375 926 q 399 888 396 926 l 399 885 l 400 885 l 450 882 q 450 882 450 882 l 450 886 q 403 946 450 929 q 381 950 394 949 q 319 915 338 950 q 315 893 315 903 m 208 849 q 232 792 208 819 q 242 785 236 788 q 253 822 244 803 q 231 850 231 840 l 231 853 q 246 863 231 861 q 260 850 249 863 q 267 846 264 846 l 268 846 q 286 861 278 861 l 290 861 q 265 883 286 874 q 242 889 251 889 q 210 864 217 889 q 208 849 208 856 m 629 832 l 631 832 q 640 826 635 832 q 642 825 640 825 l 643 825 q 646 835 643 825 q 663 846 654 846 l 664 846 q 678 835 678 844 l 678 832 q 660 813 678 822 l 660 813 q 674 799 667 799 l 675 799 q 697 821 686 799 q 704 846 704 835 l 704 853 q 689 882 704 871 q 679 883 685 883 q 640 860 660 883 q 629 832 629 842 m 225 456 q 238 264 225 308 q 254 214 244 232 l 268 193 q 708 186 503 190 q 714 186 711 186 q 733 361 733 253 q 721 567 733 442 q 694 693 708 642 q 664 765 678 743 q 578 835 643 810 q 506 856 550 846 q 435 863 460 863 q 322 846 383 863 q 285 825 297 839 q 268 790 275 811 q 232 544 254 744 q 225 456 225 475 m 463 781 q 588 713 544 781 q 619 582 619 661 q 615 543 619 543 q 526 542 543 542 l 519 542 q 350 549 350 546 q 333 557 333 551 q 329 588 329 565 q 358 726 329 688 q 463 781 393 781 m 686 768 l 686 768 q 699 746 686 764 q 700 740 700 740 q 721 726 721 740 q 707 717 721 717 q 711 697 707 711 l 711 696 q 733 707 722 696 q 739 725 739 715 l 739 725 q 714 767 739 750 q 697 771 704 771 q 686 768 690 771 m 185 725 l 185 722 q 213 688 185 696 q 224 688 219 688 l 228 688 q 232 707 232 701 l 232 707 q 224 707 231 707 q 203 719 208 707 q 201 725 201 724 q 218 731 206 731 q 231 731 225 731 l 235 731 l 238 731 l 236 732 q 239 753 236 735 l 239 754 q 232 758 239 758 q 221 758 232 758 q 186 733 196 758 q 185 725 185 728 m 350 606 l 350 596 q 351 563 350 585 q 461 553 393 553 l 474 553 q 599 554 483 553 l 599 556 q 600 585 600 572 l 600 593 q 561 715 600 665 q 471 756 525 756 l 467 756 q 363 682 392 756 q 350 606 350 647 m 471 681 q 496 656 493 681 q 478 628 496 636 l 472 626 q 447 649 454 626 q 446 657 446 653 q 471 681 449 681 m 567 478 q 597 442 581 478 q 604 399 604 421 q 571 317 604 349 q 499 292 540 292 l 494 292 q 394 329 440 292 q 364 393 364 358 l 364 397 q 394 435 364 435 l 397 435 q 456 428 407 435 q 471 426 469 426 q 535 454 507 426 q 567 478 557 478 z "},"K":{"ha":1011,"x_min":65,"x_max":947,"o":"m 415 967 l 418 967 q 456 942 442 967 q 463 914 463 929 l 463 911 q 614 899 586 906 q 628 897 617 899 l 628 900 q 658 943 628 929 q 672 946 668 946 q 703 921 694 946 q 704 910 704 914 l 704 910 q 735 925 718 925 l 738 925 q 764 900 758 925 q 764 890 764 896 l 764 886 q 782 893 774 893 q 815 863 803 893 q 817 846 817 853 l 817 844 q 794 799 817 828 q 783 763 783 779 l 783 747 q 796 597 783 717 l 799 563 q 856 576 824 576 q 938 542 911 576 q 947 513 947 526 q 944 496 946 504 l 944 496 q 917 539 936 524 q 865 556 893 556 q 797 533 833 556 l 797 531 q 803 488 797 526 l 803 482 q 803 478 803 479 q 808 479 804 478 q 901 444 860 479 q 924 406 924 424 l 924 406 q 914 392 924 396 l 913 392 q 874 440 903 422 q 817 457 846 457 l 807 457 q 807 444 807 456 q 811 315 807 436 l 811 306 q 819 285 819 299 q 814 226 814 233 q 783 153 814 176 q 794 97 794 111 l 794 90 q 782 51 794 72 l 781 51 q 783 71 783 61 l 783 75 q 768 143 783 107 l 767 143 q 725 132 747 132 l 725 132 l 725 132 q 739 58 739 86 q 724 19 739 29 l 724 19 q 725 36 725 29 l 725 40 q 707 132 725 71 l 646 132 q 651 69 651 94 q 636 3 651 21 l 635 3 q 638 54 638 29 l 638 54 q 626 132 638 103 l 565 132 q 569 51 569 69 q 560 10 569 13 q 558 8 560 8 q 557 10 558 10 q 560 29 558 14 q 547 122 560 51 l 546 132 l 482 132 l 482 132 q 469 14 469 46 q 469 0 469 10 l 469 0 q 454 47 454 18 q 464 126 454 58 q 464 132 464 128 l 389 132 q 375 3 375 46 l 374 1 q 364 46 364 14 q 372 132 364 72 l 310 132 q 304 101 307 132 q 304 75 304 86 q 307 21 304 56 l 307 21 q 294 36 300 24 q 289 69 289 51 l 289 79 q 293 132 289 100 l 293 132 q 250 144 271 132 q 239 58 244 117 q 236 53 238 53 l 236 53 q 229 82 229 65 l 229 90 q 238 153 229 111 q 214 182 218 171 q 204 238 204 199 q 196 288 196 281 l 196 292 q 201 306 196 299 l 200 400 q 201 439 200 419 l 193 439 q 94 474 138 439 q 65 529 65 499 q 79 571 65 549 l 79 571 l 79 561 q 118 492 79 525 q 188 464 154 464 l 192 464 q 206 467 206 465 l 206 476 q 204 514 206 496 q 207 547 206 536 q 178 560 200 549 q 144 589 163 567 q 125 635 125 614 l 125 640 q 139 676 125 660 l 140 676 q 151 631 146 649 q 192 581 167 594 q 207 576 197 579 q 249 810 226 751 q 258 838 249 810 q 243 890 243 881 q 242 897 243 896 q 251 926 242 913 q 271 933 261 933 l 272 933 q 307 917 290 933 q 333 953 307 940 q 344 954 340 954 l 349 954 q 379 936 367 954 l 379 936 q 415 967 390 967 m 393 911 q 394 913 394 911 q 428 911 417 911 l 429 911 q 443 914 435 911 l 443 922 q 429 946 443 940 l 422 946 q 401 936 408 946 q 393 913 397 929 l 393 911 m 326 911 l 326 908 q 328 899 326 903 q 371 907 331 899 l 371 910 q 351 929 371 925 l 347 929 q 326 911 326 928 m 647 899 l 647 897 q 672 889 650 896 q 688 888 678 888 q 690 903 690 896 q 671 924 688 924 q 654 915 661 924 q 647 899 647 907 m 260 892 q 271 867 260 875 l 271 867 q 299 886 292 881 q 304 888 301 888 q 276 910 296 910 q 260 896 260 908 l 260 892 m 714 881 q 740 868 733 868 q 749 896 749 886 q 738 908 747 908 l 736 908 q 714 881 724 908 m 231 574 q 247 568 247 571 q 253 556 250 568 q 239 547 253 547 l 228 547 q 225 474 226 506 l 226 474 q 239 478 233 478 q 253 463 250 478 q 225 450 253 453 q 224 450 225 450 l 224 433 l 221 346 q 224 311 221 326 q 790 311 633 311 l 790 335 q 783 449 790 375 l 760 446 l 756 446 q 749 454 749 446 l 749 457 q 772 468 749 468 q 781 471 772 469 l 781 474 q 778 518 781 483 l 778 518 q 754 515 758 515 q 744 522 744 517 q 775 544 744 536 l 776 546 q 776 558 776 553 q 764 701 776 597 q 760 790 761 719 q 754 831 757 818 q 724 857 747 844 q 674 872 700 867 q 558 890 631 882 q 483 896 510 896 q 358 885 386 889 q 314 872 331 879 q 289 854 293 863 q 256 754 274 836 q 231 574 231 629 m 760 851 q 772 831 760 849 q 776 817 776 824 l 776 814 l 776 814 q 790 824 782 814 q 796 842 796 831 q 779 868 793 868 q 760 851 769 868 m 514 842 q 522 829 522 842 q 524 818 524 825 l 524 814 l 528 814 q 561 807 549 814 q 567 831 563 811 q 578 838 572 838 l 582 838 q 585 832 585 836 l 585 829 q 578 801 585 824 q 608 781 585 796 q 624 807 614 785 q 632 811 628 811 q 639 803 639 810 l 639 801 q 625 768 639 793 q 650 692 650 728 l 650 689 q 618 617 650 656 q 536 581 583 581 l 529 581 q 442 601 488 581 q 396 653 410 618 q 390 690 390 671 q 432 785 390 746 q 457 799 443 793 q 453 817 453 814 q 460 828 453 824 l 460 828 q 475 808 469 828 q 476 807 476 808 q 503 810 493 808 l 503 814 q 514 842 503 842 m 410 690 l 410 683 q 465 614 410 635 q 528 601 496 601 l 528 601 q 622 658 599 601 q 629 696 629 678 l 629 697 q 607 760 629 733 q 519 789 569 789 l 517 789 q 449 774 478 789 q 422 740 429 758 q 410 690 410 714 m 525 717 q 564 688 553 717 q 567 675 567 681 l 567 674 q 536 635 567 646 q 525 633 529 633 q 489 657 501 633 q 485 675 485 665 q 513 714 485 701 q 525 717 519 717 m 499 685 q 506 674 499 675 l 506 674 q 531 688 518 674 l 532 692 q 517 703 532 699 l 515 703 q 499 685 501 703 m 383 550 q 408 522 393 550 q 435 500 419 508 q 522 476 476 476 l 532 476 q 621 506 585 476 q 638 528 635 519 q 650 549 640 549 l 651 549 q 667 519 667 549 q 658 471 667 496 l 658 471 q 650 483 650 475 q 649 504 650 483 q 596 467 617 475 q 589 464 594 465 q 593 447 593 456 l 593 444 q 569 406 593 419 q 554 400 561 400 l 551 400 q 517 415 535 400 q 490 404 506 404 l 489 404 q 451 435 465 404 q 449 456 449 447 q 450 468 449 464 q 392 508 424 479 q 383 518 392 510 q 378 496 381 518 q 374 492 375 492 q 364 513 364 494 l 364 515 q 378 550 364 538 q 383 550 381 550 m 471 460 l 471 451 q 481 426 471 426 q 493 425 483 425 l 497 425 q 511 454 511 425 q 475 460 510 454 l 474 460 l 471 460 m 532 446 q 546 418 532 422 q 556 418 549 418 q 572 439 572 418 q 567 456 572 456 l 560 456 q 532 451 554 456 q 532 446 532 449 z "},"L":{"ha":1096,"x_min":51,"x_max":1064,"o":"m 568 981 l 572 981 q 614 957 597 981 q 621 933 621 946 q 606 901 621 917 q 588 894 599 894 l 586 894 q 549 914 565 894 q 544 924 546 919 l 544 925 q 572 940 544 938 q 575 932 575 938 l 575 931 q 568 919 575 928 l 567 917 q 575 915 572 915 l 581 915 q 594 924 592 915 l 594 926 q 569 961 594 961 l 568 961 q 504 929 540 961 q 489 897 489 915 l 489 893 q 497 861 489 886 q 499 857 499 858 q 551 860 525 860 l 554 860 q 768 781 683 860 q 815 718 804 740 q 826 694 815 718 q 849 690 839 690 q 893 721 871 690 q 918 740 908 738 l 918 740 q 913 768 913 754 q 925 793 915 793 q 996 799 965 799 q 1061 783 1047 799 q 1064 776 1064 778 q 1018 715 1064 760 q 961 674 972 674 l 958 674 q 938 704 947 674 q 925 717 931 717 q 897 686 918 717 q 858 663 879 663 q 840 667 851 663 l 840 665 q 856 551 856 607 q 850 474 856 521 q 858 471 854 471 l 864 471 q 900 486 871 471 q 915 489 908 489 q 922 485 922 489 l 922 481 q 908 464 922 471 q 921 456 908 464 q 924 446 924 450 l 924 443 q 908 438 918 438 q 867 447 903 438 q 856 449 861 449 l 853 449 q 844 449 850 449 q 829 375 838 406 q 725 217 797 265 q 674 192 703 203 q 654 186 672 192 q 672 38 672 65 l 672 38 q 740 50 690 38 q 764 53 751 53 l 769 53 q 776 29 776 43 l 776 29 q 750 24 776 28 q 651 0 688 6 q 644 71 650 4 q 629 179 635 153 q 624 179 625 179 l 613 179 q 532 178 604 179 q 461 186 493 178 q 457 146 457 167 q 464 35 457 136 l 464 28 q 461 0 463 0 q 378 3 454 3 q 351 10 354 6 l 351 13 q 386 33 351 33 q 425 32 417 32 l 425 32 q 436 32 428 32 q 436 58 436 47 l 433 160 l 433 192 q 338 231 378 208 q 268 281 301 250 q 217 357 229 321 q 196 463 196 410 l 193 463 q 164 453 181 463 q 161 451 161 453 q 151 408 161 433 q 150 408 150 408 q 138 435 138 414 l 138 438 l 136 438 q 114 431 128 438 q 104 429 111 429 q 99 446 99 438 q 104 451 99 451 q 164 479 121 460 q 197 490 176 486 q 217 599 197 532 q 254 685 232 646 q 264 703 254 685 l 264 703 q 226 696 247 696 q 157 729 178 696 q 154 742 154 739 l 153 742 q 118 714 146 736 q 100 706 107 706 l 96 706 q 67 735 82 706 q 51 822 51 772 q 57 868 51 850 q 144 835 92 865 q 196 778 196 799 l 196 776 q 172 756 196 761 q 185 731 172 746 q 210 722 196 722 l 215 722 q 285 735 229 722 q 308 757 286 735 q 383 814 354 799 q 439 839 406 826 q 482 851 463 847 q 471 890 471 871 q 515 963 471 931 q 568 981 543 981 m 75 835 q 78 806 78 825 l 76 803 q 107 826 96 810 q 81 835 104 826 q 76 835 79 835 l 75 835 m 519 831 q 547 803 519 821 q 557 783 557 793 q 547 782 556 782 q 517 807 532 782 q 490 826 504 826 q 386 783 446 821 q 317 728 356 764 q 310 721 317 726 q 326 694 310 718 l 328 689 q 319 679 328 683 q 303 696 315 679 q 296 699 300 697 q 258 632 272 667 q 233 549 246 604 q 226 501 226 510 q 246 488 240 496 l 247 481 q 238 472 244 472 q 224 465 224 468 q 246 363 224 415 q 271 319 254 343 q 431 222 318 258 l 431 228 q 444 246 432 246 l 446 246 q 460 226 458 246 l 460 226 q 460 217 460 224 q 547 207 499 207 q 619 210 575 207 q 618 228 618 221 q 626 244 618 240 l 628 244 q 644 222 640 244 q 646 215 644 221 q 740 265 703 231 q 807 396 785 310 q 818 447 814 418 l 813 447 l 807 447 q 786 464 792 447 l 786 465 q 797 474 786 474 l 800 474 q 815 474 808 474 l 819 474 q 825 497 822 474 q 828 533 828 514 l 828 547 q 811 656 828 600 l 808 656 q 788 639 801 656 q 782 636 783 636 l 781 636 q 769 658 771 650 l 769 660 q 801 685 788 676 q 731 781 785 739 q 561 833 657 833 q 519 831 542 833 m 85 775 l 85 772 q 86 765 85 771 q 131 803 96 774 l 136 810 l 136 810 q 128 811 131 811 l 128 811 q 89 788 106 811 q 85 775 85 781 m 149 796 q 119 774 139 783 q 97 750 97 760 q 107 738 97 744 l 107 738 q 154 776 149 776 l 165 782 q 149 796 165 789 m 968 772 q 983 732 971 760 l 985 728 q 997 735 988 728 l 999 735 q 986 772 999 746 l 968 772 m 1007 771 l 1007 768 q 1013 757 1013 758 l 1013 756 q 1028 769 1024 756 l 1025 769 q 1013 772 1022 769 q 1007 771 1008 771 m 936 767 q 958 707 942 751 l 960 707 q 971 714 963 707 q 972 714 971 714 q 963 742 972 721 q 949 769 954 754 l 944 769 q 936 767 936 769 m 417 694 q 428 689 428 693 q 429 657 428 679 q 446 649 429 657 q 460 674 451 674 l 461 674 q 471 656 471 671 q 467 636 471 649 q 496 574 496 607 q 469 515 496 540 q 411 494 444 494 q 332 529 364 494 q 317 578 317 551 q 351 638 317 611 l 368 653 q 365 671 365 663 q 372 689 367 689 l 374 689 q 383 676 383 688 q 385 663 385 664 q 394 660 388 661 q 401 661 399 661 l 410 661 q 408 679 408 671 l 408 683 q 417 694 408 694 m 644 674 l 644 674 q 658 661 658 674 l 658 657 q 658 646 658 651 q 671 636 661 639 l 675 636 q 704 664 683 636 q 711 669 707 667 l 711 669 q 717 657 717 665 q 700 624 717 647 l 700 622 q 721 593 717 607 q 731 550 731 569 q 708 506 724 521 q 653 483 685 483 q 569 526 603 483 q 557 569 557 550 q 588 633 557 611 q 579 660 579 651 q 582 665 579 665 q 601 650 596 665 q 606 642 606 643 q 631 646 622 646 q 636 644 636 644 q 643 674 639 651 l 644 674 m 340 585 l 340 581 q 363 538 340 558 q 410 517 383 517 q 468 568 451 517 q 469 583 469 576 q 411 635 469 625 l 404 635 q 353 613 375 635 q 340 585 340 600 m 581 571 l 581 569 q 614 514 581 528 q 639 510 626 510 l 642 510 q 700 539 679 510 q 708 563 708 550 l 708 567 q 692 603 708 588 q 640 617 674 617 l 633 617 q 593 610 593 615 q 581 571 581 594 m 429 592 q 449 576 442 592 q 450 567 450 571 q 442 554 450 558 q 436 553 442 554 q 411 565 424 553 q 408 576 408 569 q 428 592 408 586 l 429 592 m 679 578 q 697 560 697 575 q 690 546 694 546 l 676 543 q 667 550 669 543 q 661 563 661 556 q 678 578 661 575 l 679 578 m 524 471 q 592 433 560 471 q 610 388 610 410 q 565 329 610 350 q 540 324 550 324 l 533 324 q 461 360 494 324 q 442 407 442 383 l 442 408 q 469 458 442 438 q 524 471 492 471 m 339 464 q 353 446 350 464 q 344 438 353 438 l 343 438 q 329 449 333 438 l 328 453 l 328 456 q 339 464 328 464 m 706 450 l 707 450 q 718 440 718 450 q 711 425 717 432 q 694 442 694 433 q 706 450 697 450 m 303 406 l 303 406 q 311 394 311 406 q 308 385 311 385 q 304 382 307 385 q 290 396 290 388 q 303 406 293 406 m 372 401 l 372 401 q 389 389 385 401 q 390 386 389 386 q 385 375 390 381 l 381 375 q 364 399 364 375 l 364 399 q 372 401 367 401 m 663 388 l 667 388 q 681 372 679 388 l 681 372 q 674 361 681 365 l 669 361 q 658 376 660 361 l 658 381 q 663 388 658 388 m 742 388 l 744 388 q 760 372 760 386 l 760 368 q 757 360 760 360 l 742 360 q 736 376 736 367 q 742 388 736 383 m 515 376 q 521 351 518 351 l 524 351 q 539 354 531 351 q 539 360 539 357 q 526 379 539 376 l 524 379 q 515 376 519 379 z "},"M":{"ha":1418,"x_min":76,"x_max":1354,"o":"m 1149 981 q 1232 926 1193 981 q 1253 854 1253 892 q 1222 774 1253 810 q 1157 754 1194 754 l 1156 754 q 1118 761 1136 754 q 1056 699 1079 735 q 1076 518 1076 594 l 1076 485 q 1169 501 1142 493 q 1204 521 1190 510 l 1204 522 q 1236 632 1204 574 q 1250 643 1244 643 l 1251 643 q 1268 625 1257 643 q 1271 615 1271 618 q 1254 583 1271 607 q 1240 540 1240 563 l 1240 536 q 1257 506 1240 506 q 1315 540 1271 506 q 1339 553 1329 551 q 1354 542 1354 550 q 1285 471 1354 525 q 1260 464 1269 464 l 1254 464 q 1208 481 1232 464 q 1106 449 1175 472 q 1076 442 1090 444 l 1076 411 q 1022 215 1076 271 q 1014 207 1014 210 q 1035 64 1035 106 l 1035 60 q 1022 28 1035 28 l 1021 28 q 1003 101 1003 28 q 989 186 1003 158 q 938 172 954 172 q 932 172 932 172 q 932 171 932 171 q 946 36 946 61 l 946 29 q 932 0 946 0 q 915 90 915 0 q 904 165 915 140 l 904 165 l 785 163 q 789 128 788 151 q 779 94 789 107 l 774 94 q 758 133 758 94 q 754 160 758 160 q 743 163 753 161 q 714 161 726 161 q 710 115 711 128 q 706 106 710 111 q 686 124 693 106 l 685 131 l 685 135 q 686 156 685 142 q 686 157 686 156 q 650 163 675 163 l 649 158 l 649 133 q 642 113 649 119 l 638 113 q 619 144 619 117 q 617 160 619 160 q 556 172 599 167 q 483 183 501 178 l 468 188 q 457 142 457 175 l 457 132 l 461 39 q 446 1 461 1 q 428 44 431 1 q 426 57 428 50 q 436 193 426 101 q 382 214 421 201 q 378 217 382 214 q 367 86 367 192 q 357 25 364 31 q 350 21 353 21 l 349 21 q 338 39 339 21 q 336 74 336 58 l 336 83 q 350 232 336 138 q 264 454 264 297 l 264 485 q 265 496 264 489 l 264 496 q 211 463 246 492 q 176 433 192 443 q 175 403 175 422 l 175 360 q 158 285 175 314 q 153 283 156 283 q 140 307 143 286 l 140 314 q 147 390 140 321 l 147 392 l 146 394 q 110 333 131 383 q 92 321 101 321 l 90 321 q 76 331 82 321 q 138 438 76 358 q 200 494 175 478 q 267 538 225 513 l 265 556 q 279 675 265 572 l 279 686 q 263 718 279 703 q 233 735 256 726 q 182 721 201 721 l 176 721 q 113 769 133 721 q 104 822 104 796 q 153 926 104 886 q 193 939 174 939 q 258 875 238 939 q 268 822 268 842 q 326 764 282 804 q 419 806 351 790 q 524 814 474 814 l 526 814 q 1008 761 829 814 q 1064 828 1053 806 q 1072 840 1064 828 q 1071 858 1071 849 l 1071 868 q 1101 958 1071 913 q 1149 981 1121 981 m 1097 863 l 1097 850 q 1099 832 1097 843 q 1043 765 1081 814 q 999 733 1014 733 q 888 761 978 733 q 746 781 847 771 q 607 786 676 786 q 383 765 478 786 q 326 742 336 742 l 324 742 q 304 754 314 742 q 247 806 261 789 q 244 811 244 810 l 244 813 q 246 831 244 824 q 194 903 246 886 l 189 904 q 138 853 154 904 q 133 819 133 838 l 133 817 q 172 749 133 764 q 183 747 178 747 q 218 761 194 747 q 229 764 224 764 l 231 764 q 304 708 260 764 q 310 700 310 703 q 296 579 296 617 q 293 535 296 579 q 310 524 310 532 l 310 521 q 296 500 310 515 q 292 443 292 469 q 360 272 294 303 l 360 274 q 369 308 361 308 l 371 308 q 393 276 393 290 q 385 254 385 260 l 385 247 q 425 233 388 247 q 439 232 433 232 l 447 232 q 464 285 453 278 q 481 261 481 279 l 481 256 q 474 222 481 244 l 475 222 q 621 199 585 199 q 628 225 625 206 q 636 232 632 232 l 639 232 q 656 208 649 232 l 656 201 l 654 197 l 657 197 l 660 197 q 683 196 682 196 l 683 196 q 688 197 686 196 q 688 210 688 206 q 700 244 688 236 q 706 244 703 244 q 713 239 713 244 q 714 226 714 238 l 713 199 q 725 196 717 196 q 747 203 738 196 q 740 222 740 211 l 740 229 q 753 238 747 238 q 772 211 765 238 q 774 201 774 206 l 774 197 l 774 197 q 896 200 815 197 l 896 201 q 886 243 896 204 q 885 247 886 244 q 899 263 886 263 l 900 263 q 924 204 915 263 l 925 204 q 978 214 940 204 q 964 258 975 229 l 963 265 l 963 268 q 979 290 963 285 l 979 290 q 1001 236 990 290 l 1001 236 q 1040 293 1025 249 q 1053 367 1050 321 q 1060 442 1056 383 q 1060 443 1060 442 q 1044 460 1047 443 q 1058 481 1044 474 l 1060 481 q 1058 486 1060 481 q 1036 672 1058 563 q 1032 701 1032 700 q 1044 722 1032 711 q 1118 799 1056 735 q 1147 782 1129 782 q 1200 804 1171 782 q 1221 858 1221 825 q 1185 936 1221 904 q 1154 947 1169 947 q 1108 917 1125 947 q 1097 863 1097 893 m 1154 897 q 1171 881 1171 894 l 1171 878 q 1153 861 1168 861 q 1139 876 1143 861 l 1139 881 q 1154 897 1143 897 m 199 833 q 215 817 211 833 l 215 815 q 200 797 213 797 l 197 797 q 183 815 186 797 q 199 833 186 833 m 682 699 q 708 646 690 694 q 721 592 721 603 l 722 592 q 754 647 740 613 q 774 683 771 683 l 774 683 l 775 682 q 747 596 768 632 q 728 561 742 581 q 700 604 708 581 q 679 660 688 647 q 646 581 671 642 q 639 571 640 571 q 593 669 607 604 l 590 693 l 592 693 q 635 601 597 693 l 635 601 q 676 693 664 669 q 682 699 681 699 m 510 519 q 746 504 561 519 q 847 501 785 501 q 869 492 863 499 q 878 465 878 482 q 824 349 878 418 q 781 319 801 328 q 711 307 746 307 q 547 367 621 307 q 492 483 492 419 l 492 489 q 497 519 492 519 l 510 519 m 518 488 q 518 485 518 486 q 525 451 518 471 q 563 440 544 440 l 569 440 l 576 440 l 576 444 q 576 447 576 447 l 576 450 q 576 471 576 457 l 576 483 q 518 488 550 488 m 601 481 l 601 449 q 601 438 601 446 q 656 436 643 436 l 661 436 q 672 436 665 436 l 672 446 q 672 463 672 454 q 669 479 672 469 l 663 479 q 613 482 656 479 q 601 481 610 482 m 696 469 l 696 465 q 700 435 696 460 l 700 435 q 739 435 726 435 q 754 433 746 435 q 758 464 758 442 q 758 467 758 464 q 721 474 733 474 l 713 474 q 696 469 699 474 m 789 469 q 782 440 782 458 l 782 436 l 835 433 q 836 432 835 432 l 846 463 q 846 467 846 463 l 846 468 q 831 469 839 469 q 800 468 803 468 q 789 469 797 468 m 554 406 q 571 389 567 389 l 575 388 l 575 406 q 560 408 572 406 l 557 408 q 554 406 554 408 m 600 389 l 600 383 q 607 365 600 365 q 668 350 636 357 q 671 363 671 356 q 669 403 671 374 l 669 403 q 624 407 629 407 q 600 389 600 407 m 697 400 l 697 400 q 699 383 699 390 l 699 369 q 701 347 699 358 l 722 347 q 747 354 747 350 q 753 399 753 375 l 753 401 l 747 401 q 739 403 742 401 q 697 400 707 400 m 781 403 l 781 396 q 778 374 781 392 q 778 365 778 369 q 813 400 806 381 q 807 400 808 400 q 783 403 786 403 l 781 403 z "},"N":{"ha":1019,"x_min":53,"x_max":960,"o":"m 389 974 l 390 974 q 424 931 413 974 q 510 938 465 938 q 622 918 581 938 q 640 943 632 926 q 657 957 649 957 q 674 947 665 957 l 674 946 q 653 913 674 936 q 647 900 649 906 q 667 875 658 892 q 674 867 671 868 q 710 892 678 867 q 726 900 722 900 q 744 889 739 894 q 699 847 740 874 q 690 839 699 846 q 740 610 715 767 q 751 549 747 567 q 817 558 783 558 l 819 558 q 935 521 890 558 q 960 465 960 497 q 929 401 960 428 q 900 392 914 392 l 894 392 q 839 422 865 392 q 822 463 822 443 l 822 467 q 842 503 822 488 q 856 479 856 496 q 854 474 854 475 l 874 474 q 892 465 888 474 l 892 461 q 882 449 889 449 l 881 449 l 865 451 q 860 449 863 451 q 886 418 860 424 q 892 417 888 417 l 893 417 q 929 438 917 417 q 932 458 932 446 l 932 461 q 861 526 932 511 q 825 531 850 529 q 758 519 793 531 q 786 371 758 488 q 796 289 796 318 l 796 283 q 782 188 796 247 q 781 172 781 178 l 783 114 q 782 78 783 104 q 797 35 782 44 q 826 25 810 25 q 872 53 858 25 q 875 65 875 61 l 875 69 q 868 82 875 82 l 867 82 q 850 72 863 82 q 843 71 847 71 q 826 86 835 71 q 825 92 825 90 q 849 117 825 107 q 863 118 853 118 q 900 89 892 118 q 901 79 901 85 l 901 72 q 886 19 901 39 q 836 0 864 0 l 828 0 q 769 24 794 0 q 753 86 753 43 q 754 136 754 118 l 754 143 q 749 185 754 161 q 714 182 731 182 l 713 182 q 610 235 651 182 q 585 244 600 244 l 581 244 q 564 185 581 226 q 533 182 546 182 l 525 182 q 490 206 497 182 l 489 206 q 447 190 475 190 q 414 203 426 190 q 410 244 411 203 l 408 244 q 364 218 386 244 q 342 203 358 207 q 310 199 329 199 l 289 199 l 289 193 q 290 119 289 176 q 260 29 290 44 q 238 25 249 25 q 183 51 210 25 q 169 86 169 67 q 197 121 169 114 q 207 122 204 122 q 232 107 225 122 q 233 101 233 103 q 225 85 233 92 l 222 85 q 213 94 218 85 q 207 96 210 96 q 194 82 194 90 q 219 54 194 65 q 229 53 225 53 l 232 53 q 265 86 257 53 q 267 107 267 97 l 267 117 q 263 194 267 126 l 263 201 q 211 249 228 217 q 200 304 200 276 l 200 315 q 239 499 200 367 l 247 536 q 196 547 225 547 l 186 547 q 100 521 136 547 q 81 482 81 503 l 81 479 q 97 450 81 457 q 111 447 104 447 l 113 447 q 138 456 125 447 q 128 474 138 457 l 126 479 q 133 492 126 489 q 136 492 135 492 l 138 492 q 154 479 143 492 q 161 475 158 475 l 161 475 q 172 488 167 475 q 179 490 175 490 l 181 490 q 183 482 183 490 l 183 479 q 135 421 183 433 q 121 421 126 421 q 58 458 79 421 q 53 488 53 474 q 107 561 53 542 q 185 575 142 575 l 197 575 q 253 568 225 575 q 315 801 288 675 q 326 863 326 842 l 326 864 q 311 890 326 875 q 304 907 304 899 l 304 908 q 313 921 306 921 l 313 921 q 344 890 329 921 l 344 890 q 375 914 363 908 q 397 924 376 915 q 386 956 397 931 q 385 964 386 958 q 389 974 385 969 m 432 900 q 436 879 436 888 q 425 868 436 868 l 422 868 q 406 890 406 869 l 406 893 q 375 883 392 893 q 365 868 367 874 q 375 850 365 868 q 376 844 376 849 q 367 835 376 838 l 365 835 q 353 839 363 835 q 349 839 351 839 q 343 811 347 839 q 301 638 332 758 q 285 550 292 594 q 317 525 317 536 l 317 522 q 307 510 314 510 q 285 524 299 510 q 278 526 279 526 q 244 401 278 510 q 229 311 229 347 q 271 233 229 253 q 272 233 272 233 q 289 278 278 246 q 301 282 296 282 q 315 268 315 279 l 315 267 q 303 240 315 260 q 300 229 300 232 q 311 228 300 228 q 358 258 332 228 q 447 285 386 285 l 453 285 q 596 276 475 285 q 619 269 615 274 q 649 233 631 260 q 729 208 669 208 l 739 208 l 739 210 q 719 232 739 217 q 711 249 711 242 q 719 263 711 256 q 747 243 735 263 q 761 233 756 233 q 772 281 772 253 l 772 285 q 744 442 772 329 q 732 507 732 496 q 707 494 718 494 q 693 510 693 494 q 713 533 693 524 q 724 536 715 535 q 668 825 694 724 q 658 817 665 825 l 654 817 q 639 833 639 819 l 639 835 q 651 849 639 846 l 653 849 q 629 881 651 858 l 629 881 q 621 864 628 864 l 621 864 q 619 864 619 864 l 618 864 l 617 864 q 600 878 604 864 l 600 882 q 606 896 600 890 l 606 896 q 514 913 567 913 l 511 913 q 432 900 465 913 m 508 682 l 513 682 q 618 632 574 682 q 646 550 646 594 q 588 440 646 485 q 514 418 550 418 l 507 418 q 410 461 454 418 q 375 546 375 501 l 375 554 q 408 638 375 597 q 508 682 451 682 m 383 550 q 438 449 383 490 q 511 426 472 426 q 611 475 571 426 q 638 547 638 510 l 638 551 q 586 649 638 608 q 510 674 551 674 q 406 621 449 674 q 383 550 383 588 m 518 597 q 569 568 550 597 q 575 542 575 556 l 575 540 q 540 490 575 507 q 518 486 529 486 q 467 519 485 486 q 461 539 461 529 l 461 543 q 493 590 461 574 q 518 597 506 597 m 494 567 l 494 565 q 504 558 494 560 l 506 558 q 515 568 514 558 q 504 576 515 574 q 494 567 494 575 m 531 528 l 531 525 q 544 513 533 513 q 560 525 557 513 l 560 526 q 557 535 560 529 q 561 540 560 535 l 561 542 q 553 547 561 547 q 546 540 546 546 q 531 528 533 540 m 440 250 q 435 226 435 242 l 435 224 q 438 218 435 218 q 456 217 446 217 q 475 232 472 217 q 478 247 478 246 q 440 250 453 247 m 500 246 l 500 244 q 513 214 500 235 q 535 211 524 211 l 543 211 q 550 215 550 211 q 556 236 556 228 l 556 243 q 529 249 543 249 q 500 246 518 247 z "},"O":{"ha":1111,"x_min":99,"x_max":1013,"o":"m 761 989 q 774 954 774 979 q 751 914 774 925 q 744 913 747 913 l 742 913 l 736 914 l 736 910 q 747 883 736 899 q 750 874 750 879 l 750 872 q 714 856 740 867 l 714 856 q 743 818 721 838 q 836 800 800 808 q 832 818 832 810 l 832 821 q 871 868 832 851 q 878 875 878 869 l 878 878 l 875 897 q 881 906 875 906 q 908 914 888 908 q 917 924 917 918 l 917 924 l 913 936 l 911 938 q 914 943 913 939 q 935 921 932 943 l 935 919 q 915 889 935 901 q 901 886 908 886 l 897 886 q 899 878 899 879 l 899 872 q 892 847 899 847 q 863 838 888 846 q 856 832 856 835 l 856 829 q 861 803 856 825 q 860 794 860 796 q 900 781 868 794 q 982 676 953 753 q 1013 428 1013 590 q 1010 249 1013 411 l 1010 244 q 993 236 1010 236 l 922 235 q 925 172 925 201 l 925 160 q 894 25 925 53 q 876 17 886 17 l 875 17 q 863 26 863 19 l 863 29 q 883 76 863 36 q 894 142 894 97 q 894 158 894 146 q 888 231 893 231 l 886 231 q 800 235 828 233 l 800 233 q 813 144 813 192 l 813 143 q 782 8 813 63 q 768 0 774 0 l 768 0 q 758 21 760 0 l 758 22 q 774 76 758 44 q 781 128 781 100 l 781 129 q 767 232 781 171 q 446 240 585 240 l 346 243 q 338 179 338 215 q 356 75 338 125 q 364 42 364 53 q 349 25 363 25 l 347 25 q 306 113 324 25 q 303 156 304 124 q 307 243 303 165 q 207 246 222 244 q 193 174 193 218 l 193 169 q 222 29 193 103 l 222 24 q 208 4 219 4 l 207 4 q 163 94 176 4 q 158 154 158 119 q 165 243 158 199 q 101 250 101 246 q 99 297 99 276 q 119 513 99 365 q 143 613 129 569 q 179 688 160 661 q 213 725 186 701 l 213 726 q 226 767 213 739 q 229 779 229 775 q 193 782 224 782 q 172 789 185 782 q 168 796 168 793 l 168 804 q 182 842 168 821 l 178 840 l 172 840 q 140 865 151 840 q 139 875 139 872 l 139 878 q 175 919 139 903 l 176 919 q 160 881 176 914 q 158 872 158 875 q 160 869 160 869 l 163 869 q 201 849 193 869 q 203 842 203 843 l 203 839 q 188 811 203 825 l 188 810 q 210 804 196 804 l 232 804 q 253 796 249 803 q 254 783 254 789 q 244 754 254 767 l 244 754 q 294 785 260 763 q 346 803 324 803 l 346 804 q 321 821 335 804 q 315 839 315 832 l 315 840 q 340 872 315 864 l 340 872 q 324 910 324 883 l 324 913 q 343 956 324 943 l 343 956 l 343 947 q 371 867 343 897 q 358 856 369 861 q 332 842 332 847 q 356 826 343 832 q 371 807 371 815 q 393 801 372 806 q 479 774 443 789 q 521 747 497 767 l 532 735 q 560 764 539 747 q 606 793 586 785 q 700 817 658 817 l 713 817 q 693 854 693 836 q 718 883 693 874 l 719 883 q 713 910 713 897 q 738 940 713 933 q 749 944 749 942 q 758 986 753 978 l 761 989 m 535 694 l 535 694 q 415 760 453 754 q 361 768 389 768 q 324 761 336 768 q 286 740 319 761 q 169 589 204 685 q 151 519 160 563 q 133 399 142 482 q 124 274 129 361 l 147 274 q 342 274 215 274 q 356 274 351 274 q 749 265 425 269 q 793 263 749 264 q 875 261 807 263 q 976 267 926 261 q 985 453 985 365 q 960 632 985 540 q 936 688 950 665 q 907 725 929 701 q 839 763 875 753 q 699 781 750 781 q 613 756 667 781 q 553 713 588 743 l 535 694 m 535 664 q 622 615 586 664 q 643 551 643 583 q 590 461 643 493 q 542 449 564 449 l 538 449 q 464 482 497 449 q 433 560 433 515 q 500 657 433 624 q 535 664 518 664 m 457 558 l 457 556 q 524 482 457 500 q 538 481 532 481 l 546 481 q 613 528 590 481 q 618 558 618 543 q 588 619 618 593 q 543 633 564 633 l 536 633 q 471 601 500 633 q 457 558 457 581 m 540 576 l 540 576 q 558 563 553 576 l 558 558 q 540 542 558 544 q 522 558 522 544 q 522 558 522 558 q 540 576 525 576 m 463 453 l 465 453 q 504 435 476 453 q 536 428 521 428 q 606 447 560 428 q 624 451 619 451 l 628 451 q 646 433 642 451 q 647 424 647 426 q 629 383 647 406 q 544 353 599 353 q 446 386 486 353 q 426 426 426 407 q 456 453 426 447 q 463 453 460 453 m 524 410 q 524 404 524 406 l 525 375 q 543 372 533 372 q 554 375 554 372 q 554 383 554 381 q 554 410 554 396 l 553 410 l 535 411 q 524 410 524 411 z "},"P":{"ha":857,"x_min":65,"x_max":788,"o":"m 400 968 q 407 953 406 968 l 407 939 q 410 921 407 925 q 431 922 422 922 q 461 918 447 922 q 472 944 467 921 q 488 961 476 961 l 490 961 q 496 954 496 961 l 496 954 q 485 921 496 949 q 483 917 483 917 q 539 903 501 914 q 557 938 542 903 q 571 949 564 949 l 575 949 q 585 940 585 949 q 563 904 585 932 q 558 897 558 900 q 599 874 568 890 q 614 864 607 868 q 656 899 642 899 q 669 889 669 896 l 669 888 q 631 851 669 874 q 668 803 656 825 q 715 588 715 717 q 715 581 715 585 q 743 615 733 597 l 774 664 q 785 638 781 656 q 788 617 788 629 l 788 608 q 760 528 788 565 q 719 508 742 508 q 707 510 711 510 q 671 397 692 443 q 632 336 657 365 q 665 253 653 290 q 681 146 681 196 q 685 146 683 146 q 701 146 694 146 l 701 146 q 728 119 721 146 l 728 117 q 692 94 728 100 q 682 93 685 93 q 653 106 657 93 q 650 117 650 111 q 657 149 650 124 q 657 157 657 153 q 614 322 657 218 q 589 304 606 318 q 583 300 583 300 q 600 157 600 231 l 600 153 q 594 57 600 114 l 596 57 q 650 32 650 50 l 650 29 q 608 0 650 7 l 599 0 q 564 21 571 0 q 564 26 564 24 q 574 75 564 32 q 575 111 575 90 q 553 285 575 197 l 553 285 q 521 276 543 283 q 543 210 543 232 l 543 203 q 511 144 543 171 q 442 124 479 124 l 438 124 q 346 163 383 124 q 326 217 326 188 q 339 272 326 240 l 339 272 l 322 276 q 321 278 322 278 q 301 171 301 235 q 314 74 301 119 q 317 49 317 58 q 281 13 317 26 q 268 10 274 10 l 265 10 q 236 33 243 10 q 236 39 236 35 l 236 44 q 254 72 236 63 q 268 75 261 75 q 279 72 269 75 l 279 74 q 274 151 274 115 q 293 286 274 222 q 242 308 257 306 q 221 129 221 276 q 211 79 221 79 q 178 75 194 75 q 138 96 144 75 q 138 103 138 100 l 138 108 q 169 129 138 125 l 192 131 q 190 136 192 132 q 210 300 190 208 q 214 326 214 318 q 189 360 213 332 q 167 401 176 376 q 140 507 149 443 q 138 543 139 522 q 126 542 135 542 l 124 542 q 68 592 82 542 q 65 615 65 603 l 65 624 q 85 694 65 658 l 86 694 q 101 663 92 690 q 126 625 110 635 q 143 619 139 619 q 165 718 151 676 q 201 800 183 772 q 276 876 232 851 q 261 903 276 882 q 260 908 260 907 l 260 911 q 264 917 260 915 q 289 893 275 917 q 293 889 293 889 q 335 907 310 899 q 321 931 335 908 q 318 942 318 939 q 325 950 319 950 l 325 950 q 349 917 335 950 q 351 911 349 917 q 390 919 353 913 q 388 942 389 925 q 400 968 388 968 m 158 563 q 225 347 158 424 q 281 314 246 329 q 363 290 329 290 l 367 290 l 368 290 q 346 222 346 250 l 346 221 q 364 172 346 188 q 446 144 400 144 l 449 144 q 524 194 503 144 q 525 211 525 201 l 525 217 q 504 267 525 238 q 496 282 496 281 q 540 299 518 289 q 574 315 558 307 q 622 351 594 325 q 654 397 644 376 q 699 604 699 489 q 651 801 699 722 q 615 844 643 818 q 613 847 615 844 q 272 854 379 853 q 181 711 215 821 q 158 563 158 639 m 442 818 l 446 818 q 499 792 474 818 q 513 754 513 775 q 463 686 513 704 q 442 683 450 683 l 436 683 q 376 713 400 683 q 365 749 365 728 q 408 811 365 790 q 442 818 426 818 m 429 757 l 429 754 q 443 743 429 746 q 458 756 458 744 q 443 768 458 767 l 443 768 q 429 757 429 767 m 447 667 l 451 667 q 507 639 481 667 q 519 603 519 622 q 479 539 519 558 q 444 532 463 532 q 381 565 403 532 q 372 599 372 581 q 411 658 372 636 q 447 667 431 667 m 86 665 q 81 624 81 640 q 114 563 81 574 q 126 561 121 561 q 133 563 133 563 l 133 563 q 136 599 133 568 q 136 600 136 599 q 97 632 108 610 q 88 665 88 658 l 86 665 m 768 626 q 731 576 764 615 q 711 532 715 554 q 721 531 717 531 q 768 582 757 531 q 771 606 771 592 q 768 626 771 615 m 431 599 l 431 597 q 444 585 433 585 q 460 599 460 586 q 444 611 460 608 q 431 599 433 611 m 333 544 q 393 504 363 544 q 424 481 411 485 q 443 478 436 478 q 500 507 467 478 q 540 522 521 522 q 583 496 565 522 q 589 475 589 486 q 536 411 589 436 q 469 401 506 401 l 467 401 q 335 438 392 401 q 310 465 315 453 q 297 508 297 492 l 297 513 q 322 543 297 538 q 333 544 326 544 m 358 476 q 372 472 365 472 l 374 472 q 388 478 379 472 q 369 500 385 488 q 358 476 358 493 m 433 282 l 438 282 q 481 246 471 282 q 482 236 482 240 l 482 232 q 456 189 482 204 q 432 183 442 183 q 383 217 396 183 q 381 231 381 224 l 381 235 q 408 276 381 261 q 433 282 421 282 m 394 235 l 394 233 q 418 203 394 214 q 432 201 424 203 q 463 226 454 201 q 464 233 464 231 l 464 236 q 439 265 464 258 q 429 267 435 267 q 396 242 404 267 q 394 235 394 238 z "},"Q":{"ha":1022,"x_min":88,"x_max":931,"o":"m 671 971 q 710 919 694 958 q 714 893 713 910 q 764 861 733 885 q 778 844 769 856 q 793 892 793 863 q 779 943 793 918 l 779 943 q 801 925 793 938 q 808 893 808 908 l 808 888 q 789 829 808 856 q 836 731 818 796 q 850 603 850 669 l 850 593 q 850 575 850 588 q 893 597 874 597 q 918 568 913 597 q 908 542 918 556 l 908 542 q 931 515 931 532 l 931 511 q 906 476 931 492 q 883 469 894 469 l 878 469 q 904 360 904 419 q 871 258 904 294 l 871 257 q 879 144 871 240 q 879 128 879 142 l 879 114 q 851 32 879 58 q 824 13 836 13 l 821 13 q 796 39 807 13 q 788 86 788 60 l 788 94 q 793 168 788 106 q 794 182 794 172 q 793 201 794 188 l 790 201 q 760 192 786 201 q 750 190 753 190 l 749 190 q 733 86 742 161 q 718 33 726 51 q 682 3 701 3 l 681 3 q 650 32 661 3 q 646 65 646 43 q 658 171 646 92 l 658 186 q 556 196 583 190 q 553 197 556 197 q 544 138 544 174 q 544 108 544 122 q 525 21 544 40 q 503 8 515 8 q 478 21 490 8 q 464 88 464 44 l 464 92 l 465 182 l 465 193 l 465 200 l 464 200 q 432 192 458 200 q 419 190 426 190 l 417 190 q 417 190 417 190 q 407 71 417 140 q 392 28 400 42 q 358 0 376 0 l 356 0 q 325 36 340 0 q 321 68 321 51 l 321 78 q 331 174 321 96 q 331 186 331 179 l 331 188 q 282 204 319 194 l 269 210 q 267 182 267 203 q 268 108 268 126 q 243 18 268 33 q 229 14 236 14 q 194 40 207 14 q 192 58 192 50 l 192 63 q 193 92 192 71 q 192 183 192 146 l 192 190 q 193 256 192 226 q 139 333 157 278 q 129 390 129 364 q 140 457 129 422 q 125 454 132 454 q 92 475 106 454 q 88 492 88 485 l 88 494 q 106 518 88 510 q 99 539 99 529 q 121 571 99 560 q 135 574 126 574 l 135 574 q 158 563 146 574 l 158 563 q 154 621 154 593 l 154 629 q 190 810 154 736 q 172 860 172 831 q 201 914 172 896 q 226 919 214 919 q 233 919 231 919 l 233 918 q 200 890 214 911 q 189 860 189 875 l 189 858 q 200 828 189 840 q 242 861 222 850 q 271 878 256 869 l 271 878 q 269 893 269 890 q 307 953 269 932 q 338 958 321 958 l 338 958 l 338 957 q 304 939 324 956 q 290 899 290 921 l 290 889 q 539 921 425 921 q 692 901 624 921 l 692 901 q 694 911 694 907 l 694 913 q 671 967 694 929 q 669 971 669 969 q 671 971 671 971 m 174 633 l 174 619 q 185 549 174 581 q 150 403 150 424 q 150 382 150 392 l 150 372 q 240 244 150 303 q 363 210 296 210 q 493 239 431 210 q 675 207 586 207 l 681 207 q 860 274 793 207 q 885 354 885 306 l 885 357 q 854 469 885 414 q 819 526 819 514 l 819 528 q 825 547 819 529 q 833 625 833 585 q 790 801 833 722 q 757 839 785 811 q 690 881 731 865 q 529 900 618 900 q 288 867 410 900 q 229 832 244 846 q 207 800 213 814 q 185 729 196 778 q 174 633 174 676 m 326 725 q 399 679 378 725 q 403 653 403 665 l 403 650 q 365 581 403 608 q 315 565 342 565 l 310 565 q 244 601 267 565 q 235 640 235 622 l 235 646 q 279 714 235 689 q 326 725 301 725 m 676 724 q 746 671 729 724 q 749 646 749 658 q 704 575 749 594 q 679 571 692 571 l 676 571 q 618 592 646 571 q 599 642 599 611 q 633 711 599 683 q 676 724 650 724 m 299 646 q 314 631 299 635 l 319 631 q 335 642 329 631 q 335 646 335 643 l 335 649 q 322 664 335 660 q 318 665 319 665 l 317 665 q 299 646 301 665 m 651 647 l 651 646 q 668 631 654 631 l 671 631 q 688 647 685 631 q 669 665 685 665 l 668 665 q 651 647 654 665 m 506 614 q 582 576 553 614 q 596 528 596 556 q 551 451 596 479 q 508 442 531 442 q 429 481 464 442 q 411 529 411 504 l 411 533 q 469 608 411 589 q 506 614 489 614 m 431 533 l 431 529 q 474 472 431 492 q 508 465 492 465 l 514 465 q 571 497 553 465 q 578 526 578 513 q 526 588 578 571 q 499 592 515 592 l 497 592 q 435 553 453 592 q 431 533 431 546 m 846 525 l 846 525 l 892 553 q 901 568 901 563 l 901 569 q 893 578 901 576 q 854 543 878 578 q 846 525 846 528 m 117 539 l 117 535 q 129 526 117 529 l 131 526 q 153 529 149 529 l 156 529 q 156 529 156 529 q 139 551 156 549 q 135 553 138 551 q 117 539 117 550 m 504 540 l 506 540 q 522 526 518 540 q 524 522 524 522 q 504 506 524 508 q 486 524 486 508 q 500 540 486 535 q 504 540 501 540 m 856 507 q 863 496 856 503 q 863 492 863 493 l 864 492 q 911 511 903 492 q 913 514 911 513 q 896 521 906 521 q 858 507 886 521 q 856 507 856 507 m 106 492 l 106 490 q 119 476 106 478 l 124 476 q 147 492 139 476 q 150 501 150 496 l 150 507 l 138 507 q 107 496 114 507 q 106 492 106 493 m 257 493 l 260 493 q 290 461 278 493 q 390 393 314 419 q 521 372 457 372 l 533 372 q 686 413 629 372 q 739 465 689 414 q 769 483 758 483 l 771 483 q 800 464 788 479 q 806 444 806 454 q 747 367 806 408 q 515 307 651 307 l 514 307 q 315 346 404 307 q 256 386 286 358 q 224 449 224 418 q 244 490 224 471 q 257 493 251 493 m 696 488 l 697 488 q 700 482 700 485 l 700 482 q 696 476 700 478 q 693 481 693 476 l 693 482 q 696 488 693 488 m 319 483 l 322 483 q 325 478 325 482 q 322 472 325 475 l 319 472 q 317 478 317 475 q 319 483 318 482 m 344 456 q 349 450 349 453 q 344 444 347 444 q 340 450 342 444 q 344 456 342 456 m 676 444 l 679 444 q 682 440 682 443 l 682 438 q 679 433 682 435 l 676 433 q 674 438 674 435 l 674 439 q 676 444 674 442 m 390 431 q 394 425 394 429 q 390 419 394 421 l 389 419 q 385 425 386 419 q 390 431 385 429 m 653 422 l 653 422 q 657 418 657 422 l 657 417 q 653 413 657 413 q 649 418 650 413 l 649 418 q 653 422 649 421 m 440 408 q 444 404 444 407 l 444 403 q 440 397 443 397 q 436 403 436 399 q 440 408 436 408 m 593 404 l 594 404 q 599 400 599 404 l 599 399 q 594 394 599 394 q 590 399 590 394 l 590 400 q 593 404 590 403 m 471 403 q 475 396 475 400 q 471 392 475 392 q 467 397 467 392 q 471 403 468 403 m 539 397 q 543 392 543 394 q 538 386 542 386 q 533 392 535 386 q 539 397 535 397 m 215 156 l 215 156 l 215 142 q 214 132 215 135 q 217 93 214 110 q 225 93 219 93 q 238 96 238 94 l 238 104 l 240 147 l 240 158 l 240 158 q 235 158 238 158 l 215 156 m 833 156 l 817 156 q 813 132 813 146 l 813 119 q 822 119 819 119 q 840 119 836 119 q 851 121 843 119 q 851 147 851 126 q 850 158 851 154 q 833 156 842 156 m 699 149 l 678 149 q 674 122 674 138 l 674 113 q 685 113 678 113 q 701 113 689 113 l 714 114 l 713 115 q 714 140 714 132 q 711 150 714 144 q 699 149 706 149 m 486 139 q 486 104 486 108 q 488 86 486 97 l 507 86 q 521 86 517 86 l 521 93 l 522 128 l 522 142 q 486 139 499 139 m 349 93 l 349 85 l 349 85 q 382 89 374 89 l 383 89 l 383 90 q 388 132 383 108 q 376 136 382 136 l 372 136 q 353 131 353 133 q 349 93 349 121 z "},"R":{"ha":938,"x_min":68,"x_max":894,"o":"m 464 975 q 532 954 518 975 q 546 907 546 936 l 546 899 q 554 897 546 897 l 558 897 q 575 907 571 897 q 578 915 578 910 l 578 919 q 564 949 578 932 l 564 949 l 564 949 q 589 935 578 949 q 596 915 596 926 q 574 879 596 893 q 553 874 565 874 l 547 874 q 547 856 547 863 l 547 833 q 563 828 547 832 q 651 756 629 803 q 669 664 669 715 q 626 493 669 576 q 642 482 629 490 q 742 575 675 508 q 838 622 793 622 q 892 589 878 621 q 894 579 894 582 l 894 575 q 868 526 894 550 q 853 521 856 521 l 851 521 q 874 569 874 549 q 835 594 874 594 q 749 546 797 594 q 667 465 692 492 l 667 465 q 711 400 696 449 q 718 343 718 374 q 683 207 718 272 l 683 207 q 735 171 703 201 q 775 86 775 126 q 721 8 775 38 q 690 0 704 0 l 683 0 q 661 18 668 0 q 658 36 658 28 q 676 74 660 68 l 679 74 q 689 64 689 74 q 681 36 689 61 l 679 33 q 694 26 679 26 l 696 26 q 740 56 719 26 q 751 85 751 71 l 751 86 q 725 147 751 115 q 667 179 693 179 l 665 179 q 625 140 642 151 q 457 94 557 94 q 253 189 353 94 q 204 169 232 189 q 169 101 169 140 l 169 100 q 201 32 169 57 q 232 24 215 24 q 242 28 242 24 q 244 53 243 33 q 257 64 249 64 q 271 50 271 61 l 271 47 q 264 18 271 35 q 233 0 253 0 l 232 0 q 171 36 201 0 q 147 100 147 67 q 188 186 147 146 q 233 208 211 206 q 235 210 235 208 q 190 335 190 257 q 219 464 190 393 l 219 464 q 108 526 138 499 q 68 610 68 564 l 68 617 q 96 674 68 658 q 108 676 104 676 l 110 676 q 144 646 131 676 q 147 629 147 636 q 147 619 147 626 l 144 619 q 113 654 129 654 q 90 619 97 654 q 90 613 90 618 l 90 611 q 200 501 90 551 q 232 490 214 494 l 232 490 q 250 526 242 513 l 250 528 q 219 564 226 550 q 206 614 210 581 q 204 631 204 621 l 204 636 q 251 769 204 700 q 318 829 290 821 q 318 850 318 839 l 318 864 l 319 868 q 281 889 300 868 q 269 919 269 904 q 300 949 269 943 l 300 947 q 289 928 289 943 q 308 899 289 907 q 315 899 313 899 l 317 899 q 331 938 321 924 q 351 957 340 950 q 443 975 376 975 l 464 975 m 225 644 l 225 635 q 258 551 225 588 q 275 528 275 532 q 231 433 257 504 q 214 333 214 379 q 239 247 214 283 q 275 200 256 218 q 357 144 313 165 q 464 121 413 121 l 475 121 q 617 165 550 121 q 681 250 665 200 q 699 347 699 304 l 699 360 q 658 447 699 408 q 603 490 624 475 q 631 549 615 518 q 653 665 653 607 q 578 807 653 769 q 533 818 549 818 q 446 825 494 825 q 315 806 369 825 q 238 707 267 781 q 225 644 225 671 m 369 806 q 374 793 374 801 l 374 792 q 372 769 372 772 l 372 765 q 376 753 372 758 q 403 750 383 753 l 403 750 q 403 781 403 776 q 408 797 403 790 q 419 781 415 797 q 421 749 419 749 q 447 744 435 746 q 456 776 456 750 q 460 790 458 790 q 471 785 464 790 q 474 769 474 779 l 474 768 q 472 742 474 761 l 493 736 q 510 778 500 744 q 517 788 513 783 q 526 776 526 785 l 526 774 q 518 735 526 767 l 518 732 q 533 725 518 728 q 557 761 542 731 q 561 768 558 767 q 571 757 571 765 l 571 753 q 560 717 571 746 q 560 717 560 717 q 603 643 603 694 q 567 571 603 600 q 529 556 556 561 q 464 553 506 553 q 308 589 374 553 q 264 660 264 615 l 264 664 q 297 733 264 703 q 313 744 308 743 q 311 760 311 753 l 311 764 q 325 786 313 786 l 326 786 q 329 758 328 786 q 335 750 332 750 q 351 753 342 751 q 357 751 354 751 q 354 771 356 757 q 369 806 354 793 m 279 664 q 331 597 279 622 q 414 578 358 586 q 488 572 460 572 q 564 599 544 572 q 582 642 582 617 l 582 644 q 544 697 582 679 q 528 703 536 700 q 518 672 525 685 q 444 642 500 642 q 357 690 379 642 q 350 724 350 707 l 350 728 q 342 731 350 731 q 292 700 317 731 q 279 664 279 682 m 363 708 q 382 688 363 694 l 385 688 q 396 697 394 688 l 396 700 q 376 722 396 715 l 375 722 q 363 714 365 722 q 363 708 363 711 m 464 465 l 465 465 q 528 408 508 465 q 533 369 533 388 l 533 367 q 503 282 533 315 q 453 260 481 260 q 408 279 426 260 q 385 311 389 299 q 379 343 379 324 l 379 346 q 411 438 379 394 q 464 465 432 465 m 449 418 l 449 415 q 456 403 449 403 l 460 403 q 471 413 471 404 q 471 415 471 413 l 471 418 q 464 442 471 428 l 454 442 q 449 418 449 432 m 438 325 l 442 289 q 463 289 451 289 l 467 289 q 474 324 474 308 q 458 343 474 343 l 450 343 q 438 326 439 343 l 438 325 z "},"S":{"ha":850,"x_min":82,"x_max":826,"o":"m 282 974 q 325 953 307 974 q 342 926 332 944 q 364 910 349 915 q 388 906 378 906 q 447 947 413 906 q 476 964 464 964 q 504 935 499 964 q 504 928 504 933 q 488 882 504 904 q 475 872 479 874 l 475 871 q 504 851 486 869 q 544 708 544 807 l 544 703 q 628 719 561 703 q 679 739 660 729 l 679 738 q 661 704 678 725 q 617 672 635 679 q 575 657 599 663 q 546 651 561 653 q 544 647 544 649 l 544 636 q 574 529 544 603 q 583 497 583 503 q 639 514 621 514 l 646 514 q 715 476 679 514 q 751 458 736 458 l 754 458 q 806 478 771 458 q 814 481 811 481 q 819 472 819 478 l 819 471 q 793 450 819 464 q 819 442 796 447 q 826 436 826 438 l 826 436 q 808 426 818 426 l 804 426 q 771 439 797 426 q 735 447 764 440 q 704 467 725 449 q 646 494 674 494 l 639 494 q 590 481 621 494 l 590 481 q 606 365 606 418 q 574 232 606 293 q 581 190 581 219 q 581 131 581 157 l 581 124 q 615 49 581 49 q 649 69 633 49 q 651 82 651 78 q 640 96 651 92 q 633 104 638 96 q 642 118 636 115 q 647 119 647 119 q 664 113 654 119 q 674 90 674 104 l 674 90 q 653 43 674 68 q 617 29 639 29 l 613 29 q 565 97 574 29 q 560 192 563 121 q 558 201 560 192 q 507 163 519 165 q 492 156 504 160 q 471 58 471 89 l 471 54 q 482 29 471 36 q 494 28 489 28 l 496 28 q 526 43 517 28 q 528 51 528 47 q 522 60 528 58 q 514 72 514 64 l 514 74 q 519 81 514 81 q 549 61 533 81 q 550 51 550 57 q 511 10 550 22 q 494 8 503 8 q 456 33 464 8 q 451 58 451 46 l 451 61 q 465 138 451 82 l 467 146 q 376 133 417 133 q 304 146 339 133 q 325 61 325 97 l 325 54 q 296 1 325 14 q 285 0 292 0 q 244 13 265 0 q 233 39 233 25 l 233 46 q 246 75 233 64 q 249 76 249 76 q 261 64 261 69 q 253 49 261 61 q 253 46 253 47 l 253 44 q 264 26 253 35 q 274 24 267 25 q 304 47 294 24 q 304 57 304 53 l 304 63 q 282 146 304 88 q 278 158 278 158 q 203 190 229 174 l 203 190 q 211 115 211 147 l 211 114 q 167 28 211 40 q 154 26 158 26 l 149 26 q 117 53 126 26 q 114 71 114 61 q 133 106 114 99 l 139 106 q 151 97 151 103 q 136 82 151 94 q 131 74 131 76 l 131 69 q 149 49 131 58 q 157 47 154 47 q 192 88 186 47 q 193 104 193 97 l 193 111 q 185 201 193 132 q 183 208 183 203 q 136 271 144 253 q 114 367 114 317 q 171 574 114 443 q 203 660 193 629 q 147 674 192 665 q 113 694 131 678 q 82 760 82 729 q 82 767 82 764 l 82 768 l 83 768 q 133 732 113 739 q 200 714 171 714 q 200 714 200 714 q 215 779 200 725 q 249 843 228 817 q 278 872 256 853 q 253 906 263 881 q 249 932 249 919 q 275 974 249 965 q 282 974 281 974 m 219 715 q 219 679 219 707 q 182 564 219 649 q 165 514 172 544 q 210 522 189 522 q 297 482 244 522 q 344 461 329 461 q 392 468 361 463 q 403 468 394 468 q 419 463 414 468 q 421 457 421 460 l 421 456 q 399 449 421 449 q 381 446 388 449 l 381 444 q 411 433 390 438 q 435 431 435 431 q 407 415 424 415 q 363 435 392 415 q 333 444 349 444 q 275 479 317 446 q 210 500 240 500 l 203 500 q 154 488 178 500 q 135 371 135 429 q 185 240 135 279 q 490 246 265 246 l 517 246 q 564 244 549 246 q 588 382 588 311 l 588 386 q 554 535 588 449 q 533 614 533 600 q 526 738 531 614 q 518 792 522 774 q 504 828 513 811 q 464 861 490 850 q 460 861 463 861 q 390 842 432 842 l 388 842 q 290 863 335 842 l 289 863 q 247 819 276 863 q 219 721 219 772 l 219 715 m 304 810 q 346 774 332 810 q 349 753 349 764 q 321 708 349 719 q 307 706 314 706 l 304 706 q 263 738 276 706 q 260 760 260 750 q 285 806 260 789 q 304 810 293 810 m 267 763 l 267 756 q 288 718 267 733 q 304 713 296 713 l 306 713 q 340 739 331 713 q 342 753 342 744 q 318 799 342 781 q 304 803 311 803 q 269 776 282 803 q 267 763 267 768 m 444 799 l 446 799 q 486 765 475 799 q 488 751 488 761 q 464 703 488 721 q 438 694 451 694 l 433 694 q 389 725 399 694 q 389 735 389 732 l 389 735 q 417 790 389 768 q 444 799 429 799 m 396 736 q 425 703 396 708 q 433 703 431 703 l 436 703 q 479 739 468 703 q 481 749 481 744 l 481 753 q 457 789 481 779 q 444 790 450 790 q 400 756 415 790 q 396 736 396 746 m 443 786 q 457 774 457 783 q 444 761 456 761 l 440 761 q 429 772 429 764 l 429 775 q 440 786 429 783 q 443 786 440 786 m 306 754 q 318 742 318 753 q 308 729 318 733 l 303 729 q 290 742 290 732 l 290 744 q 303 754 290 753 l 306 754 m 139 715 q 135 700 135 706 l 135 699 q 151 693 142 693 l 154 693 q 163 706 158 693 q 139 715 157 708 m 172 693 l 172 686 q 194 682 186 682 l 197 682 q 203 699 200 682 q 185 701 192 701 l 182 701 q 172 693 172 700 m 575 685 l 575 675 q 582 675 579 675 l 583 675 q 601 686 601 676 l 601 688 q 597 693 601 693 l 596 693 q 575 685 590 692 m 550 683 q 546 683 549 683 l 546 683 q 546 668 546 681 l 547 668 q 565 672 557 668 l 565 682 q 564 685 565 685 q 550 683 557 683 m 372 650 q 404 632 397 650 q 404 628 404 631 l 404 619 q 381 586 404 594 q 375 586 378 586 l 374 586 q 343 608 354 586 q 342 621 342 615 q 372 650 342 650 z "},"T":{"ha":696,"x_min":89,"x_max":640,"o":"m 113 965 l 118 965 q 138 947 138 961 q 138 946 138 947 q 176 890 138 925 q 194 869 188 879 q 253 890 208 890 l 263 890 q 325 854 289 890 q 363 838 344 838 q 433 857 382 838 q 469 865 457 865 q 514 847 494 865 q 560 885 531 864 q 586 913 581 903 q 597 940 597 932 q 615 949 607 949 q 639 926 632 949 q 640 921 640 922 q 625 901 640 907 q 615 900 622 900 l 610 900 q 538 835 578 874 q 565 753 565 803 q 532 665 565 697 q 529 663 532 665 q 547 654 538 654 l 547 654 q 583 674 561 654 q 593 678 592 678 l 593 678 q 599 669 599 675 l 599 669 q 594 656 599 668 l 594 656 q 625 608 594 644 q 636 578 636 589 l 636 574 q 619 542 636 556 q 581 524 610 533 q 500 507 554 515 q 457 503 471 503 q 408 503 433 503 q 390 503 403 503 q 385 446 385 468 q 406 386 385 406 l 418 386 q 493 346 460 386 q 521 260 521 304 l 521 253 q 485 172 521 203 q 450 157 471 163 l 438 156 q 449 54 449 85 l 450 54 q 513 40 488 54 q 518 31 518 35 q 500 13 518 21 q 458 4 478 4 q 426 26 426 4 q 426 47 426 35 q 415 147 422 88 q 396 146 403 146 q 315 175 363 146 q 271 190 290 190 q 231 174 253 190 q 203 167 214 167 q 210 33 206 64 q 211 22 210 33 q 185 8 204 15 q 149 0 163 0 l 143 0 q 122 14 126 0 q 122 18 122 15 q 135 39 122 33 q 176 50 142 43 q 178 51 178 51 q 176 60 178 57 q 183 131 176 65 l 183 135 q 174 178 183 165 q 150 194 169 183 q 129 228 133 211 q 118 299 118 258 l 118 301 q 122 351 118 325 l 100 356 q 89 367 89 361 q 122 376 89 372 q 122 378 122 378 q 122 397 122 386 q 171 532 122 475 q 215 563 199 557 l 215 563 q 221 624 215 568 l 221 633 q 197 696 221 665 q 154 772 158 744 q 153 788 153 783 q 175 853 153 824 q 151 882 164 863 q 128 918 143 900 q 101 932 125 924 q 93 946 93 938 l 93 947 q 104 963 93 960 q 113 965 110 965 m 204 836 l 194 838 q 178 801 188 838 q 178 790 178 796 l 178 783 q 213 706 178 756 q 243 618 243 661 l 243 604 q 228 419 243 553 q 224 374 224 381 q 178 340 204 365 q 144 264 144 301 q 181 204 144 226 l 181 206 q 178 217 178 211 l 178 222 q 189 239 181 239 l 192 239 q 207 217 203 239 q 207 211 207 215 l 207 207 q 206 194 207 200 q 260 213 233 213 l 263 213 q 343 189 289 213 q 407 174 379 174 q 399 197 399 186 q 411 213 399 210 q 429 190 422 213 l 431 178 q 482 208 463 178 q 494 258 494 231 q 458 347 494 311 q 407 364 440 364 q 376 374 379 364 q 368 390 368 381 q 367 436 367 411 q 401 615 367 538 q 415 632 407 628 q 486 668 424 639 q 522 694 503 676 q 540 754 540 719 q 524 811 540 789 q 519 813 522 813 q 508 811 518 813 q 499 819 499 813 q 500 831 500 828 l 500 831 q 493 836 500 835 q 467 840 479 840 q 390 821 444 840 q 363 817 374 817 l 360 817 q 304 846 329 817 q 258 871 274 871 l 250 871 q 214 853 233 871 q 207 836 211 836 q 204 836 206 836 m 344 788 q 414 750 386 788 q 424 714 424 732 q 400 658 424 682 q 344 640 376 640 q 271 674 299 640 q 258 711 258 692 l 258 715 q 304 781 258 763 q 344 788 325 788 m 283 719 l 283 715 q 317 668 283 681 q 336 665 325 665 l 340 665 q 386 686 367 665 q 399 715 399 697 l 399 715 q 381 754 399 740 q 344 767 365 767 q 289 740 307 767 q 283 719 283 729 m 342 732 l 344 732 q 363 715 363 728 q 349 699 363 704 q 342 697 349 697 q 321 715 321 700 q 342 732 324 732 m 399 531 l 399 525 q 408 525 406 525 l 428 525 q 610 571 556 525 l 610 579 q 575 628 610 614 q 563 611 569 611 q 551 633 556 611 q 546 632 547 632 q 514 647 538 632 q 507 650 510 650 l 504 650 q 424 614 435 624 q 417 596 421 614 q 399 531 399 560 m 329 597 l 331 597 q 340 586 335 597 q 328 569 340 581 l 328 568 q 347 554 328 563 q 350 550 350 551 q 340 543 349 543 q 319 553 332 543 q 306 538 311 549 q 290 529 299 529 q 286 538 286 529 q 300 558 286 546 q 304 565 304 563 q 290 579 301 569 q 288 588 288 583 q 293 590 288 590 l 294 590 q 314 581 299 590 q 328 596 319 581 l 329 597 m 147 406 l 147 404 q 147 386 147 399 l 150 386 q 160 392 153 386 q 163 393 161 393 l 164 393 q 171 378 168 393 q 147 361 153 365 q 147 351 147 354 l 147 344 q 147 335 147 339 q 201 381 186 379 q 210 538 204 440 q 175 499 185 518 q 147 406 147 458 m 310 465 l 313 465 q 319 458 319 465 q 307 444 319 451 q 306 440 306 442 q 328 422 306 433 q 339 404 339 413 l 338 403 q 294 424 321 403 q 272 396 286 422 q 260 383 267 389 q 253 381 257 382 q 253 385 253 382 l 253 389 q 275 425 253 401 l 281 432 q 265 446 281 438 q 261 454 261 450 q 268 463 261 463 l 268 463 q 292 449 281 463 q 304 463 294 451 q 310 465 307 465 z "},"U":{"ha":886,"x_min":47,"x_max":835,"o":"m 246 982 q 289 953 275 982 q 292 939 292 946 l 292 938 q 290 929 292 932 q 357 894 313 921 q 392 921 374 914 q 457 936 424 936 q 542 896 515 936 q 547 886 546 886 q 599 910 569 901 l 626 918 q 644 943 629 932 q 671 951 658 951 q 713 925 699 951 q 717 907 717 917 q 689 868 717 883 q 671 865 678 865 q 628 892 643 865 l 628 893 q 578 879 606 892 q 560 865 569 874 l 560 865 q 583 811 569 847 q 624 621 601 757 q 626 601 625 618 l 668 603 q 779 571 743 603 q 813 538 799 557 q 835 471 835 504 q 775 397 835 415 q 753 394 764 394 q 706 424 718 394 q 703 440 703 433 l 703 442 q 739 492 703 478 q 747 492 742 492 q 765 479 764 492 l 765 478 q 750 471 765 471 q 728 454 739 471 q 725 440 725 447 q 744 417 725 425 q 757 414 750 415 q 808 454 792 414 q 811 472 811 463 l 811 479 q 763 557 811 525 q 681 579 725 579 q 635 572 656 579 q 671 392 635 532 q 683 289 683 331 q 639 182 683 218 q 647 78 643 143 q 650 38 650 54 q 635 14 650 14 q 622 29 622 15 q 622 35 622 29 l 622 40 q 624 71 622 44 q 617 174 624 82 q 593 171 608 171 q 576 171 586 171 l 576 171 l 576 167 l 578 83 l 578 78 q 569 8 578 36 q 557 0 564 0 q 547 14 550 0 q 553 93 553 57 q 549 171 553 124 q 510 171 536 171 q 386 182 435 171 q 385 160 385 164 q 393 38 385 143 l 393 24 q 386 3 393 3 q 363 33 368 3 q 360 71 361 47 q 361 81 361 76 q 360 132 360 119 l 360 139 q 360 182 360 154 q 311 197 356 182 l 311 196 q 303 132 303 169 q 310 39 303 111 l 310 35 q 300 19 310 19 l 299 19 q 279 75 283 19 q 278 110 278 90 l 278 128 q 285 203 278 174 q 254 215 279 203 q 217 260 228 232 q 211 311 211 279 q 236 489 211 382 q 250 567 250 553 q 192 583 225 583 l 190 583 q 108 556 147 583 q 68 485 68 524 l 68 482 q 92 431 68 450 q 125 419 106 419 q 165 443 154 419 q 168 457 168 449 l 168 458 q 160 475 168 467 q 157 482 157 479 l 157 486 q 169 494 164 494 l 171 494 q 192 463 185 494 q 192 456 192 458 q 168 406 192 428 q 128 393 149 393 q 64 425 90 393 q 47 478 47 447 q 107 582 47 540 q 183 606 146 606 l 192 606 q 254 590 221 606 q 307 785 285 719 q 343 868 324 833 q 279 908 306 908 q 247 896 265 896 l 243 896 q 203 919 219 896 q 199 938 199 929 q 232 979 199 967 q 246 982 239 982 m 365 858 q 311 726 336 808 q 289 635 297 678 q 256 488 271 549 q 231 332 231 393 q 268 239 231 260 q 292 232 283 232 l 292 232 q 301 258 292 254 l 306 260 q 319 239 319 257 q 315 221 319 232 q 363 210 347 210 l 363 211 q 372 238 363 232 l 375 238 q 389 218 389 233 q 386 206 388 210 q 504 194 456 194 q 547 197 528 194 q 544 208 546 201 q 560 222 547 222 l 560 222 q 575 204 574 222 q 574 196 575 200 l 575 194 l 582 194 q 610 200 600 194 q 603 224 603 214 l 603 226 q 614 243 603 240 q 626 226 621 243 q 631 214 629 214 q 661 297 661 239 l 661 300 q 646 396 661 340 q 597 635 626 476 q 558 824 576 781 q 543 854 553 835 q 489 847 533 847 q 481 847 485 847 l 479 847 q 368 857 418 847 q 365 858 368 858 m 382 708 l 383 708 q 422 676 410 708 q 424 667 424 669 l 424 664 q 404 629 424 643 q 383 622 394 622 l 382 622 q 344 649 358 622 q 342 665 342 657 q 368 706 342 693 q 382 708 375 708 m 514 708 l 515 708 q 553 679 542 708 q 556 665 556 674 q 529 625 556 638 q 515 622 522 622 l 513 622 q 478 649 490 622 q 474 665 475 656 q 500 706 474 692 q 514 708 507 708 m 364 694 l 364 693 q 365 692 364 693 l 369 692 q 376 697 376 693 q 372 700 376 700 q 364 694 364 699 m 496 694 q 500 692 496 692 l 501 692 q 508 697 508 693 l 508 699 q 504 700 508 700 q 496 694 496 699 m 351 678 q 358 672 353 672 q 372 681 368 672 l 372 683 q 365 688 372 688 q 351 678 351 685 m 485 678 l 485 676 q 492 672 485 672 q 506 683 506 675 q 497 688 506 688 q 485 678 485 686 m 404 544 q 424 529 418 544 q 442 508 429 508 l 447 508 q 471 531 457 508 q 497 544 483 544 l 497 544 q 529 506 518 544 q 533 475 533 489 l 533 474 q 490 408 533 425 q 451 403 471 403 l 442 403 q 379 439 400 403 q 367 488 367 461 q 396 543 367 531 q 404 544 401 544 z "},"V":{"ha":1229,"x_min":88,"x_max":1146,"o":"m 714 979 q 739 929 739 967 q 733 869 733 876 l 733 868 q 742 864 733 864 q 833 839 785 853 q 838 838 833 838 q 853 878 844 864 q 904 921 878 921 l 911 921 q 938 911 924 921 l 938 910 q 881 847 897 890 q 874 818 874 828 q 926 792 881 811 q 946 779 938 786 q 975 801 951 781 q 1015 815 992 815 l 1017 815 q 1025 808 1022 815 l 1035 808 q 1035 807 1035 807 q 1003 776 1035 790 q 982 753 983 764 q 1026 697 986 749 q 1049 675 1046 676 q 1110 694 1079 694 q 1138 686 1126 694 l 1138 683 q 1100 656 1138 669 q 1074 632 1074 642 q 1107 550 1086 614 q 1124 518 1114 533 q 1078 443 1106 482 q 1042 400 1057 417 q 1146 181 1146 265 q 1121 107 1146 140 q 1074 136 1090 115 q 1051 174 1058 157 q 1024 251 1042 196 q 988 307 1011 285 q 963 321 967 321 q 910 289 924 296 l 896 282 q 938 156 922 213 q 947 86 947 115 q 913 7 947 32 l 913 7 q 871 33 885 15 q 844 96 851 60 q 825 178 833 149 q 788 235 811 221 q 621 211 706 211 l 618 211 q 494 229 550 211 q 454 169 472 215 q 424 79 446 147 q 376 10 403 24 q 350 0 363 0 q 317 40 324 0 q 314 60 314 50 q 358 194 314 111 q 383 254 383 246 q 303 293 365 257 q 279 303 285 303 q 240 275 256 296 q 199 171 222 250 q 139 89 174 89 l 138 89 q 94 131 111 89 q 90 158 90 143 q 151 318 90 214 q 183 383 183 376 q 97 536 121 475 q 117 613 103 582 q 147 668 129 640 q 129 692 144 681 q 88 710 99 704 l 88 711 q 94 722 88 715 q 110 728 100 728 l 110 728 q 163 700 132 728 q 236 765 178 710 l 258 782 q 231 824 256 796 q 217 853 217 843 q 217 854 217 854 l 222 854 q 286 807 253 854 l 294 797 l 294 797 q 346 824 319 813 q 413 846 379 839 l 415 846 q 406 904 406 878 q 419 936 406 932 l 419 936 q 444 874 429 926 l 451 858 q 563 871 536 871 l 563 872 l 563 876 l 558 925 l 558 929 q 564 950 560 950 l 582 954 l 582 954 q 594 950 589 954 q 592 932 592 942 q 603 875 592 921 q 682 868 622 875 q 697 868 686 868 l 699 868 q 703 897 703 882 q 701 942 701 926 q 714 979 703 974 m 149 582 q 286 482 179 528 q 444 415 382 436 q 583 394 513 394 q 915 488 726 394 q 1058 550 1006 529 l 1060 550 q 1039 614 1058 565 q 844 788 986 725 q 604 833 733 833 q 282 747 421 833 q 149 582 185 683 m 619 704 l 629 704 q 719 665 685 704 q 740 593 740 636 q 703 503 740 535 q 615 475 665 475 q 517 508 558 475 q 483 579 483 538 q 515 661 483 624 q 619 704 560 704 m 572 639 l 572 636 q 588 625 572 628 l 589 625 q 600 629 594 625 l 600 629 l 600 629 q 597 621 597 624 l 597 617 q 626 592 597 599 l 631 592 q 664 613 656 592 l 664 619 q 638 643 664 636 l 628 643 q 606 635 615 643 l 604 635 l 604 639 q 589 651 604 649 l 585 651 q 572 639 572 649 m 1017 486 q 1024 469 1017 481 q 1024 464 1024 467 l 1024 461 q 1051 489 1044 472 q 1053 493 1053 490 l 1053 496 q 1049 503 1050 503 q 1017 489 1040 494 l 1017 486 m 160 500 l 160 499 q 197 433 178 457 q 215 415 207 421 l 217 415 l 226 450 q 226 460 226 456 l 226 464 q 183 492 211 464 q 164 500 172 500 l 160 500 m 971 468 q 967 456 967 461 q 979 422 967 449 q 982 408 982 415 l 982 404 q 1000 417 992 404 q 1003 426 1003 422 l 1003 431 q 979 467 1003 450 q 976 468 978 468 l 971 468 m 256 446 q 244 414 244 431 l 244 408 q 267 364 244 381 q 283 357 276 357 l 285 357 q 313 421 297 396 l 313 421 q 268 442 310 421 q 256 446 261 446 m 869 421 q 901 353 894 372 q 906 336 903 347 q 949 368 928 356 q 950 385 950 379 q 935 446 950 414 l 933 446 q 888 426 921 446 q 869 421 879 424 m 831 407 q 810 394 821 397 q 796 392 796 393 q 817 297 817 324 q 817 296 817 297 q 861 315 828 296 q 869 318 868 318 l 869 328 q 833 404 869 368 q 831 407 833 406 m 314 336 q 313 336 313 336 q 367 307 349 308 q 364 324 364 314 l 364 326 q 388 383 364 354 q 394 393 389 385 q 361 406 374 406 l 356 406 q 315 356 326 406 q 314 336 314 344 m 714 364 q 726 297 726 326 l 726 294 q 724 268 726 279 q 733 267 726 267 q 781 282 747 267 q 783 307 783 293 l 783 307 q 751 374 782 363 q 742 375 749 374 q 714 364 729 375 m 394 311 l 394 304 q 394 293 394 301 q 481 272 443 278 q 494 364 481 325 q 446 374 468 374 q 399 339 410 374 q 394 311 394 326 m 992 346 l 1013 329 l 1013 329 q 1028 344 1013 335 q 1031 353 1031 347 q 1014 365 1028 365 q 993 350 1001 365 q 992 346 992 349 m 615 286 q 621 254 617 254 l 626 254 q 692 263 692 256 q 694 294 694 272 q 667 357 694 343 q 654 360 661 360 l 650 360 q 624 353 636 360 q 615 286 615 307 m 511 300 l 511 296 q 517 264 511 281 q 578 257 564 257 l 588 257 q 586 278 588 274 q 592 350 586 313 q 557 358 572 358 q 514 322 525 358 q 511 300 511 311 m 206 354 q 238 321 221 329 q 239 329 239 325 q 219 354 239 344 q 214 354 215 354 l 211 354 q 206 354 210 354 m 188 325 q 174 292 188 319 l 174 289 q 203 279 196 279 l 206 279 q 214 296 206 285 q 217 304 217 299 l 217 307 q 197 321 206 307 q 188 325 192 325 m 1044 321 l 1044 319 q 1029 311 1044 311 l 1028 311 q 1038 296 1031 296 l 1040 296 q 1063 304 1042 296 l 1063 304 l 1063 306 q 1049 321 1063 321 l 1044 321 m 1057 264 q 1065 258 1060 258 l 1069 258 q 1085 269 1085 260 l 1085 271 q 1079 274 1085 272 l 1078 274 q 1057 264 1071 274 m 163 264 q 153 236 153 242 q 151 232 151 236 l 151 225 q 154 226 153 225 q 167 218 157 226 l 171 218 q 186 242 176 218 q 188 254 188 249 q 163 264 182 257 m 821 243 l 821 243 l 826 242 l 826 242 q 865 260 843 242 l 865 260 l 863 261 q 821 243 836 261 m 403 211 q 438 204 406 208 q 450 226 438 213 q 451 235 451 232 q 436 239 443 239 q 403 211 413 239 m 1078 218 l 1078 215 q 1086 210 1082 210 q 1101 211 1096 211 l 1103 214 q 1099 226 1103 217 q 1099 229 1099 228 q 1099 231 1099 229 l 1099 232 q 1097 232 1099 232 l 1096 232 q 1078 218 1078 232 m 876 229 q 842 207 864 218 q 847 196 846 206 q 850 193 849 193 l 853 193 q 875 213 857 204 q 883 215 883 214 l 885 218 q 876 229 885 229 m 139 203 l 139 197 l 135 185 l 135 182 q 157 174 139 176 q 163 172 158 174 l 163 174 l 163 178 q 139 203 163 194 m 392 193 l 392 188 q 385 168 392 181 q 400 153 388 168 q 407 150 406 150 l 408 150 q 417 169 417 164 l 417 174 q 411 174 415 174 q 397 189 403 174 q 392 193 394 193 m 892 189 q 860 171 871 171 q 867 140 867 146 q 900 149 874 144 q 906 150 906 149 q 897 185 900 185 q 892 189 893 189 m 1093 178 q 1106 147 1100 147 q 1106 146 1106 146 q 1117 182 1117 161 l 1117 182 q 1110 185 1117 183 q 1096 179 1108 185 q 1093 178 1093 179 m 126 157 q 122 147 122 151 q 131 125 122 140 q 144 138 138 125 q 147 150 147 142 l 147 149 l 146 149 q 128 157 140 149 l 126 157 m 374 135 q 367 115 374 133 q 367 113 367 115 l 367 107 l 368 107 q 381 97 375 107 q 386 96 385 96 q 392 96 390 96 l 390 97 l 390 104 q 397 121 390 108 q 399 125 399 124 l 399 128 q 374 135 389 128 m 892 114 q 874 117 883 115 l 874 117 q 881 93 878 96 q 908 99 886 94 q 917 107 917 103 q 913 113 913 107 l 913 121 q 911 122 913 121 l 910 122 q 903 118 906 122 q 892 114 897 114 m 356 82 q 347 47 353 76 q 346 43 347 47 l 350 43 q 372 71 365 43 l 372 71 q 360 81 365 71 q 356 82 357 82 m 913 71 q 900 64 913 64 q 889 64 892 64 q 900 43 889 43 l 906 43 q 919 64 919 58 l 919 65 q 914 71 919 69 l 913 71 z "},"W":{"ha":1722,"x_min":89,"x_max":1633,"o":"m 358 922 l 360 922 q 428 850 428 863 q 429 846 429 849 l 429 843 q 393 829 407 829 l 393 829 q 415 753 396 789 q 424 744 422 744 q 565 779 476 761 q 838 799 624 790 q 897 799 869 799 q 1357 704 1104 799 l 1357 704 q 1382 769 1368 721 l 1388 782 q 1353 815 1368 792 q 1403 868 1361 835 q 1432 886 1426 886 q 1447 851 1442 876 q 1461 781 1451 835 q 1433 774 1450 774 l 1426 774 l 1422 775 q 1392 692 1400 729 q 1481 649 1426 682 q 1624 467 1586 579 q 1633 401 1633 432 l 1633 394 q 1588 261 1633 325 q 1439 178 1540 207 q 1439 167 1439 168 q 1439 79 1439 151 q 1419 21 1439 29 q 1417 19 1418 21 q 1400 47 1400 25 l 1400 56 q 1410 143 1400 64 l 1410 151 q 1407 169 1410 161 q 1343 156 1360 156 l 1342 156 q 1346 60 1346 75 l 1346 46 q 1335 3 1346 14 q 1328 0 1331 0 q 1301 24 1310 0 q 1300 40 1300 32 q 1308 124 1300 47 l 1308 131 q 1307 149 1308 138 l 1296 149 l 1247 146 l 1242 146 q 1239 125 1239 138 q 1240 58 1239 110 q 1217 14 1236 14 l 1215 14 q 1197 40 1197 14 q 1207 119 1197 47 l 1207 136 l 1207 140 q 1189 142 1203 140 q 539 149 993 142 l 538 139 l 538 129 q 550 49 538 118 q 550 39 550 43 q 532 8 550 13 l 529 8 q 510 53 513 8 q 501 149 507 128 q 486 147 486 147 q 440 154 481 147 l 440 153 q 440 138 440 149 q 447 42 440 128 l 447 35 q 442 18 446 18 l 439 18 q 407 64 407 18 l 408 132 q 403 158 408 158 q 325 169 399 158 q 321 138 321 153 q 332 53 321 122 l 332 43 q 308 18 332 18 l 307 18 q 290 86 290 18 q 285 172 290 172 q 176 222 214 197 q 115 286 136 250 q 89 397 89 328 l 89 406 q 300 694 89 594 q 389 735 339 715 q 368 794 368 790 q 363 819 364 804 q 333 818 340 818 l 331 818 q 321 821 321 818 q 353 914 336 878 q 358 922 358 922 m 461 719 q 469 697 469 703 l 469 693 q 457 682 469 686 q 417 706 431 701 q 207 597 267 647 q 119 406 119 522 q 182 263 119 304 q 261 226 208 242 q 283 221 278 222 q 296 244 285 222 q 306 247 301 247 l 306 247 q 326 213 326 229 l 328 213 q 389 201 335 213 q 401 201 392 201 l 404 201 q 408 203 408 201 q 407 219 407 215 l 407 222 q 422 242 408 242 q 436 226 435 242 q 439 204 439 208 l 439 199 q 504 193 457 196 q 522 233 504 233 l 525 233 q 540 206 538 233 l 540 204 l 539 190 l 540 190 l 1032 182 l 1058 182 q 1208 185 1133 182 l 1208 185 q 1206 200 1207 193 q 1224 219 1208 219 q 1244 201 1244 215 l 1244 196 q 1242 188 1244 190 q 1247 186 1244 188 q 1304 193 1274 186 l 1304 193 q 1315 226 1304 221 q 1318 228 1317 226 q 1336 210 1328 228 q 1340 196 1339 196 l 1340 196 q 1396 206 1349 196 q 1404 207 1404 207 q 1425 242 1410 242 q 1451 214 1439 238 q 1606 393 1606 279 q 1507 581 1606 486 q 1394 647 1449 631 l 1365 661 q 1343 640 1358 640 l 1339 640 q 1322 656 1322 643 q 1332 671 1322 663 q 815 765 1081 765 l 800 765 q 461 719 619 765 m 414 583 q 564 517 504 583 q 599 429 599 474 l 599 419 q 531 300 599 351 q 417 264 478 264 l 413 264 q 269 326 329 264 q 232 421 232 371 l 232 428 q 289 540 232 489 q 414 583 344 583 m 1335 583 q 1490 510 1429 583 q 1519 425 1519 468 q 1429 286 1519 338 q 1338 264 1383 264 l 1333 264 q 1199 318 1257 264 q 1151 425 1151 365 q 1233 557 1151 504 q 1335 583 1282 583 m 244 425 l 244 422 q 321 300 244 350 q 415 278 365 278 q 565 353 510 278 q 585 422 585 389 l 585 426 q 521 539 585 492 q 414 572 472 572 q 268 500 325 572 q 244 425 244 463 m 1164 428 l 1164 428 q 1164 425 1164 426 q 1164 421 1164 424 l 1164 418 q 1221 314 1164 363 q 1335 278 1274 278 q 1485 351 1429 278 q 1507 425 1507 388 q 1443 539 1507 492 q 1335 572 1393 572 q 1189 500 1246 572 q 1164 428 1164 463 m 825 532 l 828 532 q 833 510 832 532 l 833 508 q 826 485 833 489 q 819 504 821 485 l 819 514 q 825 532 819 528 m 913 532 l 914 532 q 921 511 921 528 l 921 504 q 913 485 919 485 q 907 510 907 492 q 913 532 908 532 m 1329 465 l 1333 465 q 1369 433 1360 465 l 1369 428 q 1339 390 1369 400 l 1332 389 q 1293 424 1303 389 l 1293 428 q 1322 465 1293 456 q 1329 465 1325 465 m 881 465 l 885 465 q 1038 410 958 465 q 1099 294 1099 358 l 1099 285 q 1069 236 1099 249 q 1058 235 1063 235 l 1040 235 q 744 246 1024 235 l 731 246 q 671 243 718 246 q 621 282 621 243 q 661 371 625 319 q 793 454 701 428 q 881 465 840 465 m 413 463 l 417 463 q 453 432 442 463 l 453 425 q 421 386 453 396 q 414 386 417 386 q 378 415 388 386 q 376 425 378 419 q 406 461 376 450 q 413 463 410 463 m 825 425 q 825 413 825 417 q 844 372 828 372 q 853 371 849 371 l 856 371 q 889 399 879 371 q 892 415 892 407 l 892 428 q 886 433 892 433 l 872 433 q 825 425 853 433 m 926 428 q 917 396 917 410 l 917 393 q 953 351 917 363 q 961 350 958 351 q 996 379 986 350 q 997 393 997 386 l 997 401 q 926 428 954 428 m 736 385 q 760 369 744 369 l 764 369 q 799 397 783 369 q 801 415 801 407 l 801 418 q 747 396 774 414 l 736 385 m 803 278 l 803 276 l 811 276 q 857 274 826 276 q 882 279 881 276 l 882 282 q 856 321 882 311 q 847 322 853 322 l 840 322 q 806 296 817 322 q 803 278 803 289 z "},"X":{"ha":1213,"x_min":67,"x_max":1149,"o":"m 618 971 l 621 971 q 728 935 679 971 q 763 892 754 913 q 801 776 782 860 q 818 708 811 735 q 856 732 844 717 q 901 817 871 744 q 947 864 924 864 q 978 836 968 864 q 981 821 981 829 l 981 814 q 938 728 981 778 q 876 681 900 692 q 831 663 847 665 q 857 543 842 604 q 868 504 868 506 q 900 501 886 501 l 910 501 q 1042 547 992 501 q 1065 588 1060 568 q 1049 589 1058 589 l 1040 589 q 1029 603 1029 589 l 1029 607 q 1050 617 1029 617 q 1060 619 1060 617 q 1028 660 1060 636 q 1013 688 1013 674 q 1017 694 1013 694 q 1021 696 1019 696 l 1024 696 q 1061 669 1038 696 q 1067 665 1063 669 l 1068 665 q 1081 692 1071 665 q 1089 697 1086 697 l 1090 697 q 1099 681 1099 692 l 1099 678 q 1083 638 1099 669 q 1081 629 1081 633 l 1081 629 q 1092 624 1083 624 q 1118 628 1113 628 q 1125 622 1125 628 l 1125 621 l 1124 608 q 1125 607 1125 608 q 1101 597 1125 603 q 1090 594 1090 597 q 1075 546 1086 564 q 900 474 1033 474 q 876 474 894 474 q 904 299 885 433 q 910 276 908 278 q 982 257 942 276 q 1046 174 1024 232 q 1057 115 1057 135 l 1058 114 q 1090 119 1072 119 q 1149 90 1138 117 q 1149 83 1149 86 q 1121 51 1149 60 q 1100 49 1110 49 l 1092 49 q 1035 64 1063 49 l 1035 68 q 975 229 1033 193 q 914 243 950 243 q 886 163 914 206 q 806 131 856 146 q 574 97 689 97 l 550 97 q 294 144 415 97 q 240 189 250 164 l 240 222 q 225 228 235 228 l 224 228 q 168 172 194 228 q 158 126 158 146 q 176 54 158 100 q 182 29 182 39 l 182 22 q 178 14 182 14 q 115 0 149 0 l 113 0 q 68 21 78 0 q 67 29 67 26 q 117 67 67 56 q 129 68 124 68 l 140 68 q 132 97 140 74 q 131 111 131 103 q 150 181 131 132 q 153 204 153 194 q 147 236 153 208 q 147 242 147 238 q 178 276 147 260 l 181 279 q 171 292 181 290 l 171 292 l 150 286 l 149 286 q 140 297 143 286 q 140 300 140 299 q 164 321 140 317 q 161 351 161 336 q 218 499 161 426 q 313 539 251 539 q 326 539 317 539 q 371 665 351 599 q 306 700 319 689 q 268 757 279 719 q 261 804 261 782 q 282 856 261 843 q 292 857 286 857 l 296 857 q 324 847 307 857 q 364 735 339 756 q 390 718 382 718 q 456 851 432 807 q 500 913 472 881 q 589 968 557 964 q 618 971 606 971 m 607 763 l 607 763 l 608 763 q 636 839 622 793 q 663 933 656 914 l 660 933 l 635 938 q 626 932 626 938 q 614 864 621 915 q 607 763 607 788 m 529 818 l 529 808 l 529 808 q 575 892 529 814 q 590 933 590 926 l 589 933 q 550 904 565 926 q 529 818 529 868 m 690 919 q 688 868 688 897 q 703 771 688 807 l 703 771 q 725 894 714 817 q 690 919 704 917 m 506 868 q 443 756 471 815 q 328 415 394 657 q 283 272 304 335 l 283 272 q 331 254 324 264 q 336 236 336 246 l 336 236 q 332 233 336 233 l 331 233 q 293 243 324 233 q 283 244 289 244 q 278 243 279 243 q 271 214 271 231 q 278 188 272 188 q 332 164 294 176 q 568 131 429 131 q 832 171 726 131 q 874 199 869 186 q 885 239 885 215 q 883 240 883 240 q 846 224 876 240 q 839 221 840 221 q 828 244 831 228 q 872 267 842 260 l 881 269 q 804 654 849 485 q 747 846 779 747 l 747 846 q 725 749 738 817 q 699 692 714 704 l 699 692 q 676 728 685 700 q 665 811 672 753 l 661 829 l 660 829 q 639 758 651 811 l 621 701 q 603 679 614 679 l 601 679 q 582 743 582 679 l 582 749 q 585 838 582 769 q 583 854 585 849 l 571 833 q 533 771 533 775 q 513 738 526 738 q 499 753 501 738 q 497 765 497 758 q 508 854 497 783 l 508 860 q 507 868 508 861 l 506 868 m 871 711 q 917 744 888 718 q 954 822 954 783 l 954 835 l 954 835 q 924 800 933 818 q 886 729 897 749 q 871 711 878 718 m 285 810 q 333 719 285 753 q 361 710 353 710 q 321 767 335 724 q 307 828 314 782 q 299 832 307 831 l 299 832 q 286 828 286 831 q 285 810 285 814 m 465 628 q 539 576 514 628 q 546 542 546 556 q 513 474 546 501 q 469 457 490 457 l 463 457 q 400 493 426 457 q 385 542 385 517 q 424 615 385 588 q 465 628 443 628 m 736 628 q 803 588 776 628 q 815 542 815 565 q 769 464 815 492 q 738 457 753 457 l 732 457 q 672 490 699 457 q 656 542 656 514 q 694 615 656 586 q 736 628 714 628 m 394 542 q 436 474 394 499 q 465 467 451 467 q 529 510 506 467 q 535 539 535 525 l 535 544 q 500 607 535 582 q 465 617 482 617 q 407 582 429 617 q 394 542 394 563 m 665 546 l 665 540 q 707 474 665 497 q 736 467 722 467 q 793 500 769 467 q 806 542 806 521 q 767 608 806 585 q 735 617 751 617 q 674 576 696 617 q 665 546 665 560 m 463 599 q 481 583 481 596 l 481 581 q 463 565 481 569 l 461 565 q 443 582 443 568 q 463 599 446 599 m 717 515 q 735 497 735 513 l 735 497 q 717 482 732 482 l 715 482 q 697 497 701 482 l 697 499 q 717 515 697 511 m 189 344 l 189 336 l 192 336 l 194 336 q 211 325 211 336 q 203 311 211 311 l 197 307 q 222 268 206 279 l 226 267 q 250 275 226 272 q 299 433 264 335 q 321 510 311 468 q 257 490 290 510 q 197 404 217 465 q 189 344 189 374 m 711 371 l 719 371 q 728 346 728 361 l 728 344 q 717 293 728 324 l 717 293 q 703 308 708 296 q 697 318 699 318 q 674 304 693 317 q 661 301 665 301 l 661 296 l 661 282 q 632 197 661 235 q 583 174 610 174 l 582 174 q 517 231 532 174 q 506 293 511 246 q 479 315 501 306 q 456 326 467 319 q 450 296 453 326 q 425 354 425 310 l 425 358 q 439 361 425 360 q 525 338 463 361 q 596 321 567 321 q 711 371 663 321 m 531 294 q 529 276 529 289 l 529 275 q 568 215 529 229 q 582 213 574 213 l 585 213 q 629 244 614 213 q 633 265 633 256 l 633 267 q 633 269 633 268 q 633 272 633 271 l 633 274 q 631 292 633 282 q 601 289 626 290 q 596 288 601 289 l 596 281 q 588 243 596 258 q 572 261 578 249 q 568 283 568 272 l 568 288 q 533 294 561 292 l 531 294 m 171 235 q 172 231 171 231 q 190 249 190 244 l 190 249 l 190 249 q 171 235 171 242 z "},"Y":{"ha":1204,"x_min":78,"x_max":1128,"o":"m 849 949 l 851 949 q 894 919 875 949 q 906 882 906 901 q 904 869 906 876 q 968 839 946 861 q 1000 754 1000 806 l 1000 735 q 1039 722 1018 733 q 1065 686 1060 706 q 1100 665 1078 686 q 1128 597 1128 635 q 1065 529 1128 549 q 989 521 1031 521 l 989 519 q 982 358 982 478 q 972 276 978 294 q 954 232 971 263 q 950 226 950 228 q 990 132 990 153 q 992 115 992 126 l 992 115 q 1008 118 1001 118 l 1013 118 q 1060 93 1042 118 q 1061 81 1061 85 q 1049 56 1061 65 q 1033 53 1042 53 l 1029 53 q 996 56 1024 53 q 982 53 985 54 q 969 63 976 53 q 964 110 967 63 q 928 204 964 143 q 854 190 886 190 l 846 190 q 826 193 836 190 q 833 132 833 171 l 833 118 q 833 100 833 113 q 854 104 846 104 l 861 104 q 896 88 883 104 q 897 83 897 86 l 897 82 q 864 46 897 56 q 844 43 853 43 l 840 43 q 808 49 822 43 q 804 89 804 67 l 804 125 q 796 196 804 171 l 767 196 q 519 189 728 196 l 496 189 q 429 190 471 189 q 426 190 428 190 q 411 81 411 150 q 413 10 413 15 q 369 0 392 0 l 367 0 q 328 21 338 0 q 324 31 325 25 q 363 51 338 51 q 383 47 372 51 l 383 47 q 382 53 382 51 l 382 64 q 394 193 382 124 l 394 193 q 300 210 360 197 q 269 92 269 132 q 278 58 269 75 q 278 54 278 56 q 254 35 278 40 q 246 35 250 35 l 240 35 q 189 53 210 35 q 185 65 185 58 q 207 86 185 82 q 218 86 213 86 l 219 86 q 240 83 231 86 q 268 221 240 128 q 267 222 268 222 q 229 258 243 233 q 210 360 210 290 l 214 488 q 213 535 214 508 q 119 553 143 544 q 86 585 93 567 q 78 624 78 604 l 78 625 q 114 697 78 668 q 161 717 140 717 q 160 721 160 719 q 183 763 160 753 q 222 769 200 769 l 226 769 q 250 833 231 806 q 319 865 276 865 l 321 865 l 322 865 l 321 869 l 321 889 q 328 929 321 911 q 357 938 340 938 q 403 910 388 938 q 415 933 407 914 q 435 939 419 939 q 490 890 471 939 q 496 872 493 885 l 514 872 q 538 872 533 872 q 740 878 617 872 q 757 924 746 889 q 772 942 760 932 q 811 924 783 942 q 813 922 811 924 l 813 922 q 849 949 826 949 m 829 878 l 829 878 q 861 875 854 875 l 864 875 q 879 878 878 875 l 879 878 q 868 919 879 890 q 858 922 861 922 l 856 922 q 829 882 835 922 l 829 878 m 767 882 l 767 881 l 799 881 q 788 908 799 897 q 779 911 781 911 q 768 893 768 904 q 767 882 768 893 m 339 883 q 342 865 339 875 q 349 865 349 865 q 388 868 374 865 q 389 875 389 872 q 365 907 389 897 q 358 908 361 908 q 339 888 342 908 l 339 883 m 419 865 q 460 868 426 868 q 471 872 467 871 q 444 907 463 907 l 443 907 q 419 878 425 907 l 419 865 m 679 843 q 565 844 589 844 q 411 835 485 844 l 347 835 q 272 815 286 835 q 258 779 258 792 q 243 618 253 758 q 239 500 239 563 l 239 493 q 239 482 239 490 q 311 511 275 511 l 318 511 q 338 508 325 511 l 338 510 q 349 540 340 540 l 351 540 q 365 522 365 535 q 365 518 365 522 l 365 517 q 364 503 365 510 q 435 468 385 499 q 490 440 463 450 q 488 457 488 449 q 500 479 488 474 q 517 443 517 472 l 517 438 l 518 438 q 585 463 540 440 q 651 490 621 482 q 690 494 667 494 l 697 494 l 700 493 l 700 497 q 715 518 700 518 q 731 504 725 518 l 731 501 q 725 486 731 493 q 788 457 743 481 q 847 442 818 442 l 847 443 q 844 463 844 453 l 844 464 q 854 479 844 476 q 857 479 856 479 q 869 463 864 476 q 872 450 872 451 q 951 482 888 450 q 957 488 957 483 q 967 658 963 658 q 974 744 974 719 q 944 819 974 803 q 810 849 907 849 q 699 844 797 849 q 679 843 692 843 m 807 797 q 913 753 869 797 q 936 689 936 724 q 879 575 936 636 q 858 560 867 564 q 793 543 832 543 q 699 572 738 543 q 664 661 664 604 l 664 663 q 701 761 664 722 q 807 797 740 797 m 794 764 l 794 758 q 789 735 794 756 l 789 731 q 803 726 794 726 l 806 726 q 831 747 824 726 q 831 753 831 750 q 824 764 831 761 q 814 765 818 765 l 811 765 q 794 764 808 765 m 181 719 l 181 719 q 214 726 181 724 q 225 736 225 731 q 226 742 226 736 l 226 743 q 217 744 224 743 q 182 728 193 744 q 181 719 181 721 m 361 735 l 367 735 q 432 706 407 735 q 442 669 442 692 l 442 669 q 388 603 442 617 q 368 600 375 600 q 304 632 326 600 q 294 664 294 646 q 321 722 294 700 q 361 735 338 735 m 565 731 l 569 731 q 628 694 611 731 q 632 671 632 682 q 596 607 632 633 q 560 599 578 599 l 558 599 q 486 656 507 599 q 483 671 485 665 q 504 715 483 697 q 565 731 528 731 m 318 665 l 318 660 q 328 640 318 646 q 364 626 343 626 l 367 626 q 414 653 397 626 q 418 671 418 663 q 396 703 418 693 q 368 710 383 710 q 321 679 335 710 q 318 665 318 672 m 997 708 l 997 699 q 999 699 997 699 q 1022 699 1013 699 q 1028 701 1028 700 q 1004 708 1015 708 l 997 708 m 508 667 q 544 632 508 643 q 558 631 553 631 l 565 631 q 606 656 594 631 q 608 668 608 661 l 608 669 q 590 701 608 693 q 561 706 581 706 q 518 694 525 706 q 508 667 508 681 m 194 694 q 207 692 201 692 q 224 701 224 693 q 213 703 221 703 q 194 694 197 703 m 101 622 l 101 618 q 124 581 101 597 q 186 565 139 571 l 210 563 q 219 664 215 579 l 218 664 q 175 676 193 664 q 153 689 164 683 q 104 639 118 671 q 101 622 101 631 m 368 685 q 381 669 381 682 q 368 654 381 657 l 367 654 q 353 669 356 654 q 368 685 356 685 m 569 683 q 581 671 581 679 q 582 667 582 669 q 569 653 578 653 l 567 653 q 554 668 554 656 q 569 683 556 683 m 994 669 l 994 656 l 1000 656 q 1038 671 1026 656 l 1038 672 q 1022 674 1026 674 l 1021 674 q 994 669 1008 674 m 1001 628 l 999 628 l 994 628 q 989 574 989 592 l 989 569 q 993 544 989 544 q 1010 543 1004 543 l 1013 543 q 1085 571 1054 543 q 1106 613 1106 590 q 1079 656 1106 638 q 1071 657 1074 657 l 1071 657 q 1031 636 1061 657 q 1001 628 1014 628 m 794 572 l 799 572 l 818 575 q 829 618 818 585 q 831 625 831 625 q 825 640 831 633 q 807 628 811 636 q 794 572 794 610 m 718 594 q 736 586 721 590 q 739 585 736 586 l 740 588 q 743 628 743 622 q 742 636 742 635 q 738 638 740 636 l 735 638 q 718 600 718 619 q 718 594 718 600 m 239 444 q 243 410 243 428 l 243 406 l 240 329 l 240 326 q 265 257 240 271 q 282 251 276 251 q 307 300 300 293 q 314 306 313 306 q 329 288 329 299 q 311 247 329 279 q 310 239 310 243 q 404 222 343 232 q 424 275 413 232 q 433 278 426 278 l 436 278 q 447 264 447 278 q 438 219 447 256 q 474 219 456 219 q 678 226 499 219 q 711 226 700 226 q 783 225 753 226 q 769 254 783 231 q 768 261 768 260 q 775 274 768 267 l 776 274 q 801 256 788 274 l 815 225 q 867 225 829 225 q 903 232 889 225 q 883 253 903 239 q 876 268 876 260 l 876 275 q 886 283 885 283 q 931 250 896 281 q 953 351 953 276 l 953 400 q 954 446 953 422 q 954 446 954 446 l 954 446 q 893 426 933 440 q 879 422 879 422 q 885 386 885 389 l 885 382 q 872 367 885 371 l 871 367 q 857 404 857 374 q 857 415 857 410 l 843 415 q 740 451 804 415 l 718 463 q 708 417 711 428 q 693 400 703 404 l 693 400 q 682 418 682 406 l 682 418 q 690 460 682 425 l 690 464 l 685 464 q 590 433 643 464 q 519 410 547 411 q 524 383 524 390 l 524 379 q 517 367 524 367 q 507 364 515 367 l 504 364 q 494 392 496 364 q 490 413 494 413 q 401 458 469 414 q 356 476 379 469 l 356 475 q 344 433 356 457 q 335 422 338 424 q 321 442 321 426 q 329 483 322 453 l 328 483 q 314 485 325 485 l 310 485 q 239 444 271 485 z "},"Z":{"ha":1093,"x_min":63,"x_max":1042,"o":"m 554 965 l 557 965 q 608 939 592 965 q 613 921 613 929 l 613 921 q 607 897 613 910 l 608 897 q 721 868 678 897 q 732 857 731 857 q 771 890 738 857 q 814 921 799 921 q 846 888 835 921 q 846 879 846 882 l 846 872 q 801 803 846 840 q 779 789 792 796 q 815 567 792 726 q 853 558 815 564 q 860 572 857 558 q 868 578 863 578 q 882 561 879 578 q 886 550 885 550 l 886 550 q 963 519 918 550 q 1003 494 988 507 q 1025 460 1011 489 q 1042 426 1042 438 q 1038 415 1042 421 q 1001 450 1017 415 q 997 456 997 456 q 982 432 990 449 q 969 422 974 422 q 963 436 963 428 q 976 475 963 450 l 975 475 q 915 513 922 513 q 878 519 897 519 q 871 501 874 519 q 865 499 867 499 l 864 499 q 849 519 854 499 q 843 529 847 529 q 824 535 835 531 q 843 336 843 411 q 764 122 843 175 l 764 121 q 775 50 775 75 l 775 44 l 781 44 q 842 25 811 44 q 854 6 854 14 q 753 0 854 3 q 747 0 753 0 q 747 0 747 0 q 747 4 747 0 q 739 104 747 67 q 518 64 647 64 l 501 64 q 356 75 436 64 q 354 63 354 69 l 358 25 l 358 25 q 339 1 358 1 q 300 0 321 0 l 239 0 l 238 0 q 275 31 247 21 q 324 42 288 35 l 324 44 l 324 51 q 322 75 322 72 l 322 81 q 268 117 313 86 q 229 157 236 142 q 215 229 215 175 l 215 233 q 260 501 215 321 q 268 544 267 535 l 267 544 q 207 578 239 557 l 183 594 q 171 582 181 594 q 158 579 167 579 q 153 582 153 579 q 153 592 153 586 l 153 592 q 168 622 153 608 l 168 624 q 147 700 154 649 q 147 718 147 703 q 118 699 142 718 q 92 692 104 692 q 83 694 83 692 q 83 700 83 696 q 107 725 83 714 q 122 739 115 729 q 81 746 90 743 q 63 763 67 753 q 63 764 63 763 l 63 765 q 85 769 74 769 q 135 767 128 767 l 140 767 q 158 768 150 767 q 174 739 168 758 q 179 675 175 722 q 190 642 182 654 q 210 656 200 642 q 218 660 214 660 q 226 653 222 660 q 232 646 232 650 q 208 624 232 638 q 207 618 207 619 l 207 617 q 257 585 207 603 q 274 575 267 579 l 275 575 q 304 717 288 615 q 326 799 315 768 l 326 800 q 267 854 290 813 q 257 890 257 875 l 257 896 q 272 932 257 917 q 296 939 286 939 l 297 939 q 354 897 324 939 q 382 869 372 878 q 501 892 451 892 q 501 893 501 892 q 497 914 497 904 l 497 919 q 536 964 497 951 q 554 965 546 965 m 526 897 q 536 867 526 882 l 536 867 q 528 860 535 867 q 526 858 526 860 q 494 864 508 864 l 486 864 q 422 847 451 864 q 365 824 379 824 q 321 888 349 824 q 303 908 308 908 l 301 908 q 289 893 292 908 l 289 889 q 306 840 289 865 q 340 831 315 831 l 347 831 q 358 824 356 831 q 360 813 360 819 q 346 761 360 801 q 321 614 335 718 q 313 571 317 588 q 329 550 329 563 q 313 531 329 538 l 308 531 q 303 532 306 532 q 253 219 253 336 q 260 175 253 185 q 313 133 276 146 q 322 132 314 132 q 333 151 325 146 q 447 190 358 178 q 533 194 492 194 l 536 194 q 718 167 654 194 q 743 142 743 153 l 743 142 q 815 314 815 194 q 792 503 815 374 l 788 535 q 772 549 776 535 q 771 554 771 553 q 779 565 771 563 l 781 565 q 753 719 775 618 q 746 789 746 763 l 746 800 q 746 813 746 804 q 740 810 743 810 l 739 810 q 728 817 729 810 q 663 858 708 844 q 619 864 640 864 q 576 857 599 864 q 569 874 569 867 q 582 908 569 883 q 583 922 583 915 l 583 924 q 557 936 571 936 l 557 936 q 528 908 538 936 q 526 897 526 901 m 753 817 l 753 817 q 796 836 771 819 q 822 871 822 857 q 808 886 822 882 l 807 886 q 753 817 789 886 m 658 803 l 663 803 q 717 771 696 803 q 728 733 728 753 q 667 665 728 685 q 649 664 656 664 q 589 700 606 664 q 583 728 583 714 q 615 789 583 765 q 658 803 636 803 m 453 801 l 456 801 q 511 764 492 801 q 519 729 519 746 q 492 672 519 694 q 442 658 469 658 q 378 688 400 658 q 369 714 369 701 l 369 718 q 390 774 369 743 q 453 801 415 801 m 390 718 l 390 717 q 422 678 390 688 q 435 676 428 676 l 440 676 q 486 694 464 676 q 501 728 501 708 q 488 764 501 746 q 451 781 468 781 l 446 781 q 399 744 422 781 q 390 718 390 731 m 607 725 l 607 725 q 631 685 607 697 q 649 681 640 681 l 651 681 q 701 710 681 681 q 707 729 707 719 q 688 768 707 751 q 661 776 672 776 q 613 747 631 776 q 607 725 607 736 m 676 764 q 693 746 690 764 q 676 728 690 728 q 660 746 663 728 q 675 763 664 763 q 676 764 675 764 m 450 743 q 467 726 467 740 q 453 711 467 715 l 449 711 q 435 725 435 715 l 435 728 q 450 743 435 740 m 560 669 q 632 631 608 669 q 640 592 640 611 l 640 588 q 596 518 640 540 q 554 508 576 508 q 475 544 504 508 q 464 583 464 564 q 508 658 464 631 q 560 669 532 669 m 488 581 q 531 533 488 544 q 546 532 538 532 l 549 532 q 608 560 586 532 q 617 589 617 575 l 617 594 q 585 640 617 625 q 564 644 575 644 l 560 644 q 500 618 525 644 q 488 581 488 603 m 518 604 q 533 590 529 604 q 533 585 533 588 q 519 569 531 569 q 518 568 519 568 q 501 586 503 568 l 501 586 q 518 604 503 604 m 593 603 q 610 589 604 603 l 610 585 q 594 568 610 574 l 593 568 q 576 585 579 568 q 593 603 579 603 m 439 464 q 708 456 569 464 q 758 439 746 450 q 774 411 774 428 q 747 374 774 388 q 654 356 722 356 q 435 367 621 356 q 300 424 300 379 q 328 457 300 447 q 428 464 338 464 l 439 464 m 424 439 l 424 436 q 440 408 424 415 q 451 407 447 407 l 454 407 q 474 415 471 407 q 476 425 476 419 q 468 436 476 436 q 457 438 463 438 q 435 438 447 438 q 424 439 426 438 m 606 433 q 617 406 606 421 q 633 400 624 400 l 636 400 q 653 406 647 400 q 656 426 656 414 l 656 428 l 654 432 q 618 433 632 433 l 606 433 m 506 331 l 522 331 q 599 326 547 331 l 599 325 q 567 311 592 317 q 522 304 543 304 q 461 326 476 304 q 506 331 481 331 z "},"a":{"ha":985,"x_min":60,"x_max":944,"o":"m 543 967 l 543 967 q 557 949 557 964 l 557 949 q 553 913 557 942 q 574 900 560 910 l 575 900 q 592 926 581 904 q 603 933 597 933 l 603 933 q 610 925 608 933 l 610 922 q 597 886 610 914 q 606 874 606 875 l 610 874 q 631 890 614 874 q 635 892 632 892 l 636 892 q 644 881 642 892 q 626 854 644 874 q 624 850 625 853 q 649 746 649 793 l 649 733 l 647 728 q 703 697 685 719 q 756 524 756 644 q 754 483 756 508 q 793 481 778 481 q 904 518 867 481 q 919 554 919 536 q 904 592 919 576 q 885 597 896 597 q 853 578 863 597 q 853 574 853 575 l 853 572 q 858 561 853 561 l 860 561 q 882 569 864 561 q 886 571 886 571 q 896 558 894 571 q 876 532 896 542 q 868 531 869 531 l 863 531 q 835 550 846 531 q 831 572 831 563 q 861 622 831 604 q 886 628 874 628 q 939 589 922 628 q 944 561 944 575 l 944 558 q 881 475 944 510 q 785 456 840 456 l 781 456 q 753 457 763 456 q 675 275 729 343 l 675 275 q 714 143 714 204 q 692 35 714 72 q 686 29 688 29 l 683 29 q 681 36 681 29 q 693 131 693 90 q 658 251 693 196 l 658 251 q 617 221 639 233 q 626 121 626 164 q 597 10 626 44 q 593 7 594 7 l 592 7 q 586 18 586 7 q 597 56 586 24 q 604 111 604 85 q 592 210 604 153 q 543 199 571 199 l 542 199 q 543 113 543 164 q 528 3 543 25 q 521 0 524 0 l 519 0 q 510 11 511 0 l 510 15 q 515 57 515 53 q 517 111 517 81 q 513 194 517 147 l 506 194 q 397 213 465 194 q 396 186 396 199 l 396 179 q 415 38 396 113 q 418 19 418 24 q 411 10 418 10 q 389 40 394 10 q 372 188 372 144 l 372 199 q 374 219 372 206 q 317 249 342 233 q 306 136 306 190 l 306 121 q 319 13 306 64 q 311 3 318 3 q 289 47 300 3 q 279 128 279 81 l 279 129 q 292 260 279 189 q 258 289 278 268 q 253 297 254 297 q 219 181 219 261 q 233 60 219 129 q 229 56 233 56 q 210 72 221 56 q 192 172 192 115 q 235 321 192 250 l 235 321 q 197 464 197 376 q 201 521 199 499 q 146 532 190 521 q 76 578 93 549 q 60 639 60 601 l 60 646 q 104 718 60 701 q 122 721 114 721 q 168 703 146 721 q 188 658 188 683 l 188 653 q 154 608 188 619 q 146 607 149 607 q 106 632 119 607 q 104 639 104 636 l 104 640 q 118 658 104 653 q 121 658 119 658 q 140 642 133 658 q 142 636 140 636 l 146 636 l 150 636 q 163 653 163 638 q 144 686 163 674 q 122 690 132 690 q 85 660 94 690 q 82 638 82 647 l 82 631 q 122 569 82 594 q 203 549 164 549 q 294 719 233 658 q 346 763 324 749 q 349 778 349 763 q 374 853 357 829 q 396 882 374 854 q 382 922 382 911 l 382 924 q 388 929 382 929 q 414 897 396 929 q 417 894 415 894 q 438 903 421 899 l 438 904 q 432 933 438 911 q 431 936 432 933 q 439 946 433 946 l 439 946 q 457 913 450 946 q 485 918 478 918 l 485 926 q 482 954 485 931 q 489 963 482 963 l 492 963 q 506 932 503 963 q 507 919 507 921 q 529 915 515 919 l 529 915 q 536 958 532 922 q 543 967 538 967 m 231 553 q 239 554 233 553 q 258 543 256 554 l 258 540 q 225 521 258 525 l 224 521 q 218 467 218 494 q 249 342 218 392 q 265 347 261 347 l 267 347 q 275 332 275 344 q 265 318 275 324 q 296 283 274 300 q 297 282 297 283 q 310 313 297 300 q 311 313 310 313 q 325 301 321 313 l 325 293 q 321 271 324 279 q 376 243 357 246 q 393 283 383 283 l 394 283 q 407 269 406 283 q 408 267 408 269 q 401 236 408 258 q 492 218 446 218 q 513 219 501 218 q 510 247 510 233 l 510 250 q 517 269 510 265 l 519 271 l 521 271 q 542 221 539 271 q 586 233 563 221 q 576 264 585 242 q 575 269 575 269 q 590 283 578 283 q 613 251 601 283 l 613 251 q 643 275 628 256 q 632 300 632 289 l 632 301 q 638 314 632 311 q 642 315 639 314 q 660 299 651 315 l 661 299 q 707 374 692 331 q 729 457 719 407 l 729 457 q 697 469 697 461 q 696 476 696 469 q 704 489 697 489 l 706 489 q 731 485 710 489 q 732 529 732 513 l 732 532 q 672 693 732 660 q 628 710 658 700 q 626 715 626 711 l 626 738 q 613 810 626 756 q 571 875 597 857 q 503 894 542 894 q 410 863 454 894 q 376 806 388 844 q 365 749 371 786 q 243 597 292 708 q 231 553 231 561 m 499 849 l 501 849 q 572 808 547 849 q 581 769 581 789 l 581 763 q 526 697 581 715 q 500 694 513 694 l 499 694 q 418 733 447 694 q 406 774 406 753 l 406 778 q 453 839 406 817 q 499 849 476 849 m 433 758 l 433 758 q 464 722 433 736 q 496 715 481 715 q 551 743 539 717 q 554 756 554 750 l 554 760 q 543 761 549 761 l 536 761 q 521 757 521 761 q 513 744 521 753 q 493 738 504 738 q 468 757 475 738 q 467 761 467 761 l 461 761 q 433 758 456 761 m 371 665 q 433 639 393 665 q 501 615 472 615 l 507 615 q 596 632 526 615 q 626 635 615 635 q 682 597 669 635 q 686 571 686 583 q 651 479 686 525 q 535 440 613 440 l 528 440 q 364 481 443 440 q 306 572 306 514 l 306 576 q 338 651 306 622 q 371 665 354 665 m 438 604 q 444 575 438 594 q 458 564 453 564 q 468 596 468 578 q 449 606 458 606 l 439 606 q 438 604 438 606 m 554 592 l 554 586 q 569 551 554 571 q 583 579 571 556 q 588 596 588 590 l 588 597 q 585 604 586 604 q 556 594 571 604 l 554 592 m 494 590 q 511 544 499 563 l 513 543 q 529 592 521 556 q 513 594 521 594 q 494 590 501 594 z "},"b":{"ha":1089,"x_min":78,"x_max":1022,"o":"m 569 976 l 574 976 q 632 953 608 976 q 654 892 654 929 l 654 886 q 719 858 704 871 q 721 857 719 858 q 761 878 747 878 q 779 881 768 881 l 779 881 q 850 829 828 881 q 857 790 857 811 q 831 725 857 753 l 831 724 q 865 611 849 682 q 872 579 869 592 q 915 606 886 581 l 926 615 l 926 618 l 922 636 l 922 636 q 929 643 924 643 l 931 643 q 943 636 933 643 l 943 636 q 964 683 960 653 l 969 708 l 971 708 q 979 667 975 696 q 983 660 983 660 q 1019 665 1013 665 l 1021 665 l 1022 664 q 979 629 1013 644 l 963 624 q 975 613 963 618 q 979 604 979 610 q 972 597 979 599 q 964 597 971 597 q 947 603 956 597 q 879 553 904 565 q 896 258 896 407 q 888 126 896 144 q 885 118 886 118 q 847 118 871 118 q 831 117 846 118 l 825 29 q 844 28 835 28 q 886 28 872 28 q 889 26 889 28 l 889 24 q 888 11 889 21 l 888 10 q 888 4 888 8 q 888 4 888 4 q 867 3 875 4 q 844 4 856 4 q 808 0 828 4 q 799 28 799 10 l 799 28 q 808 90 799 40 q 808 100 808 94 l 808 101 q 807 115 808 110 q 756 113 782 113 l 746 113 q 553 121 707 113 l 551 121 q 544 100 549 117 q 532 92 540 92 l 531 92 q 528 100 528 92 l 531 119 q 525 122 529 122 q 513 121 522 122 q 504 124 511 121 q 503 117 503 121 q 504 107 504 108 q 499 101 504 103 l 497 101 q 483 124 490 101 l 483 124 q 303 142 436 124 q 232 146 258 146 l 231 146 q 228 125 228 135 l 228 121 q 238 57 228 110 q 238 46 238 51 q 233 25 238 33 q 219 26 224 26 q 156 17 206 26 l 154 17 q 147 38 153 22 q 211 50 165 42 l 211 50 q 203 147 211 72 q 169 161 196 154 q 154 169 154 165 q 146 279 146 215 q 151 406 146 332 q 131 411 144 407 q 126 413 129 413 q 119 399 121 408 q 111 383 119 390 l 111 383 q 103 399 103 386 l 103 399 q 104 415 103 403 q 78 465 78 438 l 78 467 q 133 549 78 508 q 189 569 164 567 q 276 747 242 701 q 251 803 251 774 q 293 874 251 843 q 338 889 317 889 l 342 889 q 394 861 371 889 q 397 858 396 858 q 460 885 449 885 l 461 886 q 481 933 461 907 q 549 974 503 963 q 569 976 561 976 m 492 897 l 492 897 q 565 903 519 903 q 626 897 607 903 l 626 897 l 628 908 q 597 949 628 939 q 576 953 589 953 l 575 953 q 507 926 539 953 q 492 897 492 908 m 581 940 l 583 940 q 594 929 593 940 q 582 919 594 921 l 581 919 q 569 929 569 921 l 569 932 q 581 940 569 939 m 219 567 q 243 547 243 563 q 233 540 239 540 q 213 547 219 547 q 207 540 207 547 q 168 275 168 401 l 168 265 q 174 188 168 219 q 201 176 176 183 l 201 197 q 208 208 203 208 q 222 200 219 206 q 226 182 226 193 l 226 178 l 226 174 q 479 151 429 151 q 483 174 482 151 q 492 181 486 181 q 503 164 503 181 q 501 154 501 160 q 503 149 503 150 l 529 149 l 529 167 q 535 176 529 176 l 536 176 q 547 157 547 176 l 547 153 l 547 149 q 733 140 679 140 l 739 140 q 803 143 767 140 l 804 143 q 797 174 804 146 l 797 178 q 806 190 797 186 q 818 181 813 190 q 826 146 821 175 q 828 143 828 143 q 865 151 838 143 q 869 151 868 151 q 874 253 874 207 l 874 263 q 853 549 874 375 q 843 547 847 547 l 842 547 q 825 560 828 547 l 824 563 q 828 574 826 574 l 829 574 l 842 571 l 844 571 q 847 572 846 571 q 793 743 822 688 q 668 857 754 824 q 554 882 608 882 q 419 846 489 882 q 351 797 388 829 q 297 733 310 756 q 251 654 269 694 q 219 567 219 579 m 275 804 q 290 767 275 783 q 325 804 293 772 q 317 813 317 808 l 317 815 q 331 826 317 824 q 342 818 336 826 q 379 850 353 829 q 338 869 360 869 l 336 869 q 282 833 304 869 q 275 804 275 818 m 743 840 q 775 811 753 835 q 818 753 799 783 q 835 790 835 771 l 835 796 q 810 846 835 822 q 778 857 796 857 q 743 840 758 857 m 778 847 q 790 836 790 844 l 790 835 q 778 825 790 826 q 765 835 765 826 l 765 836 q 778 847 765 846 m 558 832 q 636 803 604 832 q 657 751 657 782 l 657 751 q 604 679 657 704 q 564 671 583 671 q 496 701 522 671 q 483 744 483 719 q 518 818 483 788 q 558 832 538 832 m 503 744 q 532 701 503 718 q 563 694 546 694 q 628 725 603 694 q 633 750 633 736 l 633 754 q 601 800 633 783 q 568 807 586 807 q 506 763 525 807 q 503 744 504 757 m 568 767 q 579 756 579 765 q 567 744 578 744 q 554 756 554 747 q 568 767 554 765 m 351 719 l 354 719 q 418 683 388 719 q 432 639 432 661 q 396 582 432 604 q 361 575 379 575 q 296 610 317 575 q 289 642 289 624 q 313 704 289 679 q 351 719 332 719 m 725 701 l 732 701 q 792 665 772 701 q 797 639 797 653 l 797 639 q 744 567 797 593 q 704 557 724 557 l 700 557 q 654 581 671 557 q 643 619 643 597 q 693 696 643 676 q 725 701 710 701 m 311 638 q 342 600 311 607 q 357 599 351 599 l 363 599 q 399 618 382 599 q 406 642 406 631 l 406 647 q 385 686 406 671 q 365 693 374 693 l 358 693 q 311 650 324 693 l 311 638 m 665 614 q 689 579 665 589 q 714 575 700 575 q 772 617 754 575 q 776 638 776 628 l 776 640 q 749 682 776 671 q 732 685 743 685 q 683 665 704 685 q 665 614 665 640 m 361 651 q 374 640 374 650 q 363 629 374 632 l 360 629 q 349 640 349 632 q 361 651 349 650 l 361 651 m 721 643 q 732 633 732 642 l 732 632 q 721 621 732 624 q 708 633 708 624 q 721 643 708 642 m 99 468 q 107 440 99 457 q 118 453 108 440 q 129 457 122 457 q 136 450 129 456 l 136 449 l 136 447 q 131 438 136 446 l 131 433 l 139 432 l 150 433 q 157 432 151 433 q 181 544 163 464 l 181 544 q 133 521 158 536 q 99 468 99 496 m 332 497 q 425 467 390 497 q 460 376 460 433 q 428 278 460 324 q 392 249 406 256 q 328 231 360 231 q 240 268 279 231 q 213 351 213 304 l 213 360 q 246 463 213 417 q 332 497 274 497 m 778 475 q 836 429 818 475 q 842 390 842 407 l 842 382 q 800 271 842 322 q 751 239 774 247 q 690 231 728 231 l 685 231 q 554 297 581 231 q 547 346 547 321 q 583 436 547 404 q 603 446 597 444 q 633 439 618 439 l 640 439 q 728 463 665 439 q 778 475 760 475 m 724 426 l 724 425 q 738 401 724 407 q 740 400 739 400 l 742 400 q 767 421 760 400 q 768 432 768 431 q 763 450 768 442 q 760 451 761 451 q 731 442 746 451 q 724 426 724 435 m 625 404 q 632 385 625 390 q 647 382 640 382 l 651 382 q 668 399 668 383 l 668 401 q 661 422 668 411 l 657 422 q 625 417 625 421 q 625 404 625 404 m 313 263 q 324 263 321 263 q 344 263 333 263 l 350 263 q 361 307 361 294 l 361 311 q 346 317 356 317 l 340 317 q 322 313 322 317 q 313 263 313 290 z "},"c":{"ha":946,"x_min":104,"x_max":865,"o":"m 369 981 l 372 981 q 399 956 399 978 l 399 951 q 414 926 414 942 l 414 925 q 435 908 424 925 q 440 885 440 894 l 444 885 q 529 871 510 885 q 543 900 532 876 q 547 901 546 901 l 549 901 q 561 900 560 900 q 563 900 563 900 q 564 906 563 903 q 561 919 561 919 q 581 929 561 929 q 590 940 588 929 q 597 957 593 951 q 603 964 601 963 q 629 953 629 957 q 636 935 636 946 q 619 894 636 926 q 617 874 617 885 l 617 871 q 596 856 610 863 q 589 850 589 850 l 589 849 q 611 831 589 839 q 663 768 647 794 q 703 686 686 732 q 722 625 711 663 q 786 706 761 646 q 801 778 801 740 l 801 781 q 792 796 801 783 q 788 868 790 808 l 789 868 q 811 839 799 861 l 826 813 q 854 869 842 858 q 860 876 854 871 q 865 843 865 865 l 865 836 q 860 735 861 758 q 842 668 851 693 q 808 607 829 635 q 769 571 783 579 q 740 554 760 564 q 763 400 763 479 l 763 400 q 713 239 763 283 q 754 144 754 210 q 725 35 754 86 q 674 0 701 0 l 669 0 q 646 15 653 0 q 644 28 644 19 q 667 74 644 43 q 686 128 686 99 l 686 132 q 649 199 686 167 q 490 171 586 171 l 479 171 q 343 182 415 171 q 331 99 338 119 q 221 24 307 24 q 119 71 161 24 q 104 111 104 92 l 104 115 q 132 156 104 139 q 144 160 138 160 q 163 140 156 160 q 224 88 192 88 q 268 132 257 88 q 272 156 271 139 q 256 206 268 203 q 233 219 239 215 q 185 285 196 258 q 156 397 156 339 l 156 401 q 188 553 156 458 q 200 601 196 582 q 133 675 158 621 q 121 749 121 714 l 121 760 q 136 846 121 801 q 146 867 146 858 q 139 892 144 876 q 139 899 139 896 l 139 903 q 156 968 139 931 l 157 968 q 179 897 165 968 l 181 897 q 226 935 183 897 q 239 942 235 942 q 240 931 240 942 q 213 876 240 907 q 196 839 199 858 q 189 765 189 792 l 189 763 q 229 685 189 701 q 386 868 296 829 l 386 868 q 363 889 372 872 q 358 903 358 897 q 361 914 358 907 q 346 933 351 919 q 344 944 344 940 l 344 949 q 364 981 344 971 l 369 981 m 254 669 q 274 644 267 664 q 276 628 276 636 q 253 593 276 603 q 249 592 251 592 l 247 592 q 226 597 243 592 q 193 478 204 522 q 183 396 183 432 l 183 386 q 265 229 183 294 q 282 249 269 242 q 294 251 290 251 l 300 251 q 336 229 321 251 q 343 207 340 222 q 483 194 422 194 q 618 215 564 194 l 618 217 q 599 240 599 225 q 629 275 599 260 q 649 279 640 279 q 686 265 668 279 l 696 256 q 739 394 739 300 l 739 396 q 717 542 739 463 q 703 540 708 540 q 649 569 668 540 l 649 578 q 700 610 649 603 q 676 688 689 653 q 464 860 606 860 q 260 686 332 860 q 254 669 260 685 m 469 753 l 475 753 q 544 713 515 753 q 561 663 561 688 l 561 654 q 528 585 561 615 q 475 565 503 565 l 469 565 q 399 604 428 565 q 383 654 383 629 l 383 663 q 413 728 383 697 q 469 753 439 753 m 401 694 q 410 683 403 683 l 413 683 q 435 703 424 683 q 439 717 439 710 q 431 728 438 728 l 428 728 q 407 711 418 728 q 401 694 401 701 m 408 658 q 413 653 408 656 l 415 653 q 431 669 424 653 q 432 674 432 669 q 426 681 431 681 l 426 681 q 408 663 415 681 l 408 658 m 285 536 l 290 536 q 347 507 319 536 q 390 488 367 488 q 449 508 411 488 q 488 518 471 518 q 540 499 513 518 q 563 493 551 493 l 567 493 q 624 518 588 493 q 649 525 639 525 q 715 467 693 525 q 722 431 722 447 l 722 425 q 697 365 722 389 q 681 354 686 356 q 626 393 663 354 q 601 406 614 406 q 556 389 582 406 q 490 356 511 356 l 486 356 q 422 386 454 356 q 392 399 407 399 q 344 372 372 399 q 304 354 324 354 l 300 354 q 226 397 261 354 q 211 442 211 419 q 231 513 211 476 q 261 533 238 525 q 285 536 274 536 m 513 492 q 519 464 515 471 l 519 464 q 529 475 519 465 l 531 479 l 531 482 q 513 492 529 482 l 513 492 m 431 478 l 431 476 q 444 464 431 469 q 444 465 444 465 q 451 482 444 469 q 451 483 451 482 q 450 488 451 488 q 431 478 433 478 m 468 326 l 469 326 q 518 297 499 326 q 528 271 528 283 q 522 250 528 261 l 522 250 q 500 286 508 250 q 472 307 492 307 q 443 281 450 307 q 443 275 443 278 q 450 260 443 260 l 456 258 q 476 271 476 261 l 476 272 q 471 276 476 276 q 464 265 467 276 q 460 265 461 265 q 453 278 453 272 l 453 279 q 469 290 453 289 l 474 290 q 497 269 497 288 q 475 243 497 256 q 457 238 467 238 l 454 238 q 428 260 436 238 q 426 275 426 268 q 450 322 428 314 q 468 326 458 326 z "},"d":{"ha":1136,"x_min":61,"x_max":1061,"o":"m 540 972 q 572 938 553 961 q 681 800 649 838 q 697 781 694 785 q 756 840 728 799 q 810 885 785 885 q 842 863 825 885 q 844 846 844 854 l 844 844 q 779 751 844 807 q 733 724 751 731 l 733 722 q 769 690 751 690 l 771 690 q 829 747 796 690 q 860 783 840 764 q 886 793 872 793 q 917 779 900 793 q 928 750 928 765 l 928 750 q 807 636 928 699 q 806 636 807 636 l 806 636 q 904 496 854 571 q 963 554 929 510 l 954 579 q 953 582 953 581 q 963 592 953 592 q 979 581 968 592 q 989 592 986 582 q 992 613 992 601 l 992 635 q 1000 657 993 653 q 1014 643 1007 657 q 1017 621 1015 635 q 1056 635 1049 635 q 1061 633 1061 635 q 1024 592 1061 613 q 1007 572 1011 581 q 1026 553 1010 565 q 1033 542 1031 549 q 1014 533 1022 533 q 989 542 1010 533 q 926 475 957 504 q 921 469 925 475 q 947 400 926 450 q 958 346 958 369 l 958 340 q 950 268 958 326 q 950 257 950 265 l 950 253 q 957 164 950 235 q 958 149 958 161 l 958 139 q 953 103 958 121 q 978 82 960 96 q 989 49 989 69 q 931 3 989 13 q 894 0 913 0 q 786 17 843 0 q 692 53 710 36 q 688 57 688 57 q 697 144 697 75 q 697 156 697 144 q 661 143 661 154 q 644 103 658 126 q 632 93 638 93 q 593 119 603 93 l 593 119 q 558 92 581 92 q 522 122 535 92 q 519 143 519 133 l 519 146 q 517 147 519 146 q 496 146 500 146 q 489 149 493 147 q 486 125 488 144 l 488 88 q 472 50 488 57 q 400 32 451 32 q 258 40 375 32 q 185 61 194 47 q 176 85 176 72 q 197 124 176 107 q 224 135 206 131 q 221 163 221 147 l 221 163 q 222 225 221 168 l 222 236 q 201 325 222 279 q 189 379 189 360 l 189 388 l 190 394 q 140 361 178 393 q 150 336 150 347 l 150 331 q 140 328 147 328 q 124 338 129 328 q 104 319 117 338 q 129 268 129 285 l 129 265 q 128 261 129 261 l 126 261 q 107 282 119 261 q 89 292 99 292 q 82 286 82 289 l 82 285 q 86 268 82 282 q 83 263 86 267 q 61 283 61 267 l 61 285 q 94 350 61 306 q 81 367 81 367 q 78 376 78 372 q 86 385 78 385 l 89 385 q 111 375 92 385 l 114 374 q 188 431 163 414 q 247 557 199 490 q 311 631 271 585 l 315 636 l 315 636 q 253 694 283 651 q 235 749 235 725 q 253 785 235 772 q 274 789 265 789 q 315 740 297 789 q 342 697 326 713 q 356 690 351 690 q 378 714 367 696 q 392 728 382 719 q 346 775 392 729 q 319 835 319 804 q 336 875 319 867 q 354 881 346 881 q 408 821 381 881 q 429 792 418 803 l 431 792 q 496 892 467 835 q 539 972 529 954 l 540 972 m 544 919 q 458 782 510 869 q 396 700 442 753 q 271 554 290 588 q 224 474 242 514 q 213 446 213 449 q 235 450 226 450 q 251 440 251 449 q 251 439 251 440 l 251 436 q 231 413 251 424 q 210 408 221 408 l 210 390 q 219 340 210 365 q 338 318 235 340 q 475 301 388 308 q 575 296 522 297 q 938 319 654 296 l 938 328 q 908 433 938 381 q 900 454 900 453 q 881 447 883 447 q 869 454 871 447 q 867 463 868 454 l 867 464 q 881 486 867 476 q 639 810 818 589 q 546 919 581 881 l 544 919 m 710 749 l 710 749 q 781 785 738 751 q 819 844 819 821 q 810 860 819 857 q 749 793 794 860 q 710 749 732 771 m 339 832 q 403 753 339 799 q 407 753 406 753 l 407 753 q 379 819 394 790 q 350 856 360 856 l 350 856 q 339 832 343 856 m 783 660 l 785 658 l 788 658 q 838 682 801 658 q 904 743 904 718 l 904 746 q 888 768 904 761 l 885 768 q 835 719 868 768 q 793 667 815 692 q 783 660 793 667 m 254 738 q 283 686 254 717 q 326 665 307 665 l 328 665 q 339 665 332 665 l 339 667 q 308 694 321 667 q 290 747 303 707 q 272 763 282 763 l 271 763 q 254 746 258 763 l 254 738 m 558 607 l 560 607 q 636 567 607 607 q 649 525 649 544 q 610 457 649 483 q 560 442 585 442 q 482 483 513 442 q 469 524 469 503 l 469 526 q 515 597 469 569 q 558 607 538 607 m 479 524 q 519 461 479 485 q 558 451 539 451 l 561 451 q 628 486 601 451 q 639 522 639 504 l 639 526 q 603 588 639 561 q 558 599 582 599 q 489 560 515 599 q 479 524 479 543 m 563 553 q 590 533 582 553 q 592 525 592 529 q 569 500 592 508 l 563 499 l 561 499 q 532 521 540 499 q 532 526 532 524 l 532 529 l 532 529 q 543 525 538 525 l 543 525 q 558 542 557 525 q 556 551 558 547 q 563 553 557 553 m 783 449 l 785 449 q 797 442 797 446 q 779 378 797 415 q 769 368 774 372 l 769 368 l 769 371 q 764 399 769 382 l 764 399 q 700 364 732 376 q 536 331 618 331 q 386 363 457 331 q 382 351 383 361 l 379 350 q 363 360 372 350 q 354 379 354 368 l 354 383 q 360 403 357 403 q 367 406 361 406 q 399 386 372 406 q 428 375 404 381 q 539 360 481 360 q 708 404 628 360 q 764 439 738 417 q 783 449 775 449 m 546 146 l 546 143 q 553 121 546 136 q 567 133 560 121 q 569 143 569 140 l 551 146 l 546 146 m 617 143 l 611 143 q 622 119 617 124 l 624 118 q 633 135 624 119 q 636 144 636 139 l 636 146 q 617 143 619 143 m 199 85 q 335 65 243 65 q 401 67 350 65 l 404 68 l 404 68 q 300 96 388 68 q 251 103 269 103 l 246 103 q 199 85 217 103 m 792 56 q 832 42 799 50 q 904 29 871 29 q 965 56 949 29 q 933 67 951 67 l 929 67 q 874 58 918 67 q 807 56 874 57 q 792 56 807 56 z "},"e":{"ha":974,"x_min":60,"x_max":924,"o":"m 499 986 l 506 986 q 593 947 557 986 q 613 908 610 925 q 651 875 625 903 q 722 732 694 829 q 765 508 743 657 l 765 508 q 835 542 799 529 q 875 550 863 550 q 922 510 908 550 q 924 496 924 503 q 883 435 924 461 q 853 425 864 425 q 832 440 836 425 l 832 444 q 864 472 832 461 q 883 493 883 482 q 876 508 883 500 q 871 511 874 511 l 868 511 q 781 468 849 511 q 769 463 771 463 q 772 378 772 411 l 772 360 q 689 150 772 196 q 693 108 690 150 q 704 103 693 106 q 761 58 761 81 q 754 46 760 46 l 753 46 q 665 69 738 46 q 650 76 650 74 q 647 86 647 82 q 653 124 647 90 l 653 131 q 590 110 610 115 q 596 67 594 67 q 650 33 644 43 q 651 26 651 29 l 651 26 q 638 8 651 14 l 629 8 q 564 31 613 8 q 551 38 551 35 q 551 49 551 44 q 553 94 553 81 q 551 100 553 96 q 518 97 536 97 q 421 113 475 97 q 417 83 417 100 q 419 29 419 38 l 419 26 q 400 19 418 26 q 342 0 357 0 l 336 0 q 319 11 325 0 q 318 19 318 15 l 318 22 q 369 57 318 43 l 378 60 q 378 72 378 68 q 382 113 378 78 l 382 118 q 351 131 381 119 q 300 157 317 146 q 292 135 292 149 l 292 129 q 310 60 292 108 q 208 21 243 33 q 201 39 201 31 l 201 40 q 257 83 201 61 l 258 85 q 253 125 253 107 q 261 176 253 140 q 203 217 233 193 q 174 301 174 244 q 192 442 174 335 q 193 461 193 451 q 117 476 182 467 q 82 488 92 482 q 60 513 60 501 q 60 522 60 515 q 89 624 60 574 q 136 654 110 654 q 163 644 151 654 q 175 618 175 631 l 175 617 q 164 601 175 606 q 139 618 151 618 l 138 618 q 100 571 117 618 q 94 535 94 550 q 101 513 94 513 q 125 508 101 511 q 143 549 129 533 q 154 553 149 553 l 158 553 q 178 528 172 553 q 179 521 179 522 q 175 506 179 514 l 185 504 q 193 504 190 504 q 201 504 194 504 q 240 682 228 633 q 268 765 254 735 q 297 821 279 793 q 331 860 308 836 q 367 886 347 874 q 389 931 368 903 q 499 986 439 986 m 614 874 q 599 843 610 861 q 518 797 572 811 q 433 789 481 789 q 401 789 407 789 q 365 828 381 789 q 360 849 361 840 q 328 818 351 844 q 297 768 307 790 q 271 699 282 739 q 264 674 264 675 l 264 674 q 326 675 288 674 q 635 658 407 675 q 717 654 696 654 l 717 654 q 689 757 708 679 q 663 825 678 799 q 636 861 654 840 q 614 874 618 874 m 275 600 q 299 572 275 579 q 306 571 304 571 q 333 594 325 571 l 335 601 q 311 631 335 622 q 304 631 310 631 q 276 610 286 631 q 275 600 275 607 m 639 592 l 639 590 q 663 561 639 569 q 669 561 667 561 q 697 583 690 561 q 699 590 699 585 l 699 592 q 676 619 699 613 q 671 621 674 621 l 667 621 q 640 599 649 621 l 639 592 m 235 539 q 214 429 226 489 q 203 307 203 354 q 218 243 203 260 q 249 215 236 221 q 271 203 260 208 l 282 240 q 301 254 289 254 q 315 239 311 254 q 315 231 315 233 l 315 228 q 304 185 315 206 l 304 183 q 378 149 343 163 q 390 146 388 146 q 400 175 393 165 q 421 188 408 188 q 439 172 433 188 q 439 167 439 171 l 439 164 q 429 136 439 151 l 429 136 q 508 125 467 125 q 544 126 515 125 q 546 126 544 126 q 540 164 546 132 l 540 167 q 560 179 540 176 l 561 179 q 588 136 576 179 q 653 165 615 140 q 635 213 653 175 q 631 228 631 224 l 631 232 q 643 251 631 244 l 644 251 q 678 203 661 251 q 683 182 681 197 q 746 406 746 228 q 742 513 744 468 q 696 510 725 510 q 235 539 575 510 m 583 479 l 585 479 q 615 438 601 479 q 621 404 621 411 q 603 381 621 390 q 590 379 594 379 q 560 397 569 379 q 544 435 551 425 l 544 433 q 546 415 546 422 q 518 361 546 379 q 506 358 513 358 q 474 396 483 358 q 438 375 444 375 q 432 374 435 374 l 431 374 q 411 383 417 374 q 408 400 408 394 l 408 410 q 378 386 400 406 q 356 378 365 378 q 339 383 339 379 q 338 397 338 390 l 338 401 q 360 460 338 426 q 379 474 372 474 l 381 474 q 388 467 388 474 q 365 426 388 460 q 357 406 358 414 q 361 406 358 406 l 365 406 q 394 444 378 406 q 414 461 403 461 l 415 461 q 436 435 432 461 q 438 428 438 432 l 438 424 q 433 401 438 413 q 454 418 449 407 q 460 450 460 428 l 460 453 q 474 457 465 457 l 476 457 q 493 429 490 457 q 501 390 496 396 q 507 385 501 388 q 522 408 522 390 l 522 411 l 519 447 l 519 453 q 532 469 519 467 q 540 472 535 472 l 542 472 q 582 421 564 472 q 592 410 588 410 l 593 410 q 594 411 594 410 l 594 414 q 576 456 593 421 q 575 469 575 464 q 583 479 575 479 z "},"f":{"ha":1301,"x_min":82,"x_max":1221,"o":"m 1153 972 q 1211 931 1189 972 q 1221 893 1221 910 l 1221 886 q 1189 829 1221 849 q 1163 824 1174 824 q 1101 860 1128 824 q 953 815 1043 839 q 925 574 947 765 q 892 394 910 458 l 910 394 q 1082 307 1049 394 q 1094 240 1094 271 q 1085 197 1094 213 q 1075 247 1075 224 q 1065 290 1072 271 q 1008 351 1049 331 q 928 369 972 369 l 915 369 q 888 368 904 369 q 861 289 878 347 q 924 254 892 282 q 983 101 983 193 q 976 44 983 74 l 976 44 q 964 140 971 78 q 915 231 950 197 q 857 261 881 258 q 817 192 842 225 q 789 171 797 174 q 808 72 808 121 q 778 0 807 13 q 778 0 778 0 q 788 75 788 32 q 763 163 788 108 q 683 156 722 156 q 479 179 610 156 q 453 94 453 136 l 453 86 q 476 13 453 29 q 482 4 482 6 l 482 4 q 428 86 428 17 q 456 188 428 132 l 456 188 q 419 219 432 196 q 406 290 406 247 l 406 290 q 347 271 379 290 q 299 147 299 236 q 313 46 299 97 l 311 46 q 293 60 299 50 q 285 107 288 65 q 282 146 283 121 q 367 304 282 275 q 404 313 389 313 l 404 317 q 397 392 404 347 q 379 393 385 393 l 371 393 q 257 353 300 393 q 219 236 219 304 l 219 228 q 224 192 219 208 q 222 192 222 192 q 203 207 213 192 q 200 232 200 219 l 200 232 q 218 326 200 268 q 285 397 238 374 q 394 419 336 419 q 397 421 394 419 q 361 822 381 669 q 224 854 261 838 q 215 857 219 857 q 176 825 204 836 q 147 819 168 822 q 86 861 104 819 q 82 882 82 871 l 82 888 q 103 940 82 914 q 156 965 126 965 q 214 926 193 965 q 221 893 221 910 l 221 889 q 314 865 299 865 q 347 861 338 861 l 353 861 q 361 863 357 861 l 360 864 q 410 913 360 890 q 485 925 422 918 q 592 929 536 929 l 594 929 q 808 919 661 929 q 878 907 850 914 q 924 885 906 897 q 944 850 938 869 q 1039 869 965 850 q 1092 889 1065 879 l 1092 896 l 1092 899 q 1124 965 1092 951 q 1153 972 1139 972 m 1114 904 q 1139 854 1114 871 q 1161 850 1149 850 q 1201 883 1194 850 q 1203 892 1203 888 q 1167 946 1203 926 q 1151 949 1160 949 q 1117 922 1125 949 q 1114 904 1114 914 m 103 886 q 140 844 103 854 q 149 843 146 843 l 150 843 q 197 882 183 843 q 197 893 197 889 l 197 894 q 172 939 197 924 q 160 943 165 943 l 157 943 q 107 906 125 943 q 103 886 103 893 m 1161 921 q 1176 899 1176 917 q 1163 878 1176 882 l 1160 878 q 1146 899 1149 878 l 1146 900 q 1161 921 1146 918 m 154 914 l 156 914 q 169 897 165 914 l 169 892 q 156 872 167 872 q 140 894 140 875 q 154 914 140 911 m 389 864 q 444 850 438 858 q 451 835 451 843 q 444 824 451 824 q 401 818 414 818 q 386 819 393 819 q 431 317 407 643 q 454 318 436 318 q 468 308 468 318 l 468 307 q 464 297 468 300 l 463 297 q 443 297 454 297 q 432 294 438 297 q 432 283 432 288 l 432 276 q 458 217 432 233 q 468 215 464 215 l 474 215 q 506 243 494 243 l 507 243 q 515 238 515 243 l 515 236 q 499 203 515 232 q 499 201 499 203 q 678 181 621 181 q 740 188 711 181 l 740 188 q 722 210 740 190 q 717 224 718 217 q 724 236 717 231 q 767 197 744 236 q 771 194 769 194 q 811 226 789 194 q 828 267 826 256 l 826 267 q 813 265 819 267 q 776 279 776 265 q 786 294 776 288 q 797 297 793 297 l 800 297 q 838 290 804 297 q 893 510 867 371 q 914 654 903 558 q 924 810 924 769 l 924 810 q 903 806 914 806 q 882 822 882 808 l 882 824 q 910 849 882 843 l 915 849 q 857 881 903 868 q 626 904 764 904 l 621 904 q 418 885 481 904 q 389 864 400 876 l 389 864 m 640 804 l 642 804 q 649 790 649 800 l 649 788 q 640 774 649 776 q 632 788 635 774 q 640 804 633 804 m 694 801 q 701 788 701 800 l 701 786 q 694 771 701 774 l 693 771 q 688 788 688 775 q 694 801 689 801 m 518 751 l 546 751 q 868 729 693 751 q 876 700 876 715 l 876 694 q 843 617 876 665 q 799 579 817 586 q 681 551 749 551 q 510 613 579 551 q 460 722 460 660 q 464 750 461 750 q 518 751 481 751 m 536 728 l 536 725 l 536 724 q 546 692 536 715 l 546 692 q 574 724 564 701 q 575 728 575 728 l 575 728 q 550 726 556 726 q 536 728 546 726 m 603 724 q 628 681 611 690 l 632 678 q 650 711 632 678 q 651 721 651 719 l 650 722 l 646 722 q 610 724 642 722 l 603 724 m 681 718 q 692 682 681 710 q 703 668 694 675 q 736 711 736 701 q 738 717 738 711 l 692 719 l 682 719 q 681 718 681 719 m 763 708 q 776 678 765 699 q 794 708 794 693 l 794 710 q 790 708 792 708 q 765 710 772 710 q 763 708 763 710 m 590 521 q 738 510 619 510 l 739 508 q 722 496 735 500 q 667 486 699 486 l 657 486 q 589 508 601 488 l 588 514 q 590 521 588 518 z "},"g":{"ha":707,"x_min":67,"x_max":647,"o":"m 343 943 l 343 943 q 360 922 356 943 q 360 908 360 915 l 360 906 q 383 900 360 903 q 385 899 383 900 q 394 922 390 906 q 410 939 400 939 l 411 939 q 415 928 415 935 q 407 899 415 924 q 407 894 407 897 l 407 893 q 426 882 413 888 l 426 883 q 442 907 438 901 q 453 911 447 911 l 454 911 q 460 904 460 911 q 446 876 460 896 q 446 871 446 872 l 446 869 q 456 860 446 864 q 479 881 458 860 q 490 885 486 885 q 499 881 496 885 q 478 851 499 867 q 469 842 475 849 q 482 825 474 825 l 483 825 q 514 840 490 825 q 519 842 518 842 q 521 835 521 839 q 500 807 521 824 l 493 800 q 507 726 500 778 q 521 596 513 690 q 524 582 522 596 l 524 582 q 606 618 568 582 q 628 671 628 642 q 613 715 628 693 q 585 700 592 700 q 576 713 576 703 q 576 717 576 713 q 590 728 583 724 q 560 753 588 739 q 535 769 546 758 l 535 771 l 535 771 q 543 774 536 774 q 582 760 557 774 l 582 761 q 565 790 582 768 q 560 804 560 797 l 560 804 q 592 781 575 801 q 608 749 608 754 q 622 761 614 749 q 628 764 626 764 q 636 753 636 764 l 636 753 q 626 733 636 746 l 626 732 q 647 671 647 703 q 599 582 647 621 q 525 557 560 557 l 525 551 q 544 374 525 499 q 553 282 553 318 l 553 276 q 497 156 553 185 q 468 144 479 147 q 468 138 468 140 l 468 115 q 463 38 468 85 q 492 28 465 35 q 500 15 500 24 q 486 6 500 7 q 433 21 476 6 l 431 21 l 431 22 q 440 57 440 47 q 446 128 446 99 q 446 135 446 131 l 446 140 l 436 140 q 358 163 397 140 q 319 189 329 189 q 297 174 314 189 q 257 160 275 160 q 231 157 251 157 l 224 157 l 224 156 q 222 93 224 143 q 236 26 222 44 q 185 1 218 11 l 174 0 q 164 8 164 0 q 204 33 164 19 q 200 93 200 71 q 201 157 200 100 q 129 251 129 183 l 129 256 q 150 378 129 290 q 186 532 158 415 l 192 557 l 192 557 q 119 579 161 557 q 74 638 86 600 q 67 676 67 657 q 89 733 67 711 l 82 749 l 82 749 q 90 757 83 757 l 94 757 q 104 753 100 757 q 163 797 151 796 q 165 799 163 799 q 168 790 167 799 l 168 789 q 144 760 168 776 q 138 753 139 754 l 138 753 l 143 751 l 144 751 q 179 760 151 751 q 183 760 182 760 l 186 760 q 194 757 194 760 q 167 736 188 744 q 125 726 154 732 l 125 726 q 131 715 125 725 q 132 711 132 711 l 132 710 q 128 699 132 706 q 103 711 114 699 q 90 679 90 696 l 90 674 q 124 611 90 644 q 189 583 157 583 l 196 583 q 246 792 246 781 q 247 800 247 796 q 225 815 232 810 q 221 825 221 821 l 221 826 q 222 833 221 829 q 253 821 225 833 q 263 839 258 821 q 265 842 265 842 q 243 864 265 846 q 240 874 240 871 l 240 879 q 242 881 240 879 l 244 881 q 272 861 256 881 q 293 882 276 861 q 279 906 279 897 l 279 908 q 279 914 279 911 l 281 914 q 306 896 292 914 l 308 892 q 331 903 315 899 q 343 906 342 904 q 344 911 343 907 l 340 936 l 340 936 q 343 943 340 940 m 219 582 l 219 582 q 239 568 236 582 q 221 550 239 557 l 214 550 l 211 551 q 156 306 156 311 q 151 261 151 279 q 188 190 151 207 q 204 185 199 185 q 204 192 204 189 q 204 203 204 197 q 213 222 204 222 q 226 206 226 222 q 225 179 225 182 l 236 179 q 307 204 278 179 q 322 211 315 211 l 324 211 q 358 188 329 211 q 433 161 396 161 l 444 161 l 444 163 q 439 192 444 164 q 438 199 438 194 q 447 211 440 211 l 449 211 q 465 172 461 211 l 465 165 q 497 176 476 165 q 532 275 532 200 q 510 493 532 322 q 503 556 503 544 l 500 554 q 485 567 488 554 l 485 568 q 501 582 485 579 q 488 707 497 613 q 469 792 479 763 q 450 835 461 817 q 426 861 442 846 q 372 883 407 876 q 357 885 358 885 q 281 822 310 885 q 239 658 260 779 q 219 582 229 617 m 369 740 q 424 704 406 740 q 429 679 429 690 q 396 625 429 644 q 369 618 381 618 q 319 647 339 618 q 310 679 310 663 q 331 725 310 706 q 369 740 349 740 m 318 678 q 351 633 318 647 q 367 629 360 629 l 371 629 q 414 657 399 629 q 419 676 419 667 l 419 679 q 389 724 419 708 q 369 726 378 726 q 321 694 338 726 q 318 678 318 685 m 369 694 q 386 678 386 692 q 374 663 386 667 q 369 663 372 663 q 354 674 358 663 q 354 678 354 676 q 369 694 356 694 m 364 683 l 364 682 q 367 681 364 681 q 372 686 372 682 l 371 688 l 371 688 q 364 683 365 688 m 347 574 l 357 574 q 449 508 426 574 q 460 417 460 465 q 435 335 460 367 q 371 314 414 314 q 269 343 318 314 q 244 374 250 358 q 242 396 242 385 q 274 531 242 439 q 304 564 286 556 q 347 574 322 574 m 326 528 q 338 511 326 511 q 349 550 349 522 q 340 553 344 553 q 326 532 329 553 l 326 528 m 372 375 q 378 338 372 363 q 399 340 378 340 l 403 343 q 393 390 403 388 q 388 393 390 393 l 386 393 q 372 375 372 393 m 328 351 l 328 346 l 328 342 q 350 339 347 339 l 354 339 q 356 353 356 340 q 347 375 356 375 q 346 376 347 376 q 331 367 335 376 q 328 351 328 361 z "},"h":{"ha":960,"x_min":74,"x_max":894,"o":"m 508 975 q 518 954 517 975 l 518 944 q 538 943 529 943 l 547 943 q 553 967 550 950 q 556 971 554 971 l 560 971 q 571 958 568 971 l 571 956 q 567 940 571 950 l 567 940 q 589 931 574 940 l 593 931 l 594 931 q 615 951 608 931 q 624 957 619 957 l 626 957 q 635 950 635 956 l 635 947 q 621 924 635 939 q 679 882 653 906 q 699 858 696 865 q 735 883 708 863 q 750 889 744 889 l 753 889 q 765 885 760 889 q 735 813 765 856 l 743 813 l 781 815 q 800 804 800 815 l 800 803 q 769 774 800 792 q 746 750 746 757 q 775 549 775 615 q 775 531 775 535 l 774 531 q 656 536 739 533 q 706 503 683 521 q 719 489 718 492 q 818 508 786 508 l 822 508 q 883 485 860 508 q 894 450 894 469 q 872 392 894 421 q 818 361 857 374 q 789 354 797 356 l 789 353 q 807 335 789 351 q 811 326 811 329 l 811 324 q 801 317 811 318 q 764 344 792 317 q 757 347 763 344 q 711 214 735 256 q 688 179 701 196 q 717 131 710 163 q 719 113 719 121 l 719 107 q 710 71 719 86 l 710 69 q 746 63 746 65 q 750 58 749 60 l 750 58 q 738 44 742 51 q 728 44 732 44 l 701 44 q 682 43 692 44 q 679 56 679 50 q 696 92 679 65 q 701 114 701 104 l 701 115 q 674 158 701 142 q 642 135 668 158 q 628 126 635 128 l 628 125 q 654 49 654 85 l 654 35 q 692 21 654 29 q 704 8 704 14 q 683 1 697 1 q 633 15 667 1 q 633 24 633 21 l 633 32 q 606 114 633 93 q 565 101 579 101 q 517 90 538 97 q 457 85 493 85 q 372 99 406 85 q 364 100 369 99 q 340 60 350 100 q 340 47 340 54 l 340 43 q 346 19 340 31 q 342 11 344 19 q 249 0 294 0 q 249 1 249 0 q 278 24 249 19 q 319 31 314 26 q 318 44 318 38 q 335 104 318 64 l 335 106 q 269 147 310 115 q 233 111 233 129 l 233 107 q 253 74 233 97 q 256 60 256 65 q 254 53 256 56 q 239 54 247 54 l 236 54 q 172 47 215 54 l 172 49 l 172 49 q 176 69 172 57 q 215 75 201 75 l 221 75 q 215 104 215 90 l 215 106 q 247 167 215 139 q 192 250 210 208 q 172 310 183 268 l 169 322 q 140 301 165 322 q 132 299 133 299 q 125 310 126 299 q 144 329 125 318 q 156 343 153 336 l 154 343 q 85 376 108 343 q 74 418 74 397 q 115 503 74 465 q 183 526 146 526 q 238 517 203 526 q 246 515 242 515 l 247 515 q 258 525 250 515 l 289 550 q 196 557 275 554 q 189 567 190 557 q 185 601 185 579 q 199 697 185 636 q 208 729 208 722 q 194 746 208 733 q 156 803 156 776 q 160 810 156 810 l 160 810 q 214 800 172 810 l 219 799 q 199 844 219 806 q 193 865 193 856 l 193 867 q 196 879 193 875 q 240 861 218 872 l 268 846 q 310 883 292 871 q 358 910 336 900 l 390 921 q 386 936 386 932 l 386 942 q 389 949 386 944 q 410 926 400 949 l 440 935 l 444 935 q 438 960 444 938 l 438 964 q 446 969 438 969 q 457 957 454 969 q 464 939 461 943 q 486 943 475 943 l 494 943 q 494 949 494 943 q 504 972 494 963 q 508 975 507 975 m 518 924 l 518 917 q 511 903 518 904 l 508 903 q 494 917 501 903 q 493 922 493 921 q 489 922 490 922 q 468 921 486 922 q 469 908 469 913 q 461 897 469 897 q 450 911 450 897 q 449 917 450 911 q 415 907 444 917 q 421 889 415 906 l 421 886 q 411 879 419 879 q 396 900 403 879 l 394 900 q 281 824 321 876 q 247 772 261 800 q 218 685 232 742 q 204 579 204 613 q 271 572 226 572 q 321 565 303 572 q 329 556 329 558 q 239 472 290 540 q 192 346 192 403 q 196 311 192 328 q 519 303 263 306 q 719 300 582 303 q 735 378 735 335 q 708 463 735 435 q 689 450 700 450 l 686 450 q 676 460 679 450 q 697 476 676 471 l 697 478 q 661 513 678 500 q 619 547 631 535 q 618 550 618 550 l 618 550 q 657 554 618 553 l 669 554 q 754 549 693 554 q 718 769 738 713 q 674 858 700 826 q 607 904 647 892 q 592 885 603 900 q 588 881 588 881 q 576 890 576 883 l 576 892 q 588 914 576 897 q 563 921 565 921 q 551 897 561 897 q 542 914 542 901 l 542 922 l 540 922 q 519 924 538 922 l 518 924 m 710 842 q 719 828 714 828 q 721 826 719 826 q 738 854 721 832 q 739 861 739 858 q 738 864 739 864 q 710 843 725 853 l 710 842 m 221 846 q 239 810 221 844 q 239 807 239 807 q 256 829 250 813 q 221 846 243 839 m 740 794 l 736 794 l 733 794 q 740 772 736 772 q 760 792 740 775 l 763 796 l 761 796 q 740 794 747 794 m 186 786 q 214 756 193 772 q 217 753 215 756 q 225 778 225 771 l 225 778 q 186 786 207 781 m 350 775 l 354 775 q 378 757 369 775 q 379 749 379 754 q 358 722 379 729 l 353 722 q 326 743 333 722 l 325 749 q 344 774 325 765 q 350 775 349 775 m 597 775 l 600 775 q 625 756 617 775 q 625 750 625 751 l 625 746 q 607 722 625 731 q 599 722 601 722 q 572 743 579 722 q 572 750 572 747 q 592 774 572 767 q 597 775 594 775 m 333 754 l 333 751 q 344 740 336 740 l 347 740 q 360 751 360 743 l 360 754 q 346 765 360 764 q 333 754 333 764 m 581 753 q 592 740 583 740 l 594 740 q 606 751 606 743 l 606 754 q 593 765 603 765 q 581 753 582 765 m 411 640 q 446 628 421 640 q 461 624 453 625 q 507 638 476 624 q 515 640 514 640 q 543 624 535 640 q 544 610 544 617 l 544 610 q 485 558 544 571 q 460 557 471 557 q 385 585 410 557 q 378 606 378 597 l 378 610 q 397 638 378 629 q 411 640 403 640 m 92 421 q 132 367 92 379 q 161 361 149 361 l 169 361 q 189 426 169 375 q 224 489 201 458 q 229 497 224 490 q 188 507 208 507 q 107 467 139 507 q 92 421 92 443 m 732 471 q 757 400 749 444 q 760 371 758 381 q 843 394 800 371 q 875 444 875 418 l 875 449 q 847 486 875 478 q 822 489 835 489 l 814 489 q 732 471 776 489 z "},"i":{"ha":1142,"x_min":64,"x_max":1094,"o":"m 708 976 l 708 976 q 717 963 715 976 q 693 919 717 951 q 686 904 688 913 q 699 883 686 900 q 700 876 700 876 q 742 922 717 885 q 763 942 756 940 q 779 926 779 935 q 724 865 779 908 q 713 853 714 854 q 749 704 729 817 q 785 725 767 725 l 788 725 q 831 663 818 725 q 836 613 831 614 q 851 604 840 604 q 889 664 875 604 q 906 706 897 694 q 932 717 917 717 q 978 632 967 717 q 982 621 979 621 q 992 619 990 619 q 1014 633 1008 619 q 1019 683 1017 633 l 1019 683 q 1033 672 1029 681 q 1038 656 1038 663 q 1064 669 1043 657 q 1081 674 1074 674 l 1083 674 q 1094 672 1088 674 l 1094 671 q 1058 643 1094 657 q 1054 639 1054 640 q 1074 622 1056 635 q 1079 610 1079 615 q 1069 606 1074 606 l 1068 606 q 1047 613 1064 606 q 1042 614 1046 614 l 1042 614 q 1001 599 1032 614 q 983 596 990 596 q 953 624 963 596 q 949 672 951 635 q 933 689 944 689 l 932 689 q 900 621 914 689 q 882 592 896 606 q 851 582 867 582 q 810 613 822 582 q 806 676 807 617 q 786 699 801 699 l 783 699 q 757 674 772 699 q 769 606 757 663 q 851 453 789 529 q 915 361 907 386 q 925 318 925 339 q 874 210 925 268 l 864 200 q 899 119 892 139 q 910 71 910 88 q 892 38 910 46 l 890 38 q 814 158 853 38 q 811 169 814 160 q 735 143 789 160 q 742 78 742 117 q 721 3 742 17 q 715 1 717 1 l 713 1 q 683 22 699 1 q 671 104 671 46 q 668 131 669 124 q 567 126 614 126 q 472 128 553 126 q 458 101 464 115 q 426 22 439 40 q 392 0 413 0 q 368 26 368 0 l 368 28 q 401 132 368 58 q 317 160 374 140 q 306 163 315 160 q 276 121 292 156 q 233 44 251 57 q 211 36 224 36 q 189 50 196 36 q 186 64 186 57 q 233 181 186 103 q 238 188 233 182 q 208 215 228 193 q 182 300 182 251 q 231 433 182 368 q 278 506 264 482 q 324 601 307 554 q 346 693 336 635 l 347 699 q 329 700 339 700 l 326 700 q 282 679 293 699 q 279 668 279 672 q 294 632 279 660 q 296 618 296 622 q 290 604 296 607 q 272 601 286 601 q 226 604 235 604 q 200 594 208 604 q 214 550 200 585 q 217 529 215 542 q 210 518 217 518 q 179 524 185 524 l 174 524 q 150 518 163 524 q 169 489 150 515 q 174 475 174 481 l 174 475 q 167 461 174 467 l 167 461 q 144 492 150 483 l 135 499 l 135 499 q 128 482 128 492 q 131 468 129 476 l 129 468 q 110 485 115 468 q 108 497 108 489 q 108 500 108 499 q 78 485 85 494 q 75 481 75 482 l 74 481 q 64 496 64 489 q 117 524 64 508 q 175 542 154 542 l 178 542 q 193 540 183 542 l 193 542 q 182 576 193 554 q 179 592 179 583 q 224 626 179 626 q 264 625 236 626 l 275 625 q 263 665 263 646 q 297 717 263 700 q 326 722 311 722 q 346 721 336 722 q 361 804 353 743 q 371 838 361 806 l 371 842 q 340 892 371 857 q 331 913 331 904 q 343 926 333 926 q 372 885 354 926 q 382 871 378 875 q 406 899 399 892 q 411 903 411 903 q 394 938 408 913 q 392 954 392 947 q 399 969 392 964 l 404 969 q 422 940 419 969 q 428 922 425 926 q 550 958 476 958 q 665 921 624 958 q 688 954 671 926 q 708 976 701 976 m 442 897 q 450 874 450 879 l 450 872 q 442 863 449 863 q 426 881 432 863 q 403 851 415 876 l 403 851 q 413 835 413 846 l 413 832 q 406 824 413 824 q 390 828 393 828 l 389 828 q 376 742 382 803 q 364 653 371 675 q 340 575 353 606 q 297 485 321 522 q 229 367 246 406 q 208 289 208 322 q 249 214 208 243 q 268 219 258 219 l 271 219 q 308 193 297 219 q 313 185 308 185 q 414 158 382 158 q 431 181 414 174 q 439 181 435 181 l 440 181 q 471 165 458 181 q 474 151 474 158 l 475 151 q 564 150 524 151 q 665 160 621 150 q 665 169 665 168 q 689 203 665 194 l 697 204 q 724 182 717 204 q 726 169 725 176 q 800 192 747 174 q 817 225 804 214 q 840 236 828 236 q 856 232 849 235 q 899 321 899 279 q 868 385 899 351 q 831 431 868 386 q 739 619 757 526 q 710 779 719 731 q 693 832 700 815 l 690 833 l 689 833 q 676 825 681 825 q 663 839 663 825 l 663 839 q 671 850 663 850 q 679 858 679 854 q 664 878 671 878 q 646 863 656 863 l 643 863 q 633 878 633 865 q 647 899 633 890 l 647 900 q 540 935 606 935 q 442 897 475 935 m 551 824 l 557 824 q 621 785 601 824 q 628 756 628 771 q 574 686 628 704 q 543 681 557 681 q 476 717 497 681 q 469 746 469 732 l 469 747 q 519 818 469 800 q 551 824 536 824 m 492 774 q 500 760 492 767 q 497 754 497 757 q 508 746 497 747 l 511 746 q 521 753 521 747 l 521 754 q 518 760 521 757 l 518 760 q 528 774 528 765 q 511 788 528 785 l 508 788 q 492 774 492 785 m 551 644 q 618 594 600 644 q 622 569 622 582 q 594 507 622 531 q 528 483 564 483 l 526 483 q 456 542 474 483 q 454 556 454 551 l 454 564 q 483 622 454 594 q 551 644 510 644 m 486 593 l 486 590 q 494 579 486 585 q 493 574 493 576 l 493 572 q 503 564 494 564 l 503 564 q 515 574 515 564 q 513 578 513 578 q 522 590 522 583 l 522 592 q 504 606 519 606 l 503 606 q 486 593 486 604 m 710 379 q 719 371 719 378 q 710 361 719 363 q 700 371 700 363 l 700 371 q 710 379 700 378 m 378 364 l 381 364 q 388 356 386 364 l 388 354 q 379 347 388 349 l 378 347 q 368 356 368 349 q 378 364 368 363 m 269 361 l 271 361 q 279 351 279 361 q 271 344 279 346 l 268 344 q 261 353 263 344 l 261 353 q 269 361 263 361 m 849 353 q 858 344 858 350 q 849 335 858 336 l 849 335 q 839 344 839 336 q 849 353 839 351 m 757 321 q 765 313 765 319 q 757 303 765 306 q 747 311 747 306 l 747 314 q 757 321 747 319 m 328 310 l 329 310 q 339 300 339 307 q 329 292 338 292 l 328 292 q 319 300 319 293 q 328 310 321 310 m 642 307 l 643 307 q 661 292 656 307 q 664 276 664 286 l 664 274 q 644 231 664 247 q 631 226 638 226 l 629 226 q 603 236 617 226 q 590 213 601 226 q 546 196 569 196 l 539 196 q 494 218 511 196 q 489 233 489 228 q 467 225 475 225 q 440 254 447 225 q 439 264 439 258 l 439 267 q 458 307 439 293 l 463 307 q 464 303 464 306 q 457 272 464 300 q 456 263 456 267 q 463 247 456 253 q 494 274 478 247 l 494 275 q 507 258 501 271 q 525 221 517 225 q 540 215 531 215 q 563 221 550 215 q 574 253 574 228 q 579 275 574 275 q 583 275 579 275 q 608 260 593 275 q 626 251 618 251 q 642 263 642 254 l 642 264 q 631 294 642 271 q 631 299 631 297 l 631 300 q 642 307 631 307 m 817 293 q 825 285 825 292 q 817 275 825 276 q 807 285 807 276 q 817 293 807 292 m 256 286 q 264 276 263 286 l 264 276 q 253 268 264 269 q 244 278 246 268 q 256 286 244 285 m 700 275 q 707 265 706 275 q 697 257 707 258 q 689 265 690 257 l 689 267 q 700 275 689 274 m 375 268 l 376 268 q 385 260 385 267 q 376 250 385 253 q 367 260 367 253 q 375 268 368 268 z "},"j":{"ha":963,"x_min":71,"x_max":896,"o":"m 544 975 q 621 935 592 975 q 636 888 636 910 q 638 888 638 888 q 678 908 656 908 l 679 908 q 726 878 706 908 q 736 840 736 860 q 717 794 736 815 q 749 778 731 794 q 768 724 768 753 q 735 671 768 685 q 724 669 724 669 q 740 589 738 608 q 744 549 744 560 q 769 546 761 546 l 775 546 l 833 549 l 833 549 q 808 599 833 551 l 808 600 l 808 600 q 843 576 828 594 q 860 533 860 554 l 860 528 q 819 521 858 522 l 782 521 q 751 519 761 521 l 751 510 q 757 463 751 504 q 757 453 757 457 q 757 451 757 453 l 760 451 q 851 439 783 451 q 860 438 854 439 q 864 450 864 443 l 864 453 q 849 493 864 463 l 850 493 q 893 439 881 476 q 896 426 896 432 l 896 425 q 892 415 896 415 q 760 428 864 415 q 763 319 763 347 q 733 167 763 218 q 753 143 736 154 q 778 111 778 124 q 750 76 778 97 q 736 49 736 61 l 736 47 q 746 44 738 44 l 769 44 q 790 36 790 44 l 790 33 q 778 22 790 25 q 756 17 768 17 l 714 21 l 710 21 q 706 36 706 28 l 706 40 q 733 86 706 56 q 747 110 744 100 q 721 132 738 113 q 711 140 714 140 q 693 128 708 140 q 663 115 685 122 q 596 101 647 108 q 474 94 511 94 q 301 136 400 94 q 276 150 289 143 q 246 115 246 121 l 246 111 q 278 68 246 101 q 292 36 292 49 l 292 36 q 225 0 242 0 q 213 14 215 0 l 213 14 q 239 36 213 25 q 256 50 247 42 l 256 50 q 211 100 244 67 q 206 106 207 103 q 243 156 211 121 q 256 172 256 171 q 224 242 236 201 q 207 414 207 294 l 207 422 l 207 422 q 128 397 186 421 q 83 379 85 379 l 82 379 q 71 419 71 392 l 71 422 q 75 456 71 440 l 75 456 q 97 411 93 431 q 207 449 176 438 q 207 458 207 456 l 207 461 q 211 517 207 469 l 211 526 q 82 519 114 526 q 76 536 76 528 l 76 540 q 101 589 76 565 q 122 597 113 597 l 122 596 q 104 550 104 575 q 121 550 113 550 l 189 551 q 210 550 200 551 q 225 640 215 571 l 231 664 l 229 664 q 197 679 219 671 q 174 701 181 686 q 167 728 167 717 q 194 775 167 760 q 211 779 207 779 l 211 779 q 192 836 192 807 q 224 903 192 878 q 254 913 239 913 q 296 896 274 913 q 321 949 296 926 q 389 974 350 974 l 389 974 q 464 932 440 974 q 465 926 465 926 q 515 969 482 957 q 544 975 533 975 m 486 890 l 486 881 q 513 874 486 878 q 540 869 526 871 q 543 893 543 885 l 543 897 q 543 910 543 904 q 554 913 547 913 q 567 901 563 913 q 568 893 568 897 l 568 886 q 564 863 568 876 q 608 846 592 853 q 611 868 611 857 l 611 874 q 588 940 611 910 q 549 954 574 954 q 492 915 510 954 q 486 890 486 901 m 321 893 l 321 889 q 324 872 321 872 l 326 872 q 381 879 342 872 l 381 879 q 374 921 381 883 l 374 922 q 388 926 381 926 q 404 888 401 926 l 404 885 l 406 885 l 456 882 q 456 882 456 882 l 456 886 q 408 946 456 929 q 386 950 400 949 q 325 915 343 950 q 321 893 321 903 m 214 849 q 238 792 214 819 q 247 785 242 788 q 258 822 250 803 q 236 850 236 840 l 236 853 q 251 863 236 861 q 265 850 254 863 q 272 846 269 846 l 274 846 q 292 861 283 861 l 296 861 q 271 883 292 874 q 247 889 257 889 q 215 864 222 889 q 214 849 214 856 m 635 832 l 636 832 q 646 826 640 832 q 647 825 646 825 l 649 825 q 651 835 649 825 q 668 846 660 846 l 669 846 q 683 835 683 844 l 683 832 q 665 813 683 822 l 665 813 q 679 799 672 799 l 681 799 q 703 821 692 799 q 710 846 710 835 l 710 853 q 694 882 710 871 q 685 883 690 883 q 646 860 665 883 q 635 832 635 842 m 231 456 q 243 264 231 308 q 260 214 250 232 l 274 193 q 714 186 508 190 q 719 186 717 186 q 739 361 739 253 q 726 567 739 442 q 700 693 714 642 q 669 765 683 743 q 583 835 649 810 q 511 856 556 846 q 440 863 465 863 q 328 846 389 863 q 290 825 303 839 q 274 790 281 811 q 238 544 260 744 q 231 456 231 475 m 468 781 q 593 713 550 781 q 625 582 625 661 q 621 543 625 543 q 532 542 549 542 l 525 542 q 356 549 356 546 q 339 557 339 551 q 335 588 335 565 q 364 726 335 688 q 468 781 399 781 m 692 768 l 692 768 q 704 746 692 764 q 706 740 706 740 q 726 726 726 740 q 713 717 726 717 q 717 697 713 711 l 717 696 q 739 707 728 696 q 744 725 744 715 l 744 725 q 719 767 744 750 q 703 771 710 771 q 692 768 696 771 m 190 725 l 190 722 q 218 688 190 696 q 229 688 225 688 l 233 688 q 238 707 238 701 l 238 707 q 229 707 236 707 q 208 719 214 707 q 207 725 207 724 q 224 731 211 731 q 236 731 231 731 l 240 731 l 243 731 l 242 732 q 244 753 242 735 l 244 754 q 238 758 244 758 q 226 758 238 758 q 192 733 201 758 q 190 725 190 728 m 356 606 l 356 596 q 357 563 356 585 q 467 553 399 553 l 479 553 q 604 554 489 553 l 604 556 q 606 585 606 572 l 606 593 q 567 715 606 665 q 476 756 531 756 l 472 756 q 368 682 397 756 q 356 606 356 647 m 476 681 q 501 656 499 681 q 483 628 501 636 l 478 626 q 453 649 460 626 q 451 657 451 653 q 476 681 454 681 m 572 478 q 603 442 586 478 q 610 399 610 421 q 576 317 610 349 q 504 292 546 292 l 500 292 q 400 329 446 292 q 369 393 369 358 l 369 397 q 400 435 369 435 l 403 435 q 461 428 413 435 q 476 426 475 426 q 540 454 513 426 q 572 478 563 478 z "},"k":{"ha":1021,"x_min":69,"x_max":951,"o":"m 419 967 l 422 967 q 460 942 446 967 q 467 914 467 929 l 467 911 q 618 899 590 906 q 632 897 621 899 l 632 900 q 663 943 632 929 q 676 946 672 946 q 707 921 699 946 q 708 910 708 914 l 708 910 q 739 925 722 925 l 742 925 q 768 900 763 925 q 768 890 768 896 l 768 886 q 786 893 778 893 q 819 863 807 893 q 821 846 821 853 l 821 844 q 799 799 821 828 q 788 763 788 779 l 788 747 q 800 597 788 717 l 803 563 q 860 576 828 576 q 942 542 915 576 q 951 513 951 526 q 949 496 950 504 l 949 496 q 921 539 940 524 q 869 556 897 556 q 801 533 838 556 l 801 531 q 807 488 801 526 l 807 482 q 807 478 807 479 q 813 479 808 478 q 906 444 864 479 q 928 406 928 424 l 928 406 q 918 392 928 396 l 917 392 q 878 440 907 422 q 821 457 850 457 l 811 457 q 811 444 811 456 q 815 315 811 436 l 815 306 q 824 285 824 299 q 818 226 818 233 q 788 153 818 176 q 799 97 799 111 l 799 90 q 786 51 799 72 l 785 51 q 788 71 788 61 l 788 75 q 772 143 788 107 l 771 143 q 729 132 751 132 l 729 132 l 729 132 q 743 58 743 86 q 728 19 743 29 l 728 19 q 729 36 729 29 l 729 40 q 711 132 729 71 l 650 132 q 656 69 656 94 q 640 3 656 21 l 639 3 q 642 54 642 29 l 642 54 q 631 132 642 103 l 569 132 q 574 51 574 69 q 564 10 574 13 q 563 8 564 8 q 561 10 563 10 q 564 29 563 14 q 551 122 564 51 l 550 132 l 486 132 l 486 132 q 474 14 474 46 q 474 0 474 10 l 474 0 q 458 47 458 18 q 468 126 458 58 q 468 132 468 128 l 393 132 q 379 3 379 46 l 378 1 q 368 46 368 14 q 376 132 368 72 l 314 132 q 308 101 311 132 q 308 75 308 86 q 311 21 308 56 l 311 21 q 299 36 304 24 q 293 69 293 51 l 293 79 q 297 132 293 100 l 297 132 q 254 144 275 132 q 243 58 249 117 q 240 53 242 53 l 240 53 q 233 82 233 65 l 233 90 q 242 153 233 111 q 218 182 222 171 q 208 238 208 199 q 200 288 200 281 l 200 292 q 206 306 200 299 l 204 400 q 206 439 204 419 l 197 439 q 99 474 142 439 q 69 529 69 499 q 83 571 69 549 l 83 571 l 83 561 q 122 492 83 525 q 192 464 158 464 l 196 464 q 210 467 210 465 l 210 476 q 208 514 210 496 q 211 547 210 536 q 182 560 204 549 q 149 589 167 567 q 129 635 129 614 l 129 640 q 143 676 129 660 l 144 676 q 156 631 150 649 q 196 581 171 594 q 211 576 201 579 q 253 810 231 751 q 263 838 253 810 q 247 890 247 881 q 246 897 247 896 q 256 926 246 913 q 275 933 265 933 l 276 933 q 311 917 294 933 q 338 953 311 940 q 349 954 344 954 l 353 954 q 383 936 371 954 l 383 936 q 419 967 394 967 m 397 911 q 399 913 399 911 q 432 911 421 911 l 433 911 q 447 914 439 911 l 447 922 q 433 946 447 940 l 426 946 q 406 936 413 946 q 397 913 401 929 l 397 911 m 331 911 l 331 908 q 332 899 331 903 q 375 907 335 899 l 375 910 q 356 929 375 925 l 351 929 q 331 911 331 928 m 651 899 l 651 897 q 676 889 654 896 q 692 888 682 888 q 694 903 694 896 q 675 924 692 924 q 658 915 665 924 q 651 899 651 907 m 264 892 q 275 867 264 875 l 275 867 q 303 886 296 881 q 308 888 306 888 q 281 910 300 910 q 264 896 264 908 l 264 892 m 718 881 q 744 868 738 868 q 753 896 753 886 q 742 908 751 908 l 740 908 q 718 881 728 908 m 235 574 q 251 568 251 571 q 257 556 254 568 q 243 547 257 547 l 232 547 q 229 474 231 506 l 231 474 q 243 478 238 478 q 257 463 254 478 q 229 450 257 453 q 228 450 229 450 l 228 433 l 225 346 q 228 311 225 326 q 794 311 638 311 l 794 335 q 788 449 794 375 l 764 446 l 760 446 q 753 454 753 446 l 753 457 q 776 468 753 468 q 785 471 776 469 l 785 474 q 782 518 785 483 l 782 518 q 758 515 763 515 q 749 522 749 517 q 779 544 749 536 l 781 546 q 781 558 781 553 q 768 701 781 597 q 764 790 765 719 q 758 831 761 818 q 728 857 751 844 q 678 872 704 867 q 563 890 635 882 q 488 896 514 896 q 363 885 390 889 q 318 872 335 879 q 293 854 297 863 q 260 754 278 836 q 235 574 235 629 m 764 851 q 776 831 764 849 q 781 817 781 824 l 781 814 l 781 814 q 794 824 786 814 q 800 842 800 831 q 783 868 797 868 q 764 851 774 868 m 518 842 q 526 829 526 842 q 528 818 528 825 l 528 814 l 532 814 q 565 807 553 814 q 571 831 567 811 q 582 838 576 838 l 586 838 q 589 832 589 836 l 589 829 q 582 801 589 824 q 613 781 589 796 q 628 807 618 785 q 636 811 632 811 q 643 803 643 810 l 643 801 q 629 768 643 793 q 654 692 654 728 l 654 689 q 622 617 654 656 q 540 581 588 581 l 533 581 q 446 601 492 581 q 400 653 414 618 q 394 690 394 671 q 436 785 394 746 q 461 799 447 793 q 457 817 457 814 q 464 828 457 824 l 464 828 q 479 808 474 828 q 481 807 481 808 q 507 810 497 808 l 507 814 q 518 842 507 842 m 414 690 l 414 683 q 469 614 414 635 q 532 601 500 601 l 532 601 q 626 658 603 601 q 633 696 633 678 l 633 697 q 611 760 633 733 q 524 789 574 789 l 521 789 q 453 774 482 789 q 426 740 433 758 q 414 690 414 714 m 529 717 q 568 688 557 717 q 571 675 571 681 l 571 674 q 540 635 571 646 q 529 633 533 633 q 493 657 506 633 q 489 675 489 665 q 517 714 489 701 q 529 717 524 717 m 503 685 q 510 674 503 675 l 510 674 q 535 688 522 674 l 536 692 q 521 703 536 699 l 519 703 q 503 685 506 703 m 388 550 q 413 522 397 550 q 439 500 424 508 q 526 476 481 476 l 536 476 q 625 506 589 476 q 642 528 639 519 q 654 549 644 549 l 656 549 q 671 519 671 549 q 663 471 671 496 l 663 471 q 654 483 654 475 q 653 504 654 483 q 600 467 621 475 q 593 464 599 465 q 597 447 597 456 l 597 444 q 574 406 597 419 q 558 400 565 400 l 556 400 q 521 415 539 400 q 494 404 510 404 l 493 404 q 456 435 469 404 q 453 456 453 447 q 454 468 453 464 q 396 508 428 479 q 388 518 396 510 q 382 496 385 518 q 378 492 379 492 q 368 513 368 494 l 368 515 q 382 550 368 538 q 388 550 385 550 m 475 460 l 475 451 q 485 426 475 426 q 497 425 488 425 l 501 425 q 515 454 515 425 q 479 460 514 454 l 478 460 l 475 460 m 536 446 q 550 418 536 422 q 560 418 553 418 q 576 439 576 418 q 571 456 576 456 l 564 456 q 536 451 558 456 q 536 446 536 449 z "},"l":{"ha":1103,"x_min":56,"x_max":1068,"o":"m 572 981 l 576 981 q 618 957 601 981 q 625 933 625 946 q 610 901 625 917 q 592 894 603 894 l 590 894 q 553 914 569 894 q 549 924 550 919 l 549 925 q 576 940 549 938 q 579 932 579 938 l 579 931 q 572 919 579 928 l 571 917 q 579 915 576 915 l 585 915 q 599 924 596 915 l 599 926 q 574 961 599 961 l 572 961 q 508 929 544 961 q 493 897 493 915 l 493 893 q 501 861 493 886 q 503 857 503 858 q 556 860 529 860 l 558 860 q 772 781 688 860 q 819 718 808 740 q 831 694 819 718 q 853 690 843 690 q 897 721 875 690 q 922 740 913 738 l 922 740 q 917 768 917 754 q 929 793 919 793 q 1000 799 969 799 q 1065 783 1051 799 q 1068 776 1068 778 q 1022 715 1068 760 q 965 674 976 674 l 963 674 q 942 704 951 674 q 929 717 935 717 q 901 686 922 717 q 863 663 883 663 q 844 667 856 663 l 844 665 q 860 551 860 607 q 854 474 860 521 q 863 471 858 471 l 868 471 q 904 486 875 471 q 919 489 913 489 q 926 485 926 489 l 926 481 q 913 464 926 471 q 925 456 913 464 q 928 446 928 450 l 928 443 q 913 438 922 438 q 871 447 907 438 q 860 449 865 449 l 857 449 q 849 449 854 449 q 833 375 842 406 q 729 217 801 265 q 678 192 707 203 q 658 186 676 192 q 676 38 676 65 l 676 38 q 744 50 694 38 q 768 53 756 53 l 774 53 q 781 29 781 43 l 781 29 q 754 24 781 28 q 656 0 692 6 q 649 71 654 4 q 633 179 639 153 q 628 179 629 179 l 617 179 q 536 178 608 179 q 465 186 497 178 q 461 146 461 167 q 468 35 461 136 l 468 28 q 465 0 467 0 q 382 3 458 3 q 356 10 358 6 l 356 13 q 390 33 356 33 q 429 32 421 32 l 429 32 q 440 32 432 32 q 440 58 440 47 l 438 160 l 438 192 q 342 231 382 208 q 272 281 306 250 q 221 357 233 321 q 200 463 200 410 l 197 463 q 168 453 185 463 q 165 451 165 453 q 156 408 165 433 q 154 408 154 408 q 142 435 142 414 l 142 438 l 140 438 q 118 431 132 438 q 108 429 115 429 q 103 446 103 438 q 108 451 103 451 q 168 479 125 460 q 201 490 181 486 q 221 599 201 532 q 258 685 236 646 q 268 703 258 685 l 268 703 q 231 696 251 696 q 161 729 182 696 q 158 742 158 739 l 157 742 q 122 714 150 736 q 104 706 111 706 l 100 706 q 71 735 86 706 q 56 822 56 772 q 61 868 56 850 q 149 835 96 865 q 200 778 200 799 l 200 776 q 176 756 200 761 q 189 731 176 746 q 214 722 200 722 l 219 722 q 289 735 233 722 q 313 757 290 735 q 388 814 358 799 q 443 839 410 826 q 486 851 467 847 q 475 890 475 871 q 519 963 475 931 q 572 981 547 981 m 79 835 q 82 806 82 825 l 81 803 q 111 826 100 810 q 85 835 108 826 q 81 835 83 835 l 79 835 m 524 831 q 551 803 524 821 q 561 783 561 793 q 551 782 560 782 q 521 807 536 782 q 494 826 508 826 q 390 783 450 821 q 321 728 360 764 q 314 721 321 726 q 331 694 314 718 l 332 689 q 324 679 332 683 q 307 696 319 679 q 300 699 304 697 q 263 632 276 667 q 238 549 250 604 q 231 501 231 510 q 250 488 244 496 l 251 481 q 242 472 249 472 q 228 465 228 468 q 250 363 228 415 q 275 319 258 343 q 435 222 322 258 l 435 228 q 449 246 436 246 l 450 246 q 464 226 463 246 l 464 226 q 464 217 464 224 q 551 207 503 207 q 624 210 579 207 q 622 228 622 221 q 631 244 622 240 l 632 244 q 649 222 644 244 q 650 215 649 221 q 744 265 707 231 q 811 396 789 310 q 822 447 818 418 l 817 447 l 811 447 q 790 464 796 447 l 790 465 q 801 474 790 474 l 804 474 q 819 474 813 474 l 824 474 q 829 497 826 474 q 832 533 832 514 l 832 547 q 815 656 832 600 l 813 656 q 792 639 806 656 q 786 636 788 636 l 785 636 q 774 658 775 650 l 774 660 q 806 685 792 676 q 735 781 789 739 q 565 833 661 833 q 524 831 546 833 m 89 775 l 89 772 q 90 765 89 771 q 135 803 100 774 l 140 810 l 140 810 q 132 811 135 811 l 132 811 q 93 788 110 811 q 89 775 89 781 m 153 796 q 124 774 143 783 q 101 750 101 760 q 111 738 101 744 l 111 738 q 158 776 153 776 l 169 782 q 153 796 169 789 m 972 772 q 988 732 975 760 l 989 728 q 1001 735 992 728 l 1003 735 q 990 772 1003 746 l 972 772 m 1011 771 l 1011 768 q 1017 757 1017 758 l 1017 756 q 1032 769 1028 756 l 1029 769 q 1017 772 1026 769 q 1011 771 1013 771 m 940 767 q 963 707 946 751 l 964 707 q 975 714 967 707 q 976 714 975 714 q 967 742 976 721 q 953 769 958 754 l 949 769 q 940 767 940 769 m 421 694 q 432 689 432 693 q 433 657 432 679 q 450 649 433 657 q 464 674 456 674 l 465 674 q 475 656 475 671 q 471 636 475 649 q 500 574 500 607 q 474 515 500 540 q 415 494 449 494 q 336 529 368 494 q 321 578 321 551 q 356 638 321 611 l 372 653 q 369 671 369 663 q 376 689 371 689 l 378 689 q 388 676 388 688 q 389 663 389 664 q 399 660 392 661 q 406 661 403 661 l 414 661 q 413 679 413 671 l 413 683 q 421 694 413 694 m 649 674 l 649 674 q 663 661 663 674 l 663 657 q 663 646 663 651 q 675 636 665 639 l 679 636 q 708 664 688 636 q 715 669 711 667 l 715 669 q 721 657 721 665 q 704 624 721 647 l 704 622 q 725 593 721 607 q 735 550 735 569 q 713 506 728 521 q 657 483 689 483 q 574 526 607 483 q 561 569 561 550 q 592 633 561 611 q 583 660 583 651 q 586 665 583 665 q 606 650 600 665 q 610 642 610 643 q 635 646 626 646 q 640 644 640 644 q 647 674 643 651 l 649 674 m 344 585 l 344 581 q 367 538 344 558 q 414 517 388 517 q 472 568 456 517 q 474 583 474 576 q 415 635 474 625 l 408 635 q 357 613 379 635 q 344 585 344 600 m 585 571 l 585 569 q 618 514 585 528 q 643 510 631 510 l 646 510 q 704 539 683 510 q 713 563 713 550 l 713 567 q 696 603 713 588 q 644 617 678 617 l 638 617 q 597 610 597 615 q 585 571 585 594 m 433 592 q 453 576 446 592 q 454 567 454 571 q 446 554 454 558 q 440 553 446 554 q 415 565 428 553 q 413 576 413 569 q 432 592 413 586 l 433 592 m 683 578 q 701 560 701 575 q 694 546 699 546 l 681 543 q 671 550 674 543 q 665 563 665 556 q 682 578 665 575 l 683 578 m 528 471 q 596 433 564 471 q 614 388 614 410 q 569 329 614 350 q 544 324 554 324 l 538 324 q 465 360 499 324 q 446 407 446 383 l 446 408 q 474 458 446 438 q 528 471 496 471 m 343 464 q 357 446 354 464 q 349 438 357 438 l 347 438 q 333 449 338 438 l 332 453 l 332 456 q 343 464 332 464 m 710 450 l 711 450 q 722 440 722 450 q 715 425 721 432 q 699 442 699 433 q 710 450 701 450 m 307 406 l 307 406 q 315 394 315 406 q 313 385 315 385 q 308 382 311 385 q 294 396 294 388 q 307 406 297 406 m 376 401 l 376 401 q 393 389 389 401 q 394 386 393 386 q 389 375 394 381 l 385 375 q 368 399 368 375 l 368 399 q 376 401 371 401 m 667 388 l 671 388 q 685 372 683 388 l 685 372 q 678 361 685 365 l 674 361 q 663 376 664 361 l 663 381 q 667 388 663 388 m 746 388 l 749 388 q 764 372 764 386 l 764 368 q 761 360 764 360 l 746 360 q 740 376 740 367 q 746 388 740 383 m 519 376 q 525 351 522 351 l 528 351 q 543 354 535 351 q 543 360 543 357 q 531 379 543 376 l 528 379 q 519 376 524 379 z "},"m":{"ha":1429,"x_min":82,"x_max":1360,"o":"m 1154 981 q 1238 926 1199 981 q 1258 854 1258 892 q 1228 774 1258 810 q 1163 754 1200 754 l 1161 754 q 1124 761 1142 754 q 1061 699 1085 735 q 1082 518 1082 594 l 1082 485 q 1175 501 1147 493 q 1210 521 1196 510 l 1210 522 q 1242 632 1210 574 q 1256 643 1250 643 l 1257 643 q 1274 625 1263 643 q 1276 615 1276 618 q 1260 583 1276 607 q 1246 540 1246 563 l 1246 536 q 1263 506 1246 506 q 1321 540 1276 506 q 1344 553 1335 551 q 1360 542 1360 550 q 1290 471 1360 525 q 1265 464 1275 464 l 1260 464 q 1214 481 1238 464 q 1111 449 1181 472 q 1082 442 1096 444 l 1082 411 q 1028 215 1082 271 q 1019 207 1019 210 q 1040 64 1040 106 l 1040 60 q 1028 28 1040 28 l 1026 28 q 1008 101 1008 28 q 994 186 1008 158 q 943 172 960 172 q 938 172 938 172 q 938 171 938 171 q 951 36 951 61 l 951 29 q 938 0 951 0 q 921 90 921 0 q 910 165 921 140 l 910 165 l 790 163 q 794 128 793 151 q 785 94 794 107 l 779 94 q 764 133 764 94 q 760 160 764 160 q 749 163 758 161 q 719 161 732 161 q 715 115 717 128 q 711 106 715 111 q 692 124 699 106 l 690 131 l 690 135 q 692 156 690 142 q 692 157 692 156 q 656 163 681 163 l 654 158 l 654 133 q 647 113 654 119 l 643 113 q 625 144 625 117 q 622 160 625 160 q 561 172 604 167 q 489 183 507 178 l 474 188 q 463 142 463 175 l 463 132 l 467 39 q 451 1 467 1 q 433 44 436 1 q 432 57 433 50 q 442 193 432 101 q 388 214 426 201 q 383 217 388 214 q 372 86 372 192 q 363 25 369 31 q 356 21 358 21 l 354 21 q 343 39 344 21 q 342 74 342 58 l 342 83 q 356 232 342 138 q 269 454 269 297 l 269 485 q 271 496 269 489 l 269 496 q 217 463 251 492 q 182 433 197 443 q 181 403 181 422 l 181 360 q 164 285 181 314 q 158 283 161 283 q 146 307 149 286 l 146 314 q 153 390 146 321 l 153 392 l 151 394 q 115 333 136 383 q 97 321 107 321 l 96 321 q 82 331 88 321 q 143 438 82 358 q 206 494 181 478 q 272 538 231 513 l 271 556 q 285 675 271 572 l 285 686 q 268 718 285 703 q 239 735 261 726 q 188 721 207 721 l 182 721 q 118 769 139 721 q 110 822 110 796 q 158 926 110 886 q 199 939 179 939 q 264 875 243 939 q 274 822 274 842 q 332 764 288 804 q 425 806 357 790 q 529 814 479 814 l 532 814 q 1014 761 835 814 q 1069 828 1058 806 q 1078 840 1069 828 q 1076 858 1076 849 l 1076 868 q 1107 958 1076 913 q 1154 981 1126 981 m 1103 863 l 1103 850 q 1104 832 1103 843 q 1049 765 1086 814 q 1004 733 1019 733 q 893 761 983 733 q 751 781 853 771 q 613 786 682 786 q 389 765 483 786 q 332 742 342 742 l 329 742 q 310 754 319 742 q 253 806 267 789 q 250 811 250 810 l 250 813 q 251 831 250 824 q 200 903 251 886 l 194 904 q 143 853 160 904 q 139 819 139 838 l 139 817 q 178 749 139 764 q 189 747 183 747 q 224 761 200 747 q 235 764 229 764 l 236 764 q 310 708 265 764 q 315 700 315 703 q 301 579 301 617 q 299 535 301 579 q 315 524 315 532 l 315 521 q 301 500 315 515 q 297 443 297 469 q 365 272 300 303 l 365 274 q 375 308 367 308 l 376 308 q 399 276 399 290 q 390 254 390 260 l 390 247 q 431 233 393 247 q 444 232 439 232 l 453 232 q 469 285 458 278 q 486 261 486 279 l 486 256 q 479 222 486 244 l 481 222 q 626 199 590 199 q 633 225 631 206 q 642 232 638 232 l 644 232 q 661 208 654 232 l 661 201 l 660 197 l 663 197 l 665 197 q 689 196 688 196 l 689 196 q 693 197 692 196 q 693 210 693 206 q 706 244 693 236 q 711 244 708 244 q 718 239 718 244 q 719 226 719 238 l 718 199 q 731 196 722 196 q 753 203 743 196 q 746 222 746 211 l 746 229 q 758 238 753 238 q 778 211 771 238 q 779 201 779 206 l 779 197 l 779 197 q 901 200 821 197 l 901 201 q 892 243 901 204 q 890 247 892 244 q 904 263 892 263 l 906 263 q 929 204 921 263 l 931 204 q 983 214 946 204 q 969 258 981 229 l 968 265 l 968 268 q 985 290 968 285 l 985 290 q 1007 236 996 290 l 1007 236 q 1046 293 1031 249 q 1058 367 1056 321 q 1065 442 1061 383 q 1065 443 1065 442 q 1050 460 1053 443 q 1064 481 1050 474 l 1065 481 q 1064 486 1065 481 q 1042 672 1064 563 q 1038 701 1038 700 q 1050 722 1038 711 q 1124 799 1061 735 q 1153 782 1135 782 q 1206 804 1176 782 q 1226 858 1226 825 q 1190 936 1226 904 q 1160 947 1175 947 q 1114 917 1131 947 q 1103 863 1103 893 m 1160 897 q 1176 881 1176 894 l 1176 878 q 1158 861 1174 861 q 1144 876 1149 861 l 1144 881 q 1160 897 1149 897 m 204 833 q 221 817 217 833 l 221 815 q 206 797 218 797 l 203 797 q 189 815 192 797 q 204 833 192 833 m 688 699 q 714 646 696 694 q 726 592 726 603 l 728 592 q 760 647 746 613 q 779 683 776 683 l 779 683 l 781 682 q 753 596 774 632 q 733 561 747 581 q 706 604 714 581 q 685 660 693 647 q 651 581 676 642 q 644 571 646 571 q 599 669 613 604 l 596 693 l 597 693 q 640 601 603 693 l 640 601 q 682 693 669 669 q 688 699 686 699 m 515 519 q 751 504 567 519 q 853 501 790 501 q 875 492 868 499 q 883 465 883 482 q 829 349 883 418 q 786 319 807 328 q 717 307 751 307 q 553 367 626 307 q 497 483 497 419 l 497 489 q 503 519 497 519 l 515 519 m 524 488 q 524 485 524 486 q 531 451 524 471 q 568 440 550 440 l 575 440 l 582 440 l 582 444 q 582 447 582 447 l 582 450 q 582 471 582 457 l 582 483 q 524 488 556 488 m 607 481 l 607 449 q 607 438 607 446 q 661 436 649 436 l 667 436 q 678 436 671 436 l 678 446 q 678 463 678 454 q 675 479 678 469 l 668 479 q 618 482 661 479 q 607 481 615 482 m 701 469 l 701 465 q 706 435 701 460 l 706 435 q 744 435 732 435 q 760 433 751 435 q 764 464 764 442 q 764 467 764 464 q 726 474 739 474 l 718 474 q 701 469 704 474 m 794 469 q 788 440 788 458 l 788 436 l 840 433 q 842 432 840 432 l 851 463 q 851 467 851 463 l 851 468 q 836 469 844 469 q 806 468 808 468 q 794 469 803 468 m 560 406 q 576 389 572 389 l 581 388 l 581 406 q 565 408 578 406 l 563 408 q 560 406 560 408 m 606 389 l 606 383 q 613 365 606 365 q 674 350 642 357 q 676 363 676 356 q 675 403 676 374 l 675 403 q 629 407 635 407 q 606 389 606 407 m 703 400 l 703 400 q 704 383 704 390 l 704 369 q 707 347 704 358 l 728 347 q 753 354 753 350 q 758 399 758 375 l 758 401 l 753 401 q 744 403 747 401 q 703 400 713 400 m 786 403 l 786 396 q 783 374 786 392 q 783 365 783 369 q 818 400 811 381 q 813 400 814 400 q 789 403 792 403 l 786 403 z "}}}
